<svg id="图片添加_add-picture_1" data-name="图片添加_add-picture 1" xmlns="http://www.w3.org/2000/svg" width="32" height="32" viewBox="0 0 32 32">
  <rect id="Retângulo_93" data-name="Retângulo 93" width="32" height="32" fill="none"/>
  <path id="Caminho_972" data-name="Caminho 972" d="M28.665,15.332a1.333,1.333,0,0,0-2.666,0ZM15.332,4.666a1.333,1.333,0,0,0,0-2.666ZM25.332,26h-20v2.666h20ZM4.666,25.332v-20H2v20ZM26,15.332v10h2.666v-10ZM5.333,4.666h10V2h-10ZM5.333,26a.667.667,0,0,1-.667-.667H2a3.333,3.333,0,0,0,3.333,3.333Zm20,2.666a3.333,3.333,0,0,0,3.333-3.333H26a.667.667,0,0,1-.667.667ZM4.666,5.333a.667.667,0,0,1,.667-.667V2A3.333,3.333,0,0,0,2,5.333Z" transform="translate(0.668 0.668)" fill="#5b63ef"/>
  <path id="Caminho_973" data-name="Caminho 973" d="M3,19.224l7.131-6.537a1.334,1.334,0,0,1,1.769-.029l8.439,7.233" transform="translate(1.001 4.11)" fill="none" stroke="#5b63ef" stroke-linecap="round" stroke-linejoin="round" stroke-width="2"/>
  <path id="Caminho_974" data-name="Caminho 974" d="M14,16.394l3.183-3.183a1.334,1.334,0,0,1,1.743-.124l4.41,3.307" transform="translate(4.662 4.273)" fill="none" stroke="#5b63ef" stroke-linecap="round" stroke-linejoin="round" stroke-width="2"/>
  <path id="Caminho_975" data-name="Caminho 975" d="M15,6h8" transform="translate(4.996 2)" fill="none" stroke="#5b63ef" stroke-linecap="round" stroke-linejoin="round" stroke-width="2"/>
  <path id="Caminho_976" data-name="Caminho 976" d="M18,3v8" transform="translate(6 1.001)" fill="none" stroke="#5b63ef" stroke-linecap="round" stroke-linejoin="round" stroke-width="2"/>
</svg>
