<svg xmlns="http://www.w3.org/2000/svg" xmlns:xlink="http://www.w3.org/1999/xlink" width="160.879" height="156" viewBox="0 0 160.879 156">
  <defs>
    <clipPath id="clip-path">
      <rect id="Retângulo_1821" data-name="Retângulo 1821" width="160.879" height="156" fill="none"/>
    </clipPath>
    <clipPath id="clip-path-3">
      <rect id="Retângulo_1818" data-name="Retângulo 1818" width="157.936" height="120.506" fill="none"/>
    </clipPath>
    <clipPath id="clip-path-4">
      <rect id="Retângulo_1819" data-name="Retângulo 1819" width="156" height="156" fill="none"/>
    </clipPath>
  </defs>
  <g id="Ilustração" transform="translate(-99.561 -216.627)">
    <g id="Layer_1-2" transform="translate(128.476 247.876)">
      <path id="Caminho_1135" data-name="Caminho 1135" d="M145.282,235.4q-.735,9.787-1.469,19.571c1.068.828,7.438,5.6,9.055,7.223-1.378-.205-30.629.275-36.658.275.471-1.134,8.174-6.559,9.34-7.5-.313-6.316-.919-11.687-1.251-18.022a14.081,14.081,0,0,1,5.074-.414,78.3,78.3,0,0,0,15.905-1.131Z" transform="translate(-79.493 -161.024)" fill="#fff"/>
      <path id="Caminho_1136" data-name="Caminho 1136" d="M114.673,261.627a.721.721,0,0,1-.594-.316.712.712,0,0,1-.066-.67c.367-.885,2.916-2.872,7.8-6.471.613-.452,1.131-.831,1.466-1.087-.161-3.1-.392-6.019-.616-8.85-.221-2.806-.452-5.706-.616-8.8a.714.714,0,0,1,.477-.711,13.737,13.737,0,0,1,5.008-.464l.325.009a77.549,77.549,0,0,0,15.763-1.122.71.71,0,0,1,.831.755l-1.441,19.185.575.439c2.224,1.694,6.853,5.217,8.247,6.61a.714.714,0,0,1-.61,1.21c-.866-.12-13.754.035-23.163.148-6,.073-11.188.136-13.39.136Zm8.831-25.713c.161,2.866.376,5.577.585,8.2.234,2.954.477,6.01.638,9.264a.712.712,0,0,1-.265.591c-.291.234-.923.7-1.8,1.343-1.564,1.153-4.714,3.472-6.341,4.878,2.641-.019,6.923-.07,11.725-.126,9.984-.12,17.789-.209,21.349-.186-1.984-1.652-5.122-4.041-6.67-5.22-.4-.31-.717-.547-.888-.679a.717.717,0,0,1-.275-.616l1.4-18.661a78.706,78.706,0,0,1-15.15.989l-.325-.009a14.614,14.614,0,0,0-3.984.234Z" transform="translate(-77.952 -159.476)"/>
      <path id="Caminho_1137" data-name="Caminho 1137" d="M112.018,3.552c-1.463,32.7-1.937,53.8-1.937,75.521-34.08-.559-73.891,0-107.749,0C3.11,59.74,3.4,31.259,2.26,2.26c36.762.774,74.431.651,109.758,1.292Z" transform="translate(-1.547 -1.548)" fill="#fff"/>
      <path id="Caminho_1138" data-name="Caminho 1138" d="M108.535,78.24h-.013c-22.932-.376-48.4-.246-73.034-.12-12.155.063-23.634.12-34.7.12a.722.722,0,0,1-.515-.218.724.724,0,0,1-.2-.521C1.007,54.268.979,25.575,0,.741A.724.724,0,0,1,.2.213.721.721,0,0,1,.726,0c19.71.414,39.9.575,59.42.727,16.692.133,33.953.269,50.339.566a.712.712,0,0,1,.7.743c-1.393,31.138-1.937,52.3-1.937,75.489a.72.72,0,0,1-.212.509.705.705,0,0,1-.5.205ZM1.453,1.439c.942,24.43.967,52.478.073,75.372,10.834,0,22.073-.06,33.953-.12,24.38-.123,49.581-.253,72.342.107.013-22.746.55-43.656,1.905-74.1-16.158-.288-33.151-.42-49.59-.55C40.859,2,20.935,1.84,1.456,1.439Z" transform="translate(0 0)"/>
      <path id="Caminho_1139" data-name="Caminho 1139" d="M90.782,217.4q-23.351-.09-46.7-.335c-13.172-.117-28.073-.095-41.245-.262a69.222,69.222,0,0,1-.36,9.027c33.858,0,73.669-.49,107.749,0,.193-2.278.054-5.5.054-8.326-5.728,0-13.779-.082-19.5-.1Z" transform="translate(-1.697 -148.301)" fill="#b8b8f1"/>
      <path id="Caminho_1140" data-name="Caminho 1140" d="M108.692,225h-.009c-22.936-.329-48.405-.215-73.037-.1-12.155.054-23.634.1-34.7.1a.715.715,0,0,1-.537-.243.706.706,0,0,1-.171-.562,68.387,68.387,0,0,0,.354-8.935.72.72,0,0,1,.212-.509.69.69,0,0,1,.509-.205c7.523.095,15.706.13,23.618.161,5.886.025,11.975.051,17.621.1,14.4.13,30.727.275,46.693.335,2.335.009,5.055.028,7.848.047,4.06.028,8.259.057,11.653.057a.711.711,0,0,1,.711.714c0,.828.013,1.694.025,2.559.028,2.06.057,4.186-.079,5.826a.715.715,0,0,1-.711.654ZM2.011,215.974a72.462,72.462,0,0,1-.269,7.592c10.818,0,22.035-.054,33.893-.1,24.4-.107,49.618-.221,72.39.095.079-1.472.054-3.273.032-5.027-.009-.626-.016-1.251-.022-1.864-3.261-.006-7.166-.032-10.951-.057-2.79-.019-5.51-.038-7.845-.047-15.972-.06-32.3-.209-46.7-.335-5.643-.051-11.728-.076-17.615-.1-7.665-.032-15.583-.063-22.91-.155Z" transform="translate(-0.157 -146.755)"/>
      <g id="Grupo_228" data-name="Grupo 228" transform="translate(64.572 80.145)" opacity="0.13">
        <path id="Caminho_1141" data-name="Caminho 1141" d="M204.493,253.736c-.041.032-.079.066-.123.095C204.654,253.619,204.639,253.625,204.493,253.736Z" transform="translate(-204.37 -253.66)"/>
      </g>
      <g id="Grupo_229" data-name="Grupo 229" transform="translate(45.304 76.147)" opacity="0.13">
        <path id="Caminho_1142" data-name="Caminho 1142" d="M162.466,242.034a19.034,19.034,0,0,0-3.937-.145,44.276,44.276,0,0,1-5.213-.43c-1.991-.253-3.994-.193-5.991-.256-.183-.013-.607-.06-.84-.088a.158.158,0,0,1-.038-.006c-.111-.019-.224-.035-.335-.047a.054.054,0,0,1-.022,0,1.465,1.465,0,0,0-1.567.528,1.37,1.37,0,0,0-.3,1.087,1.315,1.315,0,0,0-.389.272,1.549,1.549,0,0,0,1.1,2.626c3.384.231,6.774.357,10.164.43a22.732,22.732,0,0,0,6.724-.449,4.687,4.687,0,0,0,.787-.338l.174-.133a2.145,2.145,0,0,0,.581-.588,1.625,1.625,0,0,0-.894-2.461Z" transform="translate(-143.388 -241.006)"/>
      </g>
      <path id="Caminho_1143" data-name="Caminho 1143" d="M51.364,66.584H36.387a.237.237,0,0,1,0-.474H51.364a.237.237,0,0,1,0,.474Z" transform="translate(-24.729 -45.223)"/>
      <path id="Caminho_1144" data-name="Caminho 1144" d="M57.528,44.064H36.387a.237.237,0,0,1,0-.474H57.525a.237.237,0,1,1,0,.474Z" transform="translate(-24.729 -29.819)"/>
      <path id="Caminho_1145" data-name="Caminho 1145" d="M140.253,99.279H115.011a.725.725,0,0,1-.512-.215.713.713,0,0,1-.2-.515l.556-21.03H106.72a.712.712,0,0,1-.464-1.251l21.024-18.152a.715.715,0,0,1,.954.019L147.6,76.286a.715.715,0,0,1-.49,1.235h-6.8l.648,21.027a.712.712,0,0,1-.711.736Zm-24.509-1.425h23.773l-.648-21.027a.712.712,0,0,1,.711-.736h5.728L127.728,59.61,108.638,76.09h6.948a.725.725,0,0,1,.512.215.713.713,0,0,1,.2.515l-.556,21.03Z" transform="translate(-72.515 -39.636)"/>
      <rect id="Retângulo_1781" data-name="Retângulo 1781" width="8.076" height="8.417" transform="translate(51.336 40.792)" fill="#b8b8f1"/>
      <path id="Caminho_1146" data-name="Caminho 1146" d="M169,136.7h-8.079a.713.713,0,0,1-.714-.714v-8.417a.713.713,0,0,1,.714-.714H169a.713.713,0,0,1,.714.714v8.417A.713.713,0,0,1,169,136.7Zm-7.365-1.425h6.651v-6.992h-6.651Z" transform="translate(-109.591 -86.772)"/>
      <path id="Caminho_1147" data-name="Caminho 1147" d="M289.419,92.077a.714.714,0,0,1-.714-.708l-.265-44.282a.715.715,0,0,1,.708-.717h0a.714.714,0,0,1,.714.708l.265,44.282a.715.715,0,0,1-.708.717Z" transform="translate(-197.305 -31.721)"/>
      <path id="Caminho_1148" data-name="Caminho 1148" d="M277.519,47.788h-5.374a.714.714,0,1,1,0-1.428h5.374a.714.714,0,0,1,0,1.428Z" transform="translate(-185.67 -31.714)"/>
      <path id="Caminho_1149" data-name="Caminho 1149" d="M277.519,187.938h-5.374a.714.714,0,1,1,0-1.428h5.374a.714.714,0,0,1,0,1.428Z" transform="translate(-185.67 -127.582)"/>
      <path id="Caminho_1150" data-name="Caminho 1150" d="M277.519,93.188h-5.374a.714.714,0,1,1,0-1.428h5.374a.714.714,0,0,1,0,1.428Z" transform="translate(-185.67 -62.769)"/>
      <path id="Caminho_1151" data-name="Caminho 1151" d="M277.519,140.558h-5.374a.714.714,0,1,1,0-1.428h5.374a.714.714,0,0,1,0,1.428Z" transform="translate(-185.67 -95.172)"/>
      <g id="Grupo_230" data-name="Grupo 230" transform="translate(41.92 59.38)" opacity="0.13">
        <path id="Caminho_1152" data-name="Caminho 1152" d="M157.679,188.148q-8.768.095-17.533-.142c-1.592-.032-3.188.013-4.78-.019a9.42,9.42,0,0,0-2.092.041,1,1,0,0,0,.382,1.905c8.1.038,16.212.411,24.313.12a.969.969,0,1,0-.288-1.9Z" transform="translate(-132.676 -187.939)"/>
      </g>
    </g>
    <g id="Grupo_272" data-name="Grupo 272" transform="translate(99.561 216.627)">
      <g id="Grupo_271" data-name="Grupo 271" clip-path="url(#clip-path)">
        <g id="Grupo_270" data-name="Grupo 270">
          <g id="Grupo_269" data-name="Grupo 269" clip-path="url(#clip-path)">
            <g id="Grupo_265" data-name="Grupo 265" transform="translate(0 13.194)" opacity="0.804">
              <g id="Grupo_264" data-name="Grupo 264">
                <g id="Grupo_263" data-name="Grupo 263" clip-path="url(#clip-path-3)">
                  <path id="Caminho_1415" data-name="Caminho 1415" d="M3.866,627.168H1.234a1.234,1.234,0,0,1,0-2.468H3.866a1.234,1.234,0,0,1,0,2.468" transform="translate(0 -535.12)" fill="#e5e9ff"/>
                  <path id="Caminho_1416" data-name="Caminho 1416" d="M64.2,627.168H61.234a1.234,1.234,0,0,1,0-2.468H64.2a1.234,1.234,0,0,1,0,2.468" transform="translate(-50.129 -535.12)" fill="#e5e9ff"/>
                  <path id="Caminho_1417" data-name="Caminho 1417" d="M39.734,653.3a1.234,1.234,0,0,1-1.234-1.234v-2.632a1.234,1.234,0,1,1,2.468,0v2.632a1.234,1.234,0,0,1-1.234,1.234" transform="translate(-32.166 -554.754)" fill="#e5e9ff"/>
                  <path id="Caminho_1418" data-name="Caminho 1418" d="M39.734,591.629A1.234,1.234,0,0,1,38.5,590.4v-2.961a1.234,1.234,0,1,1,2.468,0V590.4a1.234,1.234,0,0,1-1.234,1.234" transform="translate(-32.166 -502.954)" fill="#e5e9ff"/>
                  <path id="Caminho_1423" data-name="Caminho 1423" d="M870.866,121.168h-2.632a1.234,1.234,0,1,1,0-2.468h2.632a1.234,1.234,0,1,1,0,2.468" transform="translate(-724.364 -112.366)" fill="#e5e9ff"/>
                  <path id="Caminho_1442" data-name="Caminho 1442" d="M870.866,121.168h-2.632a1.234,1.234,0,1,1,0-2.468h2.632a1.234,1.234,0,1,1,0,2.468" transform="translate(-752.364 -7.508)" fill="#e5e9ff"/>
                  <path id="Caminho_1424" data-name="Caminho 1424" d="M931.2,121.168h-2.961a1.234,1.234,0,1,1,0-2.468H931.2a1.234,1.234,0,1,1,0,2.468" transform="translate(-774.493 -112.366)" fill="#e5e9ff"/>
                  <path id="Caminho_1440" data-name="Caminho 1440" d="M931.2,121.168h-2.961a1.234,1.234,0,1,1,0-2.468H931.2a1.234,1.234,0,1,1,0,2.468" transform="translate(-802.493 -7.508)" fill="#e5e9ff"/>
                  <path id="Caminho_1425" data-name="Caminho 1425" d="M906.734,147.3a1.234,1.234,0,0,1-1.234-1.234v-2.632a1.234,1.234,0,1,1,2.468,0v2.632a1.234,1.234,0,0,1-1.234,1.234" transform="translate(-756.53 -132)" fill="#e5e9ff"/>
                  <path id="Caminho_1441" data-name="Caminho 1441" d="M906.734,147.3a1.234,1.234,0,0,1-1.234-1.234v-2.632a1.234,1.234,0,1,1,2.468,0v2.632a1.234,1.234,0,0,1-1.234,1.234" transform="translate(-784.53 -27.142)" fill="#e5e9ff"/>
                  <path id="Caminho_1426" data-name="Caminho 1426" d="M906.734,85.629A1.234,1.234,0,0,1,905.5,84.4V81.434a1.234,1.234,0,1,1,2.468,0V84.4a1.234,1.234,0,0,1-1.234,1.234" transform="translate(-756.53 -80.2)" fill="#e5e9ff"/>
                  <path id="Caminho_1439" data-name="Caminho 1439" d="M906.734,85.629A1.234,1.234,0,0,1,905.5,84.4V81.434a1.234,1.234,0,1,1,2.468,0V84.4a1.234,1.234,0,0,1-1.234,1.234" transform="translate(-784.53 24.658)" fill="#e5e9ff"/>
                  <path id="Caminho_1427" data-name="Caminho 1427" d="M114.245,772.066a4,4,0,1,1,4-4,4,4,0,0,1-4,4m0-5.531a1.531,1.531,0,1,0,1.531,1.531,1.533,1.533,0,0,0-1.531-1.531" transform="translate(-92.109 -651.56)" fill="#e5e9ff"/>
                  <path id="Caminho_1428" data-name="Caminho 1428" d="M914.19,301.711a4,4,0,1,1,4-4,4,4,0,0,1-4,4m0-5.531a1.531,1.531,0,1,0,1.531,1.531,1.533,1.533,0,0,0-1.531-1.531" transform="translate(-760.449 -258.586)" fill="#e5e9ff"/>
                </g>
              </g>
            </g>
            <g id="Grupo_268" data-name="Grupo 268" transform="translate(4.879 0)" opacity="0.802">
              <g id="Grupo_267" data-name="Grupo 267">
                <g id="Grupo_266" data-name="Grupo 266" clip-path="url(#clip-path-4)">
                  <path id="Caminho_1430" data-name="Caminho 1430" d="M733.749,67.11a1.228,1.228,0,0,1-.725-.237,75.882,75.882,0,0,0-7.4-4.757,1.234,1.234,0,1,1,1.211-2.15,78.394,78.394,0,0,1,7.641,4.912,1.234,1.234,0,0,1-.728,2.231" transform="translate(-610.601 -49.968)" fill="#e5e9ff"/>
                  <path id="Caminho_1431" data-name="Caminho 1431" d="M358.746,5.919a1.234,1.234,0,0,1-.366-2.412,78.538,78.538,0,0,1,41.5-1.348,1.234,1.234,0,0,1-.577,2.4,76.069,76.069,0,0,0-40.185,1.3,1.237,1.237,0,0,1-.367.056" transform="translate(-303.575 0)" fill="#e5e9ff"/>
                  <path id="Caminho_1432" data-name="Caminho 1432" d="M177.228,112.994a1.234,1.234,0,0,1-.847-2.131c1.221-1.153,2.495-2.28,3.786-3.35a1.234,1.234,0,1,1,1.575,1.9c-1.25,1.037-2.484,2.129-3.667,3.245a1.23,1.23,0,0,1-.847.336" transform="translate(-151.919 -89.587)" fill="#e5e9ff"/>
                  <path id="Caminho_1433" data-name="Caminho 1433" d="M31.5,286.817a1.234,1.234,0,0,1-1.223-1.079,79.037,79.037,0,0,1-.006-19.788A77.212,77.212,0,0,1,39.76,237.4a1.234,1.234,0,1,1,2.147,1.217,74.753,74.753,0,0,0-9.184,27.643,76.565,76.565,0,0,0,.006,19.168,1.235,1.235,0,0,1-1.226,1.389" transform="translate(-29.656 -197.82)" fill="#e5e9ff"/>
                  <path id="Caminho_1434" data-name="Caminho 1434" d="M221.268,844.477a1.229,1.229,0,0,1-.616-.166,78.4,78.4,0,0,1-8.639-5.79,1.234,1.234,0,1,1,1.507-1.954,75.934,75.934,0,0,0,8.367,5.608,1.234,1.234,0,0,1-.618,2.3" transform="translate(-181.61 -698.723)" fill="#e5e9ff"/>
                  <path id="Caminho_1435" data-name="Caminho 1435" d="M395.038,922.09a78.208,78.208,0,0,1-20.5-2.722,1.234,1.234,0,0,1,.647-2.382,76.151,76.151,0,0,0,36.009.9,1.234,1.234,0,0,1,.526,2.411,78.5,78.5,0,0,1-16.682,1.788" transform="translate(-317.038 -766.09)" fill="#e5e9ff"/>
                  <path id="Caminho_1436" data-name="Caminho 1436" d="M726.231,858.528a1.234,1.234,0,0,1-.607-2.309c1.844-1.039,3.668-2.171,5.42-3.363a1.234,1.234,0,0,1,1.389,2.04c-1.809,1.231-3.693,2.4-5.6,3.473a1.23,1.23,0,0,1-.6.159" transform="translate(-610.601 -712.367)" fill="#e5e9ff"/>
                  <path id="Caminho_1437" data-name="Caminho 1437" d="M843.7,612.642a1.234,1.234,0,0,1-.915-2.061,75.6,75.6,0,0,0,17.372-32.8,1.234,1.234,0,1,1,2.4.581,78.073,78.073,0,0,1-17.94,33.874,1.231,1.231,0,0,1-.916.406" transform="translate(-708.748 -481.937)" fill="#e5e9ff"/>
                  <path id="Caminho_1438" data-name="Caminho 1438" d="M958.949,405.437a1.234,1.234,0,0,1-1.234-1.234c0-2.272-.1-4.565-.3-6.816-.165-1.841-.4-3.7-.7-5.517a1.234,1.234,0,1,1,2.435-.4c.309,1.879.551,3.8.721,5.7.208,2.323.313,4.691.313,7.036a1.234,1.234,0,0,1-1.234,1.234" transform="translate(-804.183 -326.203)" fill="#e5e9ff"/>
                </g>
              </g>
            </g>
          </g>
        </g>
      </g>
    </g>
  </g>
</svg>
