<svg xmlns="http://www.w3.org/2000/svg" xmlns:xlink="http://www.w3.org/1999/xlink" width="160.879" height="156" viewBox="0 0 160.879 156">
  <defs>
    <clipPath id="clip-path">
      <rect id="Retângulo_1821" data-name="Retângulo 1821" width="160.879" height="156" fill="none"/>
    </clipPath>
    <clipPath id="clip-path-3">
      <rect id="Retângulo_1818" data-name="Retângulo 1818" width="157.936" height="142.506" fill="none"/>
    </clipPath>
    <clipPath id="clip-path-4">
      <rect id="Retângulo_1819" data-name="Retângulo 1819" width="156" height="156" fill="none"/>
    </clipPath>
    <clipPath id="clip-path-5">
      <rect id="Retângulo_1880" data-name="Retângulo 1880" width="125.191" height="90.653" fill="none"/>
    </clipPath>
    <clipPath id="clip-path-7">
      <rect id="Retângulo_1870" data-name="Retângulo 1870" width="21.264" height="8.186" fill="none"/>
    </clipPath>
    <clipPath id="clip-path-8">
      <rect id="Retângulo_1875" data-name="Retângulo 1875" width="15.234" height="1.149" fill="none"/>
    </clipPath>
    <clipPath id="clip-path-9">
      <rect id="Retângulo_1876" data-name="Retângulo 1876" width="4.598" height="1.036" fill="none"/>
    </clipPath>
    <clipPath id="clip-path-10">
      <rect id="Retângulo_1877" data-name="Retângulo 1877" width="4.201" height="1.105" fill="none"/>
    </clipPath>
    <clipPath id="clip-path-11">
      <rect id="Retângulo_1878" data-name="Retângulo 1878" width="48.093" height="2.175" fill="none"/>
    </clipPath>
  </defs>
  <g id="Ilustração" transform="translate(-99.561 -216.627)">
    <g id="Grupo_272" data-name="Grupo 272" transform="translate(99.561 216.627)">
      <g id="Grupo_271" data-name="Grupo 271" clip-path="url(#clip-path)">
        <g id="Grupo_270" data-name="Grupo 270">
          <g id="Grupo_269" data-name="Grupo 269" clip-path="url(#clip-path)">
            <g id="Grupo_265" data-name="Grupo 265" transform="translate(0 13.194)" opacity="0.804">
              <g id="Grupo_264" data-name="Grupo 264">
                <g id="Grupo_263" data-name="Grupo 263" clip-path="url(#clip-path-3)">
                  <path id="Caminho_1415" data-name="Caminho 1415" d="M3.866,627.168H1.234a1.234,1.234,0,0,1,0-2.468H3.866a1.234,1.234,0,0,1,0,2.468" transform="translate(0 -535.12)" fill="#e5e9ff"/>
                  <path id="Caminho_1416" data-name="Caminho 1416" d="M64.2,627.168H61.234a1.234,1.234,0,0,1,0-2.468H64.2a1.234,1.234,0,0,1,0,2.468" transform="translate(-50.129 -535.12)" fill="#e5e9ff"/>
                  <path id="Caminho_1417" data-name="Caminho 1417" d="M39.734,653.3a1.234,1.234,0,0,1-1.234-1.234v-2.632a1.234,1.234,0,1,1,2.468,0v2.632a1.234,1.234,0,0,1-1.234,1.234" transform="translate(-32.166 -554.754)" fill="#e5e9ff"/>
                  <path id="Caminho_1418" data-name="Caminho 1418" d="M39.734,591.629A1.234,1.234,0,0,1,38.5,590.4v-2.961a1.234,1.234,0,1,1,2.468,0V590.4a1.234,1.234,0,0,1-1.234,1.234" transform="translate(-32.166 -502.954)" fill="#e5e9ff"/>
                  <path id="Caminho_1423" data-name="Caminho 1423" d="M870.866,121.168h-2.632a1.234,1.234,0,1,1,0-2.468h2.632a1.234,1.234,0,1,1,0,2.468" transform="translate(-724.364 -112.366)" fill="#e5e9ff"/>
                  <path id="Caminho_1424" data-name="Caminho 1424" d="M931.2,121.168h-2.961a1.234,1.234,0,1,1,0-2.468H931.2a1.234,1.234,0,1,1,0,2.468" transform="translate(-774.493 -112.366)" fill="#e5e9ff"/>
                  <path id="Caminho_1425" data-name="Caminho 1425" d="M906.734,147.3a1.234,1.234,0,0,1-1.234-1.234v-2.632a1.234,1.234,0,1,1,2.468,0v2.632a1.234,1.234,0,0,1-1.234,1.234" transform="translate(-756.53 -132)" fill="#e5e9ff"/>
                  <path id="Caminho_1426" data-name="Caminho 1426" d="M906.734,85.629A1.234,1.234,0,0,1,905.5,84.4V81.434a1.234,1.234,0,1,1,2.468,0V84.4a1.234,1.234,0,0,1-1.234,1.234" transform="translate(-756.53 -80.2)" fill="#e5e9ff"/>
                  <path id="Caminho_1427" data-name="Caminho 1427" d="M114.245,772.066a4,4,0,1,1,4-4,4,4,0,0,1-4,4m0-5.531a1.531,1.531,0,1,0,1.531,1.531,1.533,1.533,0,0,0-1.531-1.531" transform="translate(-92.109 -651.56)" fill="#e5e9ff"/>
                  <path id="Caminho_1428" data-name="Caminho 1428" d="M914.19,301.711a4,4,0,1,1,4-4,4,4,0,0,1-4,4m0-5.531a1.531,1.531,0,1,0,1.531,1.531,1.533,1.533,0,0,0-1.531-1.531" transform="translate(-760.449 -258.586)" fill="#e5e9ff"/>
                  <path id="Caminho_1442" data-name="Caminho 1442" d="M870.866,121.168h-2.632a1.234,1.234,0,1,1,0-2.468h2.632a1.234,1.234,0,1,1,0,2.468" transform="translate(-733.33 11.492)" fill="#e5e9ff"/>
                  <path id="Caminho_1440" data-name="Caminho 1440" d="M931.2,121.168h-2.961a1.234,1.234,0,1,1,0-2.468H931.2a1.234,1.234,0,1,1,0,2.468" transform="translate(-783.459 11.492)" fill="#e5e9ff"/>
                  <path id="Caminho_1441" data-name="Caminho 1441" d="M906.734,147.3a1.234,1.234,0,0,1-1.234-1.234v-2.632a1.234,1.234,0,1,1,2.468,0v2.632a1.234,1.234,0,0,1-1.234,1.234" transform="translate(-765.496 -8.142)" fill="#e5e9ff"/>
                  <path id="Caminho_1439" data-name="Caminho 1439" d="M906.734,85.629A1.234,1.234,0,0,1,905.5,84.4V81.434a1.234,1.234,0,1,1,2.468,0V84.4a1.234,1.234,0,0,1-1.234,1.234" transform="translate(-765.496 43.658)" fill="#e5e9ff"/>
                </g>
              </g>
            </g>
            <g id="Grupo_268" data-name="Grupo 268" transform="translate(4.879 0)" opacity="0.802">
              <g id="Grupo_267" data-name="Grupo 267">
                <g id="Grupo_266" data-name="Grupo 266" clip-path="url(#clip-path-4)">
                  <path id="Caminho_1430" data-name="Caminho 1430" d="M733.749,67.11a1.228,1.228,0,0,1-.725-.237,75.882,75.882,0,0,0-7.4-4.757,1.234,1.234,0,1,1,1.211-2.15,78.394,78.394,0,0,1,7.641,4.912,1.234,1.234,0,0,1-.728,2.231" transform="translate(-610.601 -49.968)" fill="#e5e9ff"/>
                  <path id="Caminho_1431" data-name="Caminho 1431" d="M358.746,5.919a1.234,1.234,0,0,1-.366-2.412,78.538,78.538,0,0,1,41.5-1.348,1.234,1.234,0,0,1-.577,2.4,76.069,76.069,0,0,0-40.185,1.3,1.237,1.237,0,0,1-.367.056" transform="translate(-303.575 0)" fill="#e5e9ff"/>
                  <path id="Caminho_1432" data-name="Caminho 1432" d="M177.228,112.994a1.234,1.234,0,0,1-.847-2.131c1.221-1.153,2.495-2.28,3.786-3.35a1.234,1.234,0,1,1,1.575,1.9c-1.25,1.037-2.484,2.129-3.667,3.245a1.23,1.23,0,0,1-.847.336" transform="translate(-151.919 -89.587)" fill="#e5e9ff"/>
                  <path id="Caminho_1433" data-name="Caminho 1433" d="M31.5,286.817a1.234,1.234,0,0,1-1.223-1.079,79.037,79.037,0,0,1-.006-19.788A77.212,77.212,0,0,1,39.76,237.4a1.234,1.234,0,1,1,2.147,1.217,74.753,74.753,0,0,0-9.184,27.643,76.565,76.565,0,0,0,.006,19.168,1.235,1.235,0,0,1-1.226,1.389" transform="translate(-29.656 -197.82)" fill="#e5e9ff"/>
                  <path id="Caminho_1434" data-name="Caminho 1434" d="M221.268,844.477a1.229,1.229,0,0,1-.616-.166,78.4,78.4,0,0,1-8.639-5.79,1.234,1.234,0,1,1,1.507-1.954,75.934,75.934,0,0,0,8.367,5.608,1.234,1.234,0,0,1-.618,2.3" transform="translate(-181.61 -698.723)" fill="#e5e9ff"/>
                  <path id="Caminho_1435" data-name="Caminho 1435" d="M395.038,922.09a78.208,78.208,0,0,1-20.5-2.722,1.234,1.234,0,0,1,.647-2.382,76.151,76.151,0,0,0,36.009.9,1.234,1.234,0,0,1,.526,2.411,78.5,78.5,0,0,1-16.682,1.788" transform="translate(-317.038 -766.09)" fill="#e5e9ff"/>
                  <path id="Caminho_1436" data-name="Caminho 1436" d="M726.231,858.528a1.234,1.234,0,0,1-.607-2.309c1.844-1.039,3.668-2.171,5.42-3.363a1.234,1.234,0,0,1,1.389,2.04c-1.809,1.231-3.693,2.4-5.6,3.473a1.23,1.23,0,0,1-.6.159" transform="translate(-610.601 -712.367)" fill="#e5e9ff"/>
                  <path id="Caminho_1437" data-name="Caminho 1437" d="M843.7,612.642a1.234,1.234,0,0,1-.915-2.061,75.6,75.6,0,0,0,17.372-32.8,1.234,1.234,0,1,1,2.4.581,78.073,78.073,0,0,1-17.94,33.874,1.231,1.231,0,0,1-.916.406" transform="translate(-708.748 -481.937)" fill="#e5e9ff"/>
                  <path id="Caminho_1438" data-name="Caminho 1438" d="M958.949,405.437a1.234,1.234,0,0,1-1.234-1.234c0-2.272-.1-4.565-.3-6.816-.165-1.841-.4-3.7-.7-5.517a1.234,1.234,0,1,1,2.435-.4c.309,1.879.551,3.8.721,5.7.208,2.323.313,4.691.313,7.036a1.234,1.234,0,0,1-1.234,1.234" transform="translate(-804.183 -326.203)" fill="#e5e9ff"/>
                </g>
              </g>
            </g>
          </g>
        </g>
      </g>
    </g>
    <g id="Grupo_17490" data-name="Grupo 17490" transform="translate(123.5 247.242)">
      <g id="Grupo_17489" data-name="Grupo 17489" transform="translate(-2 -2)" clip-path="url(#clip-path-5)">
        <g id="Grupo_17488" data-name="Grupo 17488">
          <g id="Grupo_17487" data-name="Grupo 17487" clip-path="url(#clip-path-5)">
            <path id="Caminho_16732" data-name="Caminho 16732" d="M120.676,104.761c0,8.076-4.913,13.344-16.067,14.512H3.261L1.664,42.5l119.012.432Z" transform="translate(0.861 -31.146)" fill="#fff" stroke="#707070" stroke-width="0.3"/>
            <path id="Caminho_16733" data-name="Caminho 16733" d="M103.305,118.329H1.958a.359.359,0,0,1-.36-.352L0,41.2a.359.359,0,0,1,.361-.367l119.012.432a.36.36,0,0,1,.358.36v61.828c0,8.728-5.514,13.731-16.389,14.87l-.038,0m-101-.719H103.286c10.435-1.1,15.726-5.86,15.726-14.153V41.987L.727,41.558Z" transform="translate(2.165 -29.842)" stroke="#000" stroke-width="0.7"/>
            <path id="Caminho_16734" data-name="Caminho 16734" d="M474.517,74.365s.732-11.818-19.739-9.915c3.567-19.489-1.571-62.34-1.571-62.34s18.819-3.087,21.381,6.855-.072,65.4-.072,65.4" transform="translate(-353.051 0.867)" fill="#fff"/>
            <path id="Caminho_16735" data-name="Caminho 16735" d="M473.214,73.426h-.02a.36.36,0,0,1-.34-.376s0-.008,0-.014a8.392,8.392,0,0,0-2.64-5.965c-3.2-3.1-8.826-4.294-16.707-3.561a.353.353,0,0,1-.3-.115.36.36,0,0,1-.088-.308c3.517-19.213-1.523-61.8-1.574-62.232a.359.359,0,0,1,.3-.4,43.86,43.86,0,0,1,9.821-.3c6.739.632,10.877,3.2,11.966,7.424,2.534,9.832.072,62.714-.059,65.47,0,.021,0,.036,0,.042a.36.36,0,0,1-.359.337M457.742,62.582c5.9,0,10.254,1.334,12.986,3.984a9.42,9.42,0,0,1,2.263,3.391c.5-11.808,2.116-53.778-.055-62.2C470.67-1.036,454.834.769,452.3,1.117c.473,4.1,4.819,43.052,1.609,61.635q2.012-.169,3.831-.17" transform="translate(-351.748 2.165)" stroke="#000" stroke-width="0.7"/>
            <path id="Caminho_16736" data-name="Caminho 16736" d="M53.843,113.936H40.109a.12.12,0,0,1,0-.24H53.843a.12.12,0,0,1,0,.24" transform="translate(-29.177 -86.948)" stroke="#000" stroke-width="0.1"/>
            <path id="Caminho_16737" data-name="Caminho 16737" d="M59.5,84.873H40.109a.12.12,0,0,1,0-.24H59.5a.12.12,0,0,1,0,.24" transform="translate(-29.177 -64.168)" stroke="#000" stroke-width="0.1"/>
            <path id="Caminho_16738" data-name="Caminho 16738" d="M135.545,349.608h0l-65.013-.4a.36.36,0,0,1,0-.719h0l65.013.4a.36.36,0,0,1,0,.719" transform="translate(-52.835 -270.973)"/>
            <path id="Caminho_16739" data-name="Caminho 16739" d="M359.114,344.941a.36.36,0,0,1-.189-.666l2.954-1.818-2.807-2.261a.36.36,0,1,1,.451-.56l3.2,2.581a.359.359,0,0,1-.037.586l-3.388,2.085a.357.357,0,0,1-.188.053" transform="translate(-279.02 -263.974)"/>
            <path id="Caminho_16740" data-name="Caminho 16740" d="M71.38,342.119a.356.356,0,0,1-.188-.053L67.8,339.981a.36.36,0,0,1-.037-.586l3.2-2.581a.36.36,0,1,1,.451.56l-2.807,2.261,2.954,1.818a.36.36,0,0,1-.189.666" transform="translate(-50.844 -261.762)"/>
            <g id="Grupo_17474" data-name="Grupo 17474" transform="translate(100.867 65.22)" opacity="0.129">
              <g id="Grupo_17473" data-name="Grupo 17473">
                <g id="Grupo_17472" data-name="Grupo 17472" clip-path="url(#clip-path-7)">
                  <path id="Caminho_16741" data-name="Caminho 16741" d="M477.718,298.648v0a.687.687,0,0,0-.052-.113,3.184,3.184,0,0,0-.413-.722A9,9,0,0,0,475.512,296a6.513,6.513,0,0,0-1.02-.925c-4.391-2.625-10.119-3.528-15.494-3.436l-.154.016a2.619,2.619,0,0,0-1.672.287,1.319,1.319,0,0,0-.524.367.748.748,0,0,0,.121,1.029,1.489,1.489,0,0,0,1.4.777,29.543,29.543,0,0,1,4.168.411,44.054,44.054,0,0,1,7.578,1.586l.464.165-.085-.029a18.424,18.424,0,0,1,2.846,1.327c1.451.859.732.41,1.565.948a7.57,7.57,0,0,1,.951.849l.122.11a.809.809,0,0,0,.189.14.922.922,0,0,0,.382.163,1.187,1.187,0,0,0,1.382-.636.881.881,0,0,0-.007-.495" transform="translate(-456.493 -291.627)"/>
                </g>
              </g>
            </g>
            <path id="Caminho_16742" data-name="Caminho 16742" d="M120.687,185.036l46.842.48V149.782l-46.842-.031Z" transform="translate(-92.427 -115.207)" fill="#fff"/>
            <path id="Caminho_16743" data-name="Caminho 16743" d="M166.226,184.571h0l-46.842-.48a.36.36,0,0,1-.356-.36V148.447a.36.36,0,0,1,.36-.36l46.842.031a.36.36,0,0,1,.359.36v35.734a.359.359,0,0,1-.36.36m-46.483-1.2,46.123.472V148.837l-46.123-.03Z" transform="translate(-91.124 -113.903)" stroke="#000" stroke-width="0.2"/>
            <path id="Caminho_16744" data-name="Caminho 16744" d="M266.067,162.939h15.409V149.751l-15.409.018Z" transform="translate(-206.374 -115.207)" fill="#b8b8f1"/>
            <path id="Caminho_16745" data-name="Caminho 16745" d="M280.173,161.995H264.764a.36.36,0,0,1-.36-.36v-13.17a.359.359,0,0,1,.359-.36l15.409-.019h0a.36.36,0,0,1,.36.36v13.188a.36.36,0,0,1-.36.36m-15.049-.719h14.689V148.807l-14.689.018Z" transform="translate(-205.07 -113.903)" stroke="#000" stroke-width="0.2"/>
            <rect id="Retângulo_1871" data-name="Retângulo 1871" width="4.316" height="4.316" transform="translate(28.26 34.544)" fill="#fff"/>
            <path id="Caminho_16746" data-name="Caminho 16746" d="M123.7,153.122h-4.316a.36.36,0,0,1-.36-.36v-4.316a.36.36,0,0,1,.36-.36H123.7a.36.36,0,0,1,.36.36v4.316a.36.36,0,0,1-.36.36m-3.957-.719h3.6v-3.6h-3.6Z" transform="translate(-91.124 -113.903)" stroke="#000" stroke-width="0.2"/>
            <rect id="Retângulo_1872" data-name="Retângulo 1872" width="4.316" height="4.316" transform="translate(28.26 65.535)" fill="#fff"/>
            <path id="Caminho_16747" data-name="Caminho 16747" d="M123.7,296.456h-4.316a.36.36,0,0,1-.36-.36v-4.316a.36.36,0,0,1,.36-.36H123.7a.36.36,0,0,1,.36.36V296.1a.36.36,0,0,1-.36.36m-3.957-.719h3.6v-3.6h-3.6Z" transform="translate(-91.124 -226.246)" stroke="#000" stroke-width="0.2"/>
            <rect id="Retângulo_1873" data-name="Retângulo 1873" width="4.316" height="4.316" transform="translate(70.564 34.544)" fill="#fff"/>
            <path id="Caminho_16748" data-name="Caminho 16748" d="M319.355,153.122h-4.316a.36.36,0,0,1-.36-.36v-4.316a.36.36,0,0,1,.36-.36h4.316a.36.36,0,0,1,.36.36v4.316a.36.36,0,0,1-.36.36M315.4,152.4H319v-3.6h-3.6Z" transform="translate(-244.475 -113.903)" stroke="#000" stroke-width="0.2"/>
            <rect id="Retângulo_1874" data-name="Retângulo 1874" width="4.316" height="4.316" transform="translate(70.786 65.898)" fill="#fff"/>
            <path id="Caminho_16749" data-name="Caminho 16749" d="M320.384,298.133h-4.316a.36.36,0,0,1-.36-.36v-4.316a.36.36,0,0,1,.36-.36h4.316a.36.36,0,0,1,.36.36v4.316a.36.36,0,0,1-.36.36m-3.957-.719h3.6v-3.6h-3.6Z" transform="translate(-245.281 -227.56)" stroke="#000" stroke-width="0.2"/>
            <path id="Caminho_16750" data-name="Caminho 16750" d="M188.867,163.451h0a.12.12,0,0,1-.118-.121l.136-12.558a.116.116,0,0,1,.121-.119.12.12,0,0,1,.118.121l-.137,12.558a.12.12,0,0,1-.12.118" transform="translate(-145.771 -115.914)" stroke="#000" stroke-width="0.1"/>
            <path id="Caminho_16751" data-name="Caminho 16751" d="M188.867,247.722h0a.12.12,0,0,1-.118-.121l.136-12.558a.121.121,0,0,1,.033-.082l5.3-5.542a.12.12,0,0,1,.173.166l-5.266,5.508-.136,12.51a.12.12,0,0,1-.12.118" transform="translate(-145.771 -177.62)" stroke="#000" stroke-width="0.1"/>
            <path id="Caminho_16752" data-name="Caminho 16752" d="M265.317,267.81h0a.12.12,0,0,1-.118-.121l.136-12.558a.116.116,0,0,1,.121-.118.12.12,0,0,1,.119.121l-.137,12.558a.12.12,0,0,1-.12.118" transform="translate(-205.692 -197.708)" stroke="#000" stroke-width="0.1"/>
            <g id="Grupo_17477" data-name="Grupo 17477" transform="translate(59.714 47.828)" opacity="0.129">
              <g id="Grupo_17476" data-name="Grupo 17476">
                <g id="Grupo_17475" data-name="Grupo 17475" clip-path="url(#clip-path-8)">
                  <path id="Caminho_16753" data-name="Caminho 16753" d="M280.757,211.259c-3.42-.074-6.843-.065-10.264-.069-1.339.046-2.705.021-4.029.187a.5.5,0,0,0,.194.962c4.742-.263,9.5-.13,14.244-.077a.509.509,0,1,0-.145-1" transform="translate(-266.162 -211.19)"/>
                </g>
              </g>
            </g>
            <g id="Grupo_17480" data-name="Grupo 17480" transform="translate(70.331 38.857)" opacity="0.129">
              <g id="Grupo_17479" data-name="Grupo 17479">
                <g id="Grupo_17478" data-name="Grupo 17478" clip-path="url(#clip-path-9)">
                  <path id="Caminho_16754" data-name="Caminho 16754" d="M319.632,169.8a6.854,6.854,0,0,0-1.646-.1c-.8.03-1.629-.036-2.414.075a.5.5,0,0,0,.193.962c1.208-.03,2.417-.032,3.625-.035a.483.483,0,0,0,.243-.9" transform="translate(-315.268 -169.697)"/>
                </g>
              </g>
            </g>
            <g id="Grupo_17483" data-name="Grupo 17483" transform="translate(28.579 38.905)" opacity="0.129">
              <g id="Grupo_17482" data-name="Grupo 17482">
                <g id="Grupo_17481" data-name="Grupo 17481" clip-path="url(#clip-path-10)">
                  <path id="Caminho_16755" data-name="Caminho 16755" d="M126.232,170.261a.712.712,0,0,0-.576-.128c-.267,0-.535-.012-.8-.02-.526-.013-1.62-.073-1.719-.1-.247-.027-.5-.171-.737-.027a.491.491,0,0,0,.246.911c.859.052,1.717.1,2.578.111a3.7,3.7,0,0,0,.866-.021.447.447,0,0,0,.144-.725" transform="translate(-122.16 -169.922)"/>
                </g>
              </g>
            </g>
            <path id="Caminho_16756" data-name="Caminho 16756" d="M346.532,149.352h0c-4.048-.046-8.156-.054-12.212-.024h0a.12.12,0,0,1,0-.24c4.057-.03,8.167-.022,12.216.024a.12.12,0,0,1,0,.24" transform="translate(-259.774 -114.885)" stroke="#000" stroke-width="0.1"/>
            <path id="Caminho_16757" data-name="Caminho 16757" d="M347.686,315.711h0c-3.706-.046-7.456-.054-11.148-.024h0a.12.12,0,0,1,0-.24c3.693-.029,7.445-.022,11.152.024a.12.12,0,0,1,0,.24" transform="translate(-261.512 -245.063)" stroke="#000" stroke-width="0.1"/>
            <path id="Caminho_16758" data-name="Caminho 16758" d="M375.965,157.992h-.007a.36.36,0,0,1-.353-.366l.168-9.118a.36.36,0,0,1,.641-.218l2.182,2.741a.36.36,0,0,1-.563.448l-1.559-1.959-.15,8.118a.36.36,0,0,1-.359.353" transform="translate(-292.228 -113.955)"/>
            <path id="Caminho_16759" data-name="Caminho 16759" d="M366.059,152.631a.36.36,0,0,1-.262-.606,34.79,34.79,0,0,0,2.284-2.7.36.36,0,0,1,.572.436,35.561,35.561,0,0,1-2.331,2.755.358.358,0,0,1-.262.114" transform="translate(-284.699 -114.762)"/>
            <path id="Caminho_16760" data-name="Caminho 16760" d="M368.241,279.582a.359.359,0,0,1-.281-.135l-2.182-2.741a.36.36,0,0,1,.563-.448l1.559,1.959.149-8.118a.36.36,0,1,1,.719.013l-.168,9.118a.359.359,0,0,1-.359.353" transform="translate(-284.464 -209.256)"/>
            <path id="Caminho_16761" data-name="Caminho 16761" d="M376.157,301.72a.36.36,0,0,1-.286-.578,35.644,35.644,0,0,1,2.331-2.755.36.36,0,0,1,.525.492,34.822,34.822,0,0,0-2.284,2.7.359.359,0,0,1-.286.142" transform="translate(-292.297 -231.468)"/>
            <g id="Grupo_17486" data-name="Grupo 17486" transform="translate(27.655 69.805)" opacity="0.129">
              <g id="Grupo_17485" data-name="Grupo 17485">
                <g id="Grupo_17484" data-name="Grupo 17484" clip-path="url(#clip-path-11)">
                  <path id="Caminho_16762" data-name="Caminho 16762" d="M165.367,313.782c-.019,0-.038,0-.056,0H165.2c-.122-.015-.691.033-.353,0-.792.031-.857-.014-1.634-.016-3.008.218-5.6-.18-8.812-.211-5.982-.138-11.969-.13-17.953-.059-4.4.041-8.8-.189-13.19-.37-.92-.011-1.841-.031-2.757-.114l.146.02c-.429-.054-.86-.1-1.29-.142a2.263,2.263,0,0,0-1,0,.8.8,0,0,0,.307,1.527c2.522.169,5.048.277,7.577.275,2,.083,3.989.244,5.987.285,1.874.062,3.746-.067,5.619-.078,2.911-.041,5.823-.025,8.734-.017,2.465.052,4.927-.046,7.391-.081a84,84,0,0,0,9.966.032,4.684,4.684,0,0,1,1.108.118c.072.02.088.019.07.007a.471.471,0,0,0,.209.041.613.613,0,1,0,.034-1.224" transform="translate(-117.887 -312.833)"/>
                </g>
              </g>
            </g>
          </g>
        </g>
      </g>
    </g>
  </g>
</svg>
