<svg xmlns="http://www.w3.org/2000/svg" xmlns:xlink="http://www.w3.org/1999/xlink" width="160.879" height="156" viewBox="0 0 160.879 156">
  <defs>
    <clipPath id="clip-path">
      <rect id="Retângulo_1821" data-name="Retângulo 1821" width="160.879" height="156" fill="none"/>
    </clipPath>
    <clipPath id="clip-path-3">
      <rect id="Retângulo_1818" data-name="Retângulo 1818" width="157.936" height="142.506" fill="none"/>
    </clipPath>
    <clipPath id="clip-path-4">
      <rect id="Retângulo_1819" data-name="Retângulo 1819" width="156" height="156" fill="none"/>
    </clipPath>
    <clipPath id="clip-path-5">
      <rect id="Retângulo_1843" data-name="Retângulo 1843" width="98.16" height="100.441" fill="none"/>
    </clipPath>
    <clipPath id="clip-path-7">
      <rect id="Retângulo_1839" data-name="Retângulo 1839" width="55.351" height="2.408" fill="none"/>
    </clipPath>
    <clipPath id="clip-path-8">
      <rect id="Retângulo_1840" data-name="Retângulo 1840" width="13.915" height="6.384" fill="none"/>
    </clipPath>
    <clipPath id="clip-path-9">
      <rect id="Retângulo_1841" data-name="Retângulo 1841" width="33.306" height="2.341" fill="none"/>
    </clipPath>
  </defs>
  <g id="Ilustração" transform="translate(-99.561 -216.627)">
    <g id="Grupo_272" data-name="Grupo 272" transform="translate(99.561 216.627)">
      <g id="Grupo_271" data-name="Grupo 271" clip-path="url(#clip-path)">
        <g id="Grupo_270" data-name="Grupo 270">
          <g id="Grupo_269" data-name="Grupo 269" clip-path="url(#clip-path)">
            <g id="Grupo_265" data-name="Grupo 265" transform="translate(0 13.194)" opacity="0.804">
              <g id="Grupo_264" data-name="Grupo 264">
                <g id="Grupo_263" data-name="Grupo 263" clip-path="url(#clip-path-3)">
                  <path id="Caminho_1415" data-name="Caminho 1415" d="M3.866,627.168H1.234a1.234,1.234,0,0,1,0-2.468H3.866a1.234,1.234,0,0,1,0,2.468" transform="translate(0 -535.12)" fill="#e5e9ff"/>
                  <path id="Caminho_1416" data-name="Caminho 1416" d="M64.2,627.168H61.234a1.234,1.234,0,0,1,0-2.468H64.2a1.234,1.234,0,0,1,0,2.468" transform="translate(-50.129 -535.12)" fill="#e5e9ff"/>
                  <path id="Caminho_1417" data-name="Caminho 1417" d="M39.734,653.3a1.234,1.234,0,0,1-1.234-1.234v-2.632a1.234,1.234,0,1,1,2.468,0v2.632a1.234,1.234,0,0,1-1.234,1.234" transform="translate(-32.166 -554.754)" fill="#e5e9ff"/>
                  <path id="Caminho_1418" data-name="Caminho 1418" d="M39.734,591.629A1.234,1.234,0,0,1,38.5,590.4v-2.961a1.234,1.234,0,1,1,2.468,0V590.4a1.234,1.234,0,0,1-1.234,1.234" transform="translate(-32.166 -502.954)" fill="#e5e9ff"/>
                  <path id="Caminho_1423" data-name="Caminho 1423" d="M870.866,121.168h-2.632a1.234,1.234,0,1,1,0-2.468h2.632a1.234,1.234,0,1,1,0,2.468" transform="translate(-724.364 -112.366)" fill="#e5e9ff"/>
                  <path id="Caminho_1424" data-name="Caminho 1424" d="M931.2,121.168h-2.961a1.234,1.234,0,1,1,0-2.468H931.2a1.234,1.234,0,1,1,0,2.468" transform="translate(-774.493 -112.366)" fill="#e5e9ff"/>
                  <path id="Caminho_1425" data-name="Caminho 1425" d="M906.734,147.3a1.234,1.234,0,0,1-1.234-1.234v-2.632a1.234,1.234,0,1,1,2.468,0v2.632a1.234,1.234,0,0,1-1.234,1.234" transform="translate(-756.53 -132)" fill="#e5e9ff"/>
                  <path id="Caminho_1426" data-name="Caminho 1426" d="M906.734,85.629A1.234,1.234,0,0,1,905.5,84.4V81.434a1.234,1.234,0,1,1,2.468,0V84.4a1.234,1.234,0,0,1-1.234,1.234" transform="translate(-756.53 -80.2)" fill="#e5e9ff"/>
                  <path id="Caminho_1427" data-name="Caminho 1427" d="M114.245,772.066a4,4,0,1,1,4-4,4,4,0,0,1-4,4m0-5.531a1.531,1.531,0,1,0,1.531,1.531,1.533,1.533,0,0,0-1.531-1.531" transform="translate(-92.109 -651.56)" fill="#e5e9ff"/>
                  <path id="Caminho_1428" data-name="Caminho 1428" d="M914.19,301.711a4,4,0,1,1,4-4,4,4,0,0,1-4,4m0-5.531a1.531,1.531,0,1,0,1.531,1.531,1.533,1.533,0,0,0-1.531-1.531" transform="translate(-760.449 -258.586)" fill="#e5e9ff"/>
                  <path id="Caminho_1442" data-name="Caminho 1442" d="M870.866,121.168h-2.632a1.234,1.234,0,1,1,0-2.468h2.632a1.234,1.234,0,1,1,0,2.468" transform="translate(-733.33 11.492)" fill="#e5e9ff"/>
                  <path id="Caminho_1440" data-name="Caminho 1440" d="M931.2,121.168h-2.961a1.234,1.234,0,1,1,0-2.468H931.2a1.234,1.234,0,1,1,0,2.468" transform="translate(-783.459 11.492)" fill="#e5e9ff"/>
                  <path id="Caminho_1441" data-name="Caminho 1441" d="M906.734,147.3a1.234,1.234,0,0,1-1.234-1.234v-2.632a1.234,1.234,0,1,1,2.468,0v2.632a1.234,1.234,0,0,1-1.234,1.234" transform="translate(-765.496 -8.142)" fill="#e5e9ff"/>
                  <path id="Caminho_1439" data-name="Caminho 1439" d="M906.734,85.629A1.234,1.234,0,0,1,905.5,84.4V81.434a1.234,1.234,0,1,1,2.468,0V84.4a1.234,1.234,0,0,1-1.234,1.234" transform="translate(-765.496 43.658)" fill="#e5e9ff"/>
                </g>
              </g>
            </g>
            <g id="Grupo_268" data-name="Grupo 268" transform="translate(4.879 0)" opacity="0.802">
              <g id="Grupo_267" data-name="Grupo 267">
                <g id="Grupo_266" data-name="Grupo 266" clip-path="url(#clip-path-4)">
                  <path id="Caminho_1430" data-name="Caminho 1430" d="M733.749,67.11a1.228,1.228,0,0,1-.725-.237,75.882,75.882,0,0,0-7.4-4.757,1.234,1.234,0,1,1,1.211-2.15,78.394,78.394,0,0,1,7.641,4.912,1.234,1.234,0,0,1-.728,2.231" transform="translate(-610.601 -49.968)" fill="#e5e9ff"/>
                  <path id="Caminho_1431" data-name="Caminho 1431" d="M358.746,5.919a1.234,1.234,0,0,1-.366-2.412,78.538,78.538,0,0,1,41.5-1.348,1.234,1.234,0,0,1-.577,2.4,76.069,76.069,0,0,0-40.185,1.3,1.237,1.237,0,0,1-.367.056" transform="translate(-303.575 0)" fill="#e5e9ff"/>
                  <path id="Caminho_1432" data-name="Caminho 1432" d="M177.228,112.994a1.234,1.234,0,0,1-.847-2.131c1.221-1.153,2.495-2.28,3.786-3.35a1.234,1.234,0,1,1,1.575,1.9c-1.25,1.037-2.484,2.129-3.667,3.245a1.23,1.23,0,0,1-.847.336" transform="translate(-151.919 -89.587)" fill="#e5e9ff"/>
                  <path id="Caminho_1433" data-name="Caminho 1433" d="M31.5,286.817a1.234,1.234,0,0,1-1.223-1.079,79.037,79.037,0,0,1-.006-19.788A77.212,77.212,0,0,1,39.76,237.4a1.234,1.234,0,1,1,2.147,1.217,74.753,74.753,0,0,0-9.184,27.643,76.565,76.565,0,0,0,.006,19.168,1.235,1.235,0,0,1-1.226,1.389" transform="translate(-29.656 -197.82)" fill="#e5e9ff"/>
                  <path id="Caminho_1434" data-name="Caminho 1434" d="M221.268,844.477a1.229,1.229,0,0,1-.616-.166,78.4,78.4,0,0,1-8.639-5.79,1.234,1.234,0,1,1,1.507-1.954,75.934,75.934,0,0,0,8.367,5.608,1.234,1.234,0,0,1-.618,2.3" transform="translate(-181.61 -698.723)" fill="#e5e9ff"/>
                  <path id="Caminho_1435" data-name="Caminho 1435" d="M395.038,922.09a78.208,78.208,0,0,1-20.5-2.722,1.234,1.234,0,0,1,.647-2.382,76.151,76.151,0,0,0,36.009.9,1.234,1.234,0,0,1,.526,2.411,78.5,78.5,0,0,1-16.682,1.788" transform="translate(-317.038 -766.09)" fill="#e5e9ff"/>
                  <path id="Caminho_1436" data-name="Caminho 1436" d="M726.231,858.528a1.234,1.234,0,0,1-.607-2.309c1.844-1.039,3.668-2.171,5.42-3.363a1.234,1.234,0,0,1,1.389,2.04c-1.809,1.231-3.693,2.4-5.6,3.473a1.23,1.23,0,0,1-.6.159" transform="translate(-610.601 -712.367)" fill="#e5e9ff"/>
                  <path id="Caminho_1437" data-name="Caminho 1437" d="M843.7,612.642a1.234,1.234,0,0,1-.915-2.061,75.6,75.6,0,0,0,17.372-32.8,1.234,1.234,0,1,1,2.4.581,78.073,78.073,0,0,1-17.94,33.874,1.231,1.231,0,0,1-.916.406" transform="translate(-708.748 -481.937)" fill="#e5e9ff"/>
                  <path id="Caminho_1438" data-name="Caminho 1438" d="M958.949,405.437a1.234,1.234,0,0,1-1.234-1.234c0-2.272-.1-4.565-.3-6.816-.165-1.841-.4-3.7-.7-5.517a1.234,1.234,0,1,1,2.435-.4c.309,1.879.551,3.8.721,5.7.208,2.323.313,4.691.313,7.036a1.234,1.234,0,0,1-1.234,1.234" transform="translate(-804.183 -326.203)" fill="#e5e9ff"/>
                </g>
              </g>
            </g>
          </g>
        </g>
      </g>
    </g>
    <g id="Grupo_312" data-name="Grupo 312" transform="translate(134.74 242.164)">
      <g id="Grupo_311" data-name="Grupo 311" clip-path="url(#clip-path-5)">
        <g id="Grupo_310" data-name="Grupo 310">
          <g id="Grupo_309" data-name="Grupo 309" clip-path="url(#clip-path-5)">
            <path id="Caminho_1489" data-name="Caminho 1489" d="M3.525,297.6a.695.695,0,0,1-.694-.705l.092-5.731a.694.694,0,0,1,.694-.683h.011a.694.694,0,0,1,.682.705L4.23,296.2l49.58-.489h.007a.694.694,0,0,1,.007,1.388l-50.292.5Z" transform="translate(-1.96 -201.126)"/>
            <path id="Caminho_1490" data-name="Caminho 1490" d="M145.321,294.3l-9.821.194.142,8.665,10.035-.111Z" transform="translate(-93.819 -203.773)" fill="#fff"/>
            <path id="Caminho_1491" data-name="Caminho 1491" d="M134.08,302.292a.694.694,0,0,1-.694-.682l-.142-8.665a.694.694,0,0,1,.68-.705l9.821-.194h.014a.694.694,0,0,1,.693.666l.356,8.747a.694.694,0,0,1-.686.722l-10.034.111Zm.563-8.678.12,7.283,8.63-.1-.3-7.354Z" transform="translate(-92.257 -202.211)"/>
            <path id="Caminho_1492" data-name="Caminho 1492" d="M207.942,235.45l-47.849-.435c-.775-12.9,2.509-39.025,22.524-39.025,30.15,0,25.324,39.46,25.324,39.46" transform="translate(-110.777 -135.703)" fill="#fff"/>
            <path id="Caminho_1493" data-name="Caminho 1493" d="M206.369,234.581h-.006l-47.849-.435a.693.693,0,0,1-.686-.652c-.629-10.464,1.369-25.585,9.069-33.761a18.7,18.7,0,0,1,14.148-6c7.7,0,13.854,2.538,18.284,7.543,10.187,11.508,7.834,31.835,7.729,32.695a.694.694,0,0,1-.689.61m-47.192-1.817,46.563.423c.309-3.5,1.358-21.042-7.454-30.995-4.155-4.692-9.956-7.072-17.242-7.072a17.366,17.366,0,0,0-13.138,5.563c-7.241,7.69-9.224,21.926-8.729,32.08" transform="translate(-109.204 -134.14)"/>
            <path id="Caminho_1494" data-name="Caminho 1494" d="M213.99,251a6.823,6.823,0,1,1,6.823,6.823A6.823,6.823,0,0,1,213.99,251" transform="translate(-148.166 -169.065)" fill="#b8b8f1"/>
            <path id="Caminho_1495" data-name="Caminho 1495" d="M219.251,256.951a7.517,7.517,0,1,1,7.517-7.517,7.525,7.525,0,0,1-7.517,7.517m0-13.646a6.129,6.129,0,1,0,6.129,6.129,6.136,6.136,0,0,0-6.129-6.129" transform="translate(-146.604 -167.502)"/>
            <path id="Caminho_1496" data-name="Caminho 1496" d="M184.111,302.062a.231.231,0,0,1-.231-.23l-.038-9.041a.234.234,0,0,1,.231-.232.231.231,0,0,1,.231.23l.037,9.041a.231.231,0,0,1-.23.232Z" transform="translate(-127.291 -202.565)"/>
            <path id="Caminho_1497" data-name="Caminho 1497" d="M201.159,310.7a.231.231,0,0,1-.229-.2,23.671,23.671,0,0,1-.055-5.259.234.234,0,0,1,.253-.207.231.231,0,0,1,.206.253,23.23,23.23,0,0,0,.054,5.156.231.231,0,0,1-.2.257l-.029,0" transform="translate(-139.001 -211.203)"/>
            <path id="Caminho_1498" data-name="Caminho 1498" d="M217.963,315.231a.231.231,0,0,1-.229-.2,27.19,27.19,0,0,1-.266-3.237.231.231,0,0,1,.226-.236.244.244,0,0,1,.236.226,26.613,26.613,0,0,0,.261,3.182.231.231,0,0,1-.2.262l-.034,0" transform="translate(-150.574 -215.722)"/>
            <path id="Caminho_1499" data-name="Caminho 1499" d="M175.392,48.532h-.01a.694.694,0,0,1-.683-.7l.669-45.584a.694.694,0,0,1,.694-.684h.01a.694.694,0,0,1,.684.7l-.668,45.584a.694.694,0,0,1-.694.684" transform="translate(-120.96 -1.08)"/>
            <path id="Caminho_1500" data-name="Caminho 1500" d="M171.621,6.057a.693.693,0,0,1-.557-.28l-2.985-4.015-3.729,3.832a.694.694,0,0,1-.995-.968l4.3-4.415A.7.7,0,0,1,168.2,0a.694.694,0,0,1,.511.278l3.471,4.669a.694.694,0,0,1-.556,1.108" transform="translate(-112.969 -0.001)"/>
            <path id="Caminho_1501" data-name="Caminho 1501" d="M165.934,143.088a.694.694,0,0,1-.5-.21l-4.3-4.415a.694.694,0,0,1,.995-.968l3.729,3.832,2.985-4.015a.694.694,0,1,1,1.114.828l-3.471,4.669a.694.694,0,0,1-.511.278l-.046,0" transform="translate(-111.436 -94.879)"/>
            <path id="Caminho_1502" data-name="Caminho 1502" d="M3.06,2.255l-.8,66.086H35.622l.4-66.086Z" transform="translate(-1.562 -1.561)" fill="#fff"/>
            <path id="Caminho_1503" data-name="Caminho 1503" d="M34.061,67.473H.695A.694.694,0,0,1,0,66.77L.8.685A.694.694,0,0,1,1.5,0H34.463a.694.694,0,0,1,.694.7l-.4,66.086a.694.694,0,0,1-.694.69M1.4,66.085H33.371l.394-64.7H2.184Z" transform="translate(-0.001 0.001)"/>
            <path id="Caminho_1504" data-name="Caminho 1504" d="M30.439,36.575H23.732a.694.694,0,0,1-.694-.694V29.174a.694.694,0,0,1,.694-.694h6.708a.694.694,0,0,1,.694.694v6.707a.694.694,0,0,1-.694.694m-6.014-1.388h5.32v-5.32h-5.32Z" transform="translate(-15.951 -19.719)"/>
            <path id="Caminho_1505" data-name="Caminho 1505" d="M74.049,36.575H67.342a.694.694,0,0,1-.694-.694V29.174a.694.694,0,0,1,.694-.694h6.707a.694.694,0,0,1,.694.694v6.707a.694.694,0,0,1-.694.694m-6.013-1.388h5.32v-5.32h-5.32Z" transform="translate(-46.147 -19.719)"/>
            <path id="Caminho_1506" data-name="Caminho 1506" d="M30.439,93.709H23.732a.694.694,0,0,1-.694-.694V86.308a.694.694,0,0,1,.694-.694h6.708a.694.694,0,0,1,.694.694v6.707a.694.694,0,0,1-.694.694m-6.014-1.388h5.32V87h-5.32Z" transform="translate(-15.951 -59.279)"/>
            <path id="Caminho_1507" data-name="Caminho 1507" d="M74.049,93.709H67.342a.694.694,0,0,1-.694-.694V86.308a.694.694,0,0,1,.694-.694h6.707a.694.694,0,0,1,.694.694v6.707a.694.694,0,0,1-.694.694m-6.013-1.388h5.32V87h-5.32Z" transform="translate(-46.147 -59.279)"/>
            <path id="Caminho_1508" data-name="Caminho 1508" d="M29.583,150.843H22.875a.694.694,0,0,1-.694-.694v-6.707a.694.694,0,0,1,.694-.694h6.708a.694.694,0,0,1,.694.694v6.707a.694.694,0,0,1-.694.694m-6.014-1.388h5.32v-5.32h-5.32Z" transform="translate(-15.358 -98.838)"/>
            <path id="Caminho_1509" data-name="Caminho 1509" d="M73.193,150.843H66.486a.694.694,0,0,1-.694-.694v-6.707a.694.694,0,0,1,.694-.694h6.707a.694.694,0,0,1,.694.694v6.707a.694.694,0,0,1-.694.694m-6.014-1.388H72.5v-5.32H67.18Z" transform="translate(-45.554 -98.838)"/>
            <path id="Caminho_1510" data-name="Caminho 1510" d="M35.435,201.848h0L2.283,201.8a.231.231,0,0,1,0-.463h0l33.152.043a.231.231,0,0,1,0,.463" transform="translate(-1.421 -139.408)"/>
            <g id="Grupo_302" data-name="Grupo 302" transform="translate(42.066 97.121)" opacity="0.129">
              <g id="Grupo_301" data-name="Grupo 301">
                <g id="Grupo_300" data-name="Grupo 300" clip-path="url(#clip-path-7)">
                  <path id="Caminho_1511" data-name="Caminho 1511" d="M191.632,316.184a2.257,2.257,0,0,0-1.194-.106c-10.087-.088-20.177.286-30.263.03-6.851-.282-13.7-.462-20.56-.329-.633.011-1.266.014-1.9.02a.969.969,0,1,0,0,1.939c3.808-.018,7.618-.1,11.426-.053,5.066.114,10.127.389,15.194.444,8.331.083,16.659-.227,24.99-.088.606,0,1.212-.035,1.818-.054a.967.967,0,0,0,.488-1.8" transform="translate(-136.754 -315.734)"/>
                </g>
              </g>
            </g>
            <g id="Grupo_305" data-name="Grupo 305" transform="translate(65.883 81.761)" opacity="0.129">
              <g id="Grupo_304" data-name="Grupo 304">
                <g id="Grupo_303" data-name="Grupo 303" clip-path="url(#clip-path-8)">
                  <path id="Caminho_1512" data-name="Caminho 1512" d="M226.881,266.117a10.855,10.855,0,0,1-2.224,2.508c-.106.1-.231.2-.365.3a1.932,1.932,0,0,1-.216.113c-2.045,1.111-4.573.708-6.905-.619a6.224,6.224,0,0,1-.633-.545c-.634-.557-.5-.451-.771-.7-.208-.246-.34-.6-.683-.68a.72.72,0,0,0-.806,1.048c.479.692.714,1.057.992,1.384a.728.728,0,0,0,.117.915A6.514,6.514,0,0,0,216.681,271a.869.869,0,0,0,.629.617,5.821,5.821,0,0,0,3.383.5,6.291,6.291,0,0,0,.683.072,6.545,6.545,0,0,0,6.179-4.215,5.6,5.6,0,0,0,.54-1.608.658.658,0,0,0-1.213-.244" transform="translate(-214.179 -265.8)"/>
                </g>
              </g>
            </g>
            <g id="Grupo_308" data-name="Grupo 308" transform="translate(0.871 64.228)" opacity="0.129">
              <g id="Grupo_307" data-name="Grupo 307">
                <g id="Grupo_306" data-name="Grupo 306" clip-path="url(#clip-path-9)">
                  <path id="Caminho_1513" data-name="Caminho 1513" d="M35.858,209.072c-.413-.432-.995-.223-1.516-.21q-10.237.464-20.5.295c-2.341-.055-4.682-.134-7.023-.209a22.333,22.333,0,0,0-3.406-.019.968.968,0,0,0,.373,1.855c7.769.3,15.543.494,23.316.243a74.706,74.706,0,0,0,8.443-.386.966.966,0,0,0,.311-1.568" transform="translate(-2.83 -208.8)"/>
                </g>
              </g>
            </g>
          </g>
        </g>
      </g>
    </g>
  </g>
</svg>
