<svg xmlns="http://www.w3.org/2000/svg" xmlns:xlink="http://www.w3.org/1999/xlink" width="38.621" height="25.48" viewBox="0 0 38.621 25.48">
  <defs>
    <clipPath id="clip-path">
      <rect id="Retângulo_2040" data-name="Retângulo 2040" width="38.621" height="25.48" fill="none"/>
    </clipPath>
  </defs>
  <g id="Grupo_17521" data-name="Grupo 17521" transform="translate(1 1)">
    <g id="Grupo_17520" data-name="Grupo 17520" transform="translate(-1 -1)" clip-path="url(#clip-path)">
      <path id="Caminho_16971" data-name="Caminho 16971" d="M34.819,16.295H32.94a.073.073,0,0,1-.055-.023.1.1,0,0,1-.027-.076c0-5.957-4.719-11.345-11.015-12.635V2.105A2.108,2.108,0,0,0,19.738,0H16.454a2.108,2.108,0,0,0-2.105,2.105V3.664C8.256,5.29,4.008,10.431,4.008,16.2a.1.1,0,0,1-.027.069.074.074,0,0,1-.055.023H2.048A2.05,2.05,0,0,0,0,18.342v3.33a2.05,2.05,0,0,0,2.048,2.048H4.789c.065-.022,27.289,0,27.289,0h0v0h2.741a2.05,2.05,0,0,0,2.048-2.048v-3.33a2.05,2.05,0,0,0-2.048-2.048m-3.895,7.428c-.031-.007-24.977.013-24.98,0Zm4.789-2.049a.9.9,0,0,1-.894.894H2.048a.9.9,0,0,1-.894-.894v-3.33a.9.9,0,0,1,.894-.894H3.926a1.223,1.223,0,0,0,.88-.37,1.247,1.247,0,0,0,.356-.883c0-5.148,3.759-9.757,9.187-11.332V14.22a.577.577,0,1,0,1.154,0V2.105a.953.953,0,0,1,.951-.951h3.284a.953.953,0,0,1,.951.951V14.22a.577.577,0,1,0,1.154,0V4.739C27.5,6,31.7,10.851,31.7,16.2a1.245,1.245,0,0,0,.356.877,1.222,1.222,0,0,0,.88.37h1.878a.9.9,0,0,1,.894.894Z" transform="translate(0.877 0.877)" fill="#535ed4" stroke="#535ed4" stroke-width="1"/>
    </g>
  </g>
</svg>
