<svg xmlns="http://www.w3.org/2000/svg" width="24" height="48" viewBox="0 0 24 48">
  <g id="左_left_" data-name="左_left " transform="translate(-172 -265)">
    <rect id="Retângulo_7" data-name="Retângulo 7" width="24" height="48" transform="translate(172 265)" fill="none"/>
    <path id="Caminho_1531" data-name="Caminho 1531" d="M35.5,9A1.5,1.5,0,1,0,34,7.5,1.5,1.5,0,0,0,35.5,9Z" transform="translate(149 275.786)" fill="#5d5f78"/>
    <path id="Caminho_1532" data-name="Caminho 1532" d="M35.5,23A1.5,1.5,0,1,0,34,21.5,1.5,1.5,0,0,0,35.5,23Z" transform="translate(149 267)" fill="#5d5f78"/>
    <path id="Caminho_1533" data-name="Caminho 1533" d="M35.5,37A1.5,1.5,0,1,0,34,35.5,1.5,1.5,0,0,0,35.5,37Z" transform="translate(149 258.214)" fill="#5d5f78"/>
  </g>
</svg>
