<svg id="订单_order_1_1" data-name="订单_order (1) 1" xmlns="http://www.w3.org/2000/svg" width="20" height="21" viewBox="0 0 20 21">
  <rect id="Retângulo_1776" data-name="Retângulo 1776" width="20" height="20" fill="none"/>
  <path id="Caminho_1116" data-name="Caminho 1116" d="M13.771,2.917h2.063a.833.833,0,0,1,.833.833V17.5a.833.833,0,0,1-.833.833H4.167a.833.833,0,0,1-.833-.833V3.75a.833.833,0,0,1,.833-.833H7.083v1.25h5.833V2.917Z" fill="none" stroke="#fff" stroke-linejoin="round" stroke-width="1.667"/>
  <path id="Caminho_1117" data-name="Caminho 1117" d="M12.917,1.667H7.083v2.5h5.833Z" fill="none" stroke="#fff" stroke-linecap="round" stroke-linejoin="round" stroke-width="1.667"/>
  <circle id="Elipse_1" data-name="Elipse 1" cx="5.5" cy="5.5" r="5.5" transform="translate(9 10)" fill="#5c6adf"/>
  <path id="Caminho_19" data-name="Caminho 19" d="M16.5,14.5v4.821" transform="translate(-2 -1.41)" fill="none" stroke="#fff" stroke-linecap="round" stroke-linejoin="round" stroke-width="1"/>
  <path id="Caminho_20" data-name="Caminho 20" d="M13,18h4.821" transform="translate(-0.91 -2.5)" fill="none" stroke="#fff" stroke-linecap="round" stroke-linejoin="round" stroke-width="1"/>
</svg>
