<svg xmlns="http://www.w3.org/2000/svg" xmlns:xlink="http://www.w3.org/1999/xlink" width="312" height="281" viewBox="0 0 312 281">
  <defs>
    <clipPath id="clip-path">
      <rect id="Retângulo_5407" data-name="Retângulo 5407" width="312" height="281" transform="translate(24 115)" fill="#fff" stroke="#707070" stroke-width="1"/>
    </clipPath>
    <clipPath id="clip-path-2">
      <rect id="Retângulo_5310" data-name="Retângulo 5310" width="6.741" height="2.034" fill="none"/>
    </clipPath>
    <clipPath id="clip-path-3">
      <rect id="Retângulo_5328" data-name="Retângulo 5328" width="10.105" height="5.854" fill="none"/>
    </clipPath>
    <clipPath id="clip-path-4">
      <rect id="Retângulo_5329" data-name="Retângulo 5329" width="7.26" height="4.092" fill="none"/>
    </clipPath>
    <clipPath id="clip-path-5">
      <rect id="Retângulo_5330" data-name="Retângulo 5330" width="3.848" height="5.018" fill="none"/>
    </clipPath>
    <clipPath id="clip-path-6">
      <rect id="Retângulo_5377" data-name="Retângulo 5377" width="39.076" height="2.265" fill="none"/>
    </clipPath>
    <clipPath id="clip-path-7">
      <rect id="Retângulo_5387" data-name="Retângulo 5387" width="59.741" height="2.286" fill="none"/>
    </clipPath>
    <clipPath id="clip-path-8">
      <rect id="Retângulo_5389" data-name="Retângulo 5389" width="31.83" height="2.888" fill="none"/>
    </clipPath>
    <clipPath id="clip-path-9">
      <rect id="Retângulo_5390" data-name="Retângulo 5390" width="150.529" height="3.433" fill="none"/>
    </clipPath>
    <clipPath id="clip-path-10">
      <rect id="Retângulo_5392" data-name="Retângulo 5392" width="12.037" height="3.191" fill="none"/>
    </clipPath>
    <clipPath id="clip-path-11">
      <rect id="Retângulo_5397" data-name="Retângulo 5397" width="38.373" height="59.095" fill="none"/>
    </clipPath>
    <clipPath id="clip-path-13">
      <rect id="Retângulo_5395" data-name="Retângulo 5395" width="28.799" height="13.752" fill="none"/>
    </clipPath>
    <clipPath id="clip-path-14">
      <rect id="Retângulo_5403" data-name="Retângulo 5403" width="79.296" height="33.292" fill="none"/>
    </clipPath>
    <clipPath id="clip-path-16">
      <rect id="Retângulo_5400" data-name="Retângulo 5400" width="45.114" height="1.963" fill="none"/>
    </clipPath>
    <clipPath id="clip-path-17">
      <rect id="Retângulo_5401" data-name="Retângulo 5401" width="11.342" height="5.203" fill="none"/>
    </clipPath>
    <clipPath id="clip-path-18">
      <rect id="Retângulo_5405" data-name="Retângulo 5405" width="8.769" height="55.359" fill="none"/>
    </clipPath>
  </defs>
  <g id="Grupo_de_máscara_13" data-name="Grupo de máscara 13" transform="translate(-24 -115)" clip-path="url(#clip-path)">
    <g id="Grupo_18568" data-name="Grupo 18568" transform="translate(5592.724 233.589)">
      <g id="Grupo_18567" data-name="Grupo 18567" transform="translate(-6118 -255.932)">
        <g id="Grupo_18570" data-name="Grupo 18570">
          <g id="Grupo_18551" data-name="Grupo 18551" transform="translate(0 -0.001)">
            <g id="Grupo_18569" data-name="Grupo 18569">
              <g id="Grupo_18399" data-name="Grupo 18399" transform="translate(172.044 -216.163)">
                <path id="Caminho_18819" data-name="Caminho 18819" d="M1751.1,1167.538h0l-99.3-.757a.533.533,0,0,1,0-1.066h0l99.3.757a.533.533,0,0,1,0,1.066" transform="translate(-1122.217 -792.233)"/>
                <path id="Caminho_18820" data-name="Caminho 18820" d="M1948.857,1163.03a.533.533,0,0,1-.323-.957l4.687-3.561-4.459-4.435a.533.533,0,1,1,.752-.756l4.893,4.867a.533.533,0,0,1-.053.8l-5.175,3.931a.528.528,0,0,1-.322.109" transform="translate(-1324.104 -783.704)"/>
                <path id="Caminho_18821" data-name="Caminho 18821" d="M1654.349,1160.621a.528.528,0,0,1-.322-.109l-5.175-3.931a.534.534,0,0,1-.053-.8l4.893-4.867a.533.533,0,1,1,.752.756l-4.459,4.436,4.687,3.561a.533.533,0,0,1-.323.957" transform="translate(-1120.438 -782.067)"/>
                <rect id="Retângulo_5309" data-name="Retângulo 5309" width="6.396" height="6.396" transform="translate(577.759 371.166)" fill="#fff"/>
                <path id="Caminho_18822" data-name="Caminho 18822" d="M1808.577,1164.283h-6.4a.533.533,0,0,1-.533-.533v-6.4a.533.533,0,0,1,.533-.533h6.4a.533.533,0,0,1,.533.533v6.4a.533.533,0,0,1-.533.533m-5.863-1.066h5.33v-5.33h-5.33Z" transform="translate(-1224.422 -786.189)"/>
                <g id="Grupo_18398" data-name="Grupo 18398" transform="translate(577.502 375.612)" opacity="0.129">
                  <g id="Grupo_18397" data-name="Grupo 18397">
                    <g id="Grupo_18396" data-name="Grupo 18396" clip-path="url(#clip-path-2)">
                      <path id="Caminho_18823" data-name="Caminho 18823" d="M1808.351,1172.624c-1.192-.011-2.378-.184-3.572-.2a4.553,4.553,0,0,0-1.658.04,1.009,1.009,0,0,0,.389,1.934c1.591-.032,3.182-.055,4.773-.1a.842.842,0,1,0,.067-1.673" transform="translate(-1802.511 -1172.365)"/>
                    </g>
                  </g>
                </g>
              </g>
              <path id="Caminho_18844" data-name="Caminho 18844" d="M2407.519,442.625h0c-1.119,0-2.193-.036-3.194-.1a.533.533,0,1,1,.066-1.064c.979.061,2.033.093,3.131.1a.533.533,0,0,1,0,1.066m4.265-.12a.533.533,0,0,1-.029-1.065c1.353-.075,2.776-.186,4.231-.33a.533.533,0,0,1,.1,1.061c-1.47.145-2.909.257-4.277.333h-.03m8.492-.827a.533.533,0,0,1-.07-1.061c1.373-.185,2.788-.4,4.2-.63a.533.533,0,1,1,.174,1.052c-1.427.235-2.852.449-4.236.634a.484.484,0,0,1-.071,0m8.42-1.386a.533.533,0,0,1-.1-1.056c1.377-.266,2.779-.556,4.165-.862a.533.533,0,1,1,.229,1.041c-1.4.308-2.806.6-4.193.868a.546.546,0,0,1-.1.01m8.335-1.836a.533.533,0,0,1-.128-1.05c1.379-.341,2.763-.7,4.115-1.075a.533.533,0,0,1,.283,1.028c-1.361.375-2.754.738-4.142,1.082a.527.527,0,0,1-.129.016m8.226-2.267a.533.533,0,0,1-.155-1.043c1.375-.419,2.737-.857,4.047-1.3a.533.533,0,1,1,.342,1.01c-1.32.448-2.692.889-4.078,1.312a.523.523,0,0,1-.156.023m8.08-2.746a.533.533,0,0,1-.189-1.031c1.368-.519,2.693-1.052,3.937-1.587a.533.533,0,0,1,.421.98c-1.259.54-2.6,1.079-3.979,1.6a.532.532,0,0,1-.189.035m7.833-3.382a.533.533,0,0,1-.238-1.01c1.341-.667,2.589-1.347,3.708-2.021a.533.533,0,1,1,.55.913c-1.143.689-2.416,1.382-3.783,2.062a.527.527,0,0,1-.237.056m7.258-4.457a.533.533,0,0,1-.334-.949l.209-.17c1.019-.837,2.018-1.713,2.972-2.606a.533.533,0,0,1,.729.778c-.971.909-1.988,1.8-3.024,2.652l-.219.177a.533.533,0,0,1-.333.117m6.218-5.824a.533.533,0,0,1-.391-.9c.953-1.028,1.882-2.1,2.76-3.2a.533.533,0,0,1,.831.668c-.895,1.113-1.84,2.208-2.81,3.255a.531.531,0,0,1-.391.171m5.335-6.642a.533.533,0,0,1-.438-.836c.8-1.149,1.564-2.344,2.283-3.552a.533.533,0,1,1,.916.545c-.731,1.229-1.512,2.445-2.322,3.615a.534.534,0,0,1-.438.229m4.354-7.317a.533.533,0,0,1-.475-.774c.629-1.244,1.229-2.533,1.783-3.831a.533.533,0,1,1,.98.418c-.562,1.32-1.172,2.63-1.812,3.895a.534.534,0,0,1-.476.292m3.344-7.834a.532.532,0,0,1-.5-.711c.464-1.315.9-2.67,1.285-4.029a.533.533,0,0,1,1.025.294c-.395,1.379-.834,2.755-1.306,4.09a.534.534,0,0,1-.5.355m2.349-8.189a.533.533,0,0,1-.52-.652c.318-1.388.622-2.786.9-4.154a.533.533,0,0,1,1.044.216c-.284,1.376-.59,2.781-.91,4.177a.533.533,0,0,1-.519.414m1.721-8.351a.55.55,0,0,1-.1-.009.533.533,0,0,1-.428-.62c.255-1.4.495-2.809.711-4.19a.533.533,0,1,1,1.053.165c-.218,1.39-.459,2.809-.716,4.216a.533.533,0,0,1-.523.437m1.317-8.424a.559.559,0,0,1-.069,0,.532.532,0,0,1-.46-.6c.183-1.419.345-2.839.483-4.221a.533.533,0,1,1,1.06.105c-.138,1.392-.3,2.822-.486,4.251a.532.532,0,0,1-.528.465m.842-8.485h-.037a.532.532,0,0,1-.495-.568c.1-1.411.172-2.838.222-4.24a.533.533,0,1,1,1.065.038c-.051,1.414-.126,2.852-.224,4.275a.533.533,0,0,1-.531.5m.3-8.519h0a.533.533,0,0,1-.531-.535v-.249c0-1.33-.022-2.674-.065-3.995a.533.533,0,0,1,1.065-.036c.044,1.333.066,2.689.066,4.03v.253a.534.534,0,0,1-.533.531" transform="translate(-1650.035 -118.477)"/>
              <rect id="Retângulo_5314" data-name="Retângulo 5314" width="7.288" height="7.019" transform="translate(560.245 241.777)" fill="#fff"/>
              <path id="Caminho_18845" data-name="Caminho 18845" d="M1754.8,761.059h-7.288a.533.533,0,0,1-.533-.533v-7.019a.533.533,0,0,1,.533-.533h7.288a.533.533,0,0,1,.533.533v7.019a.533.533,0,0,1-.533.533m-6.755-1.066h6.222V754.04h-6.222Z" transform="translate(-1187.27 -511.729)"/>
              <rect id="Retângulo_5323" data-name="Retângulo 5323" width="7.288" height="7.019" transform="translate(729.398 380.553)" fill="#fff"/>
              <rect id="Retângulo_5324" data-name="Retângulo 5324" width="7.288" height="7.019" transform="translate(846.701 312.512)" fill="#fff"/>
              <g id="Grupo_18409" data-name="Grupo 18409" transform="translate(91 36.749)">
                <rect id="Retângulo_5325" data-name="Retângulo 5325" width="7.288" height="7.019" transform="translate(640.938 154.147)" fill="#fff"/>
                <path id="Caminho_18854" data-name="Caminho 18854" d="M2006.665,487.544h-7.288a.533.533,0,0,1-.533-.533v-7.019a.533.533,0,0,1,.533-.533h7.288a.533.533,0,0,1,.533.533v7.019a.533.533,0,0,1-.533.533m-6.755-1.066h6.222v-5.953h-6.222Z" transform="translate(-1358.439 -325.845)"/>
              </g>
              <path id="Caminho_18855" data-name="Caminho 18855" d="M2006.665,487.544h-7.288a.533.533,0,0,1-.533-.533v-7.019a.533.533,0,0,1,.533-.533h7.288a.533.533,0,0,1,.533.533v7.019a.533.533,0,0,1-.533.533m-6.755-1.066h6.222v-5.953h-6.222Z" transform="translate(-1269.979 -99.439)"/>
              <path id="Caminho_18856" data-name="Caminho 18856" d="M2006.665,487.544h-7.288a.533.533,0,0,1-.533-.533v-7.019a.533.533,0,0,1,.533-.533h7.288a.533.533,0,0,1,.533.533v7.019a.533.533,0,0,1-.533.533m-6.755-1.066h6.222v-5.953h-6.222Z" transform="translate(-1152.676 -167.48)"/>
              <path id="Caminho_18865" data-name="Caminho 18865" d="M2149.635,445.909h-.031a.533.533,0,0,1-.5-.563,32.008,32.008,0,0,1,1.353-7.523.533.533,0,0,1,1.019.313,30.93,30.93,0,0,0-1.308,7.272.533.533,0,0,1-.531.5" transform="translate(-1468.556 -232.567)"/>
              <path id="Caminho_18866" data-name="Caminho 18866" d="M2165.842,454.933a.532.532,0,0,1-.5-.713,22.382,22.382,0,0,1,1.7-3.656.533.533,0,0,1,.922.533,21.368,21.368,0,0,0-1.615,3.482.533.533,0,0,1-.5.353" transform="translate(-1479.57 -241.302)"/>
              <path id="Caminho_18867" data-name="Caminho 18867" d="M2119.808,448.4h-.014a.533.533,0,0,1-.519-.547,24.484,24.484,0,0,0-.558-5.885.533.533,0,1,1,1.042-.228,25.6,25.6,0,0,1,.583,6.141.533.533,0,0,1-.533.519" transform="translate(-1447.897 -235.198)"/>
              <path id="Caminho_18868" data-name="Caminho 18868" d="M2099.893,453.543a.533.533,0,0,1-.509-.376l-.933-3.034a.533.533,0,0,1,1.019-.313l.933,3.034a.533.533,0,0,1-.51.69" transform="translate(-1434.117 -240.721)"/>
              <g id="Grupo_18419" data-name="Grupo 18419" transform="translate(-233.39 -73.252)">
                <path id="Caminho_18887" data-name="Caminho 18887" d="M2506.312,711.192l-1.475-4.972,3.1-4.479-7.645-5.412-2.958,4.929a.7.7,0,0,1-.191.234.677.677,0,0,1-.394.075q-2.555-.035-5.108-.1c-.84-1.628-1.654-3.178-2.571-4.66a.542.542,0,0,0-.292-.277.53.53,0,0,0-.382.114l-6.072,3.728a.429.429,0,0,0-.141.119c-.087.131-.013.307.064.445a22.049,22.049,0,0,0,2.71,3.853,50.218,50.218,0,0,1-2.928,4.856,2,2,0,0,1-.964.885,1.94,1.94,0,0,1-1.082-.094q-2.137-.616-4.225-1.4a14.577,14.577,0,0,0-.635,9.146c.115.231,5.4-.54,5.4-.54l3.15,5.583-2.528,4.248,5.793,4.314,3.01-4.493,5.313.107,2.051,4.741,7.919-2.8-1.917-4.861,2.847-4.716,5.372-.44.167-6.691Zm-9.135,2.53a2.074,2.074,0,0,1-.238.912,3.393,3.393,0,0,1-.262.533,4.716,4.716,0,0,1-.73.872,5.648,5.648,0,0,1-1.922,1.2,4.9,4.9,0,0,1-.912.235,2.775,2.775,0,0,1-.792.043c-.168-.018-.341-.073-.51-.074.472,0-.043.006-.228-.047a3.528,3.528,0,0,1-2.01-1.672,3.6,3.6,0,0,1-.475-1.492,3.392,3.392,0,0,1,.283-1.4,9.84,9.84,0,0,1,.927-1.8,4.743,4.743,0,0,1,1.634-1.62,2.531,2.531,0,0,1,2.091-.146,1.122,1.122,0,0,1,.858-.07,2.837,2.837,0,0,1,1.257.851,4.606,4.606,0,0,1,.757,1.318,3.493,3.493,0,0,1,.151.476c.022.095.04.19.055.286q.031.224.059.448,0-.051-.008-.1c-.015-.129-.011-.134.01-.015q.033.227.061.455a2.052,2.052,0,0,1,.009.229,2.444,2.444,0,0,1-.066.573" transform="translate(-1680.817 -468.154)" fill="#fff"/>
                <path id="Caminho_18888" data-name="Caminho 18888" d="M2500.369,727.323a.164.164,0,0,1-.049-.007.178.178,0,0,1-.122-.219c1.512-5.291,3.3-10.563,5.309-15.67a.178.178,0,1,1,.33.13c-2.006,5.1-3.788,10.357-5.3,15.637a.177.177,0,0,1-.171.128" transform="translate(-1698.161 -478.338)"/>
                <path id="Caminho_18889" data-name="Caminho 18889" d="M2507.629,732.419a.167.167,0,0,1-.048-.007.178.178,0,0,1-.123-.219,88.586,88.586,0,0,1,5.488-14.544.178.178,0,0,1,.32.154,88.22,88.22,0,0,0-5.466,14.486.178.178,0,0,1-.171.13" transform="translate(-1703.095 -482.575)"/>
                <path id="Caminho_18890" data-name="Caminho 18890" d="M2504.911,772.979a.178.178,0,0,1-.165-.245l3.847-9.474a.177.177,0,1,1,.329.134l-3.847,9.475a.177.177,0,0,1-.165.111" transform="translate(-1701.248 -513.565)"/>
                <path id="Caminho_18891" data-name="Caminho 18891" d="M2520.667,775.193a.175.175,0,0,1-.065-.013.178.178,0,0,1-.1-.23l2.146-5.438a.178.178,0,0,1,.331.13l-2.146,5.438a.178.178,0,0,1-.166.112" transform="translate(-1711.956 -517.813)"/>
                <path id="Caminho_18892" data-name="Caminho 18892" d="M2533.195,723.653a.19.19,0,0,1-.052-.008.178.178,0,0,1-.118-.222l1.024-3.341a.177.177,0,0,1,.221-.118.179.179,0,0,1,.118.222l-1.024,3.341a.179.179,0,0,1-.17.126" transform="translate(-1720.469 -484.211)"/>
                <path id="Caminho_18893" data-name="Caminho 18893" d="M2545.823,715.608a.175.175,0,0,1-.061-.011.177.177,0,0,1-.106-.228c1.048-2.864,2.253-5.7,3.579-8.439a.178.178,0,0,1,.32.155c-1.321,2.726-2.521,5.554-3.565,8.406a.178.178,0,0,1-.167.117" transform="translate(-1729.052 -475.29)"/>
                <path id="Caminho_18894" data-name="Caminho 18894" d="M2533.178,742.036a.176.176,0,0,1-.074-.016.178.178,0,0,1-.087-.236l9.763-21.147a.178.178,0,0,1,.323.149l-9.763,21.147a.178.178,0,0,1-.161.1" transform="translate(-1720.458 -484.603)"/>
                <path id="Caminho_18895" data-name="Caminho 18895" d="M2545.368,759.035a.175.175,0,0,1-.073-.016.177.177,0,0,1-.088-.235l6.553-14.387a.178.178,0,0,1,.324.147l-6.554,14.387a.177.177,0,0,1-.162.1" transform="translate(-1728.743 -500.751)"/>
                <path id="Caminho_18896" data-name="Caminho 18896" d="M2567.179,755.746a.178.178,0,0,1-.156-.262l2.885-5.344a.178.178,0,0,1,.313.168l-2.885,5.345a.178.178,0,0,1-.157.093" transform="translate(-1743.565 -504.661)"/>
                <path id="Caminho_18897" data-name="Caminho 18897" d="M2552.075,792.992a.174.174,0,0,1-.077-.018.177.177,0,0,1-.082-.237l1.3-2.672a.177.177,0,1,1,.319.155l-1.3,2.673a.177.177,0,0,1-.16.1" transform="translate(-1733.301 -531.79)"/>
                <path id="Caminho_18898" data-name="Caminho 18898" d="M2483.237,748.761a.177.177,0,0,1-.16-.254l1.768-3.722a.177.177,0,0,1,.321.152l-1.767,3.722a.179.179,0,0,1-.161.1" transform="translate(-1686.518 -501.016)"/>
                <path id="Caminho_18899" data-name="Caminho 18899" d="M2506.473,707.8a.178.178,0,0,1-.156-.263l1.3-2.386a.178.178,0,0,1,.312.17l-1.3,2.386a.177.177,0,0,1-.156.093" transform="translate(-1702.309 -474.089)"/>
                <g id="Grupo_18412" data-name="Grupo 18412" transform="translate(807.813 245.89)" opacity="0.129">
                  <g id="Grupo_18411" data-name="Grupo 18411">
                    <g id="Grupo_18410" data-name="Grupo 18410" clip-path="url(#clip-path-3)">
                      <path id="Caminho_18900" data-name="Caminho 18900" d="M2528.34,752.293a.769.769,0,0,0-1.505-.105c-.25.785-.15.649-.98,1.46-.8.653-.508.458-1.751.922a2.96,2.96,0,0,1-1.671.279,3,3,0,0,1-.4-.1,5.341,5.341,0,0,1-1.24-.6c-.377-.195-.712-.545-1.148-.573a1.288,1.288,0,0,0-.8,2.376c2.074,1.45,4.158,2.1,6.527.907a5.617,5.617,0,0,0,2.557-3.176,3.019,3.019,0,0,0,.412-1.383" transform="translate(-2518.238 -751.621)"/>
                    </g>
                  </g>
                </g>
                <g id="Grupo_18415" data-name="Grupo 18415" transform="translate(816.285 259.818)" opacity="0.129">
                  <g id="Grupo_18414" data-name="Grupo 18414">
                    <g id="Grupo_18413" data-name="Grupo 18413" clip-path="url(#clip-path-4)">
                      <path id="Caminho_18901" data-name="Caminho 18901" d="M2549.889,795.269a10.294,10.294,0,0,1-2.519.746c-.693.222-1.538.109-2.131.568a1.449,1.449,0,0,0,1.235,2.541c1.737-.368,3.733-.443,5.086-1.752a1.356,1.356,0,0,0-1.671-2.1" transform="translate(-2544.683 -795.094)"/>
                    </g>
                  </g>
                </g>
                <g id="Grupo_18418" data-name="Grupo 18418" transform="translate(827.508 246.868)" opacity="0.129">
                  <g id="Grupo_18417" data-name="Grupo 18417">
                    <g id="Grupo_18416" data-name="Grupo 18416" clip-path="url(#clip-path-5)">
                      <path id="Caminho_18902" data-name="Caminho 18902" d="M2583.552,756.289c0-.015,0-.03.006-.045,0,.014,0,.028-.006.042a1.632,1.632,0,0,0-.206-.845,1.548,1.548,0,0,0-2.78.224l-.093.2a7.638,7.638,0,0,0-.284.719c-.079.183-.188.435-.253.577a1.722,1.722,0,0,0-.226.855,1.651,1.651,0,0,0,3.246.451,7.036,7.036,0,0,0,.559-1.885,1.579,1.579,0,0,0,.035-.289" transform="translate(-2579.711 -754.674)"/>
                    </g>
                  </g>
                </g>
                <path id="Caminho_18903" data-name="Caminho 18903" d="M2496.18,730.977a.532.532,0,0,1-.495-.337,27.184,27.184,0,0,0-2.048-4.376,22.728,22.728,0,0,1-4.987-.054c-.475.857-.932,1.731-1.415,2.652-.273.523-.553,1.059-.849,1.614a.532.532,0,0,1-.666.245,15.393,15.393,0,0,1-6.439-4.745.533.533,0,0,1-.016-.639c.875-1.233,1.779-2.5,2.747-4.055a22.845,22.845,0,0,1-2.777-4.93c-.389.08-.779.162-1.17.246-1.243.265-2.528.539-3.915.734a.534.534,0,0,1-.589-.389,16.793,16.793,0,0,1,.651-9.8.533.533,0,0,1,.636-.346l.1.025c1.722.437,3.5.887,5.347,1.341a44.4,44.4,0,0,1,2.7-4.753,34.047,34.047,0,0,1-2.693-4.1.533.533,0,0,1,.109-.648,26.2,26.2,0,0,1,7.128-4.5.531.531,0,0,1,.68.227,45.814,45.814,0,0,1,2.35,4.847,22.5,22.5,0,0,1,5.458-.2c.816-1.574,1.666-3.192,2.73-4.884a.534.534,0,0,1,.7-.189,31.83,31.83,0,0,1,5.819,3.913c.484.41.962.839,1.423,1.254a1.741,1.741,0,0,1,.606.833.533.533,0,0,1-.074.427c-.408.612-.827,1.216-1.257,1.837-.587.847-1.193,1.721-1.821,2.685.539,1.349,1.09,2.736,1.589,4.12a18.958,18.958,0,0,1,5.54,1.3.533.533,0,0,1,.328.461,17.976,17.976,0,0,1-1.081,7.534.512.512,0,0,1-.519.345l-.593-.023a34.9,34.9,0,0,0-4.249.007,17.546,17.546,0,0,1-2.683,4.336,40.675,40.675,0,0,1,2.323,4.612.533.533,0,0,1-.237.671,22.343,22.343,0,0,1-8.322,2.7.564.564,0,0,1-.057,0m-2.275-5.819a.532.532,0,0,1,.448.244,24.883,24.883,0,0,1,2.172,4.465,21.266,21.266,0,0,0,7.1-2.3,45.338,45.338,0,0,0-2.256-4.367.532.532,0,0,1,.052-.6,16.518,16.518,0,0,0,2.864-4.633.534.534,0,0,1,.448-.342,33.915,33.915,0,0,1,4.717-.039l.2.008a16.908,16.908,0,0,0,.9-6.4,18.638,18.638,0,0,0-5.254-1.13.533.533,0,0,1-.457-.352c-.553-1.559-1.183-3.135-1.792-4.66a.534.534,0,0,1,.047-.487c.692-1.07,1.352-2.023,1.99-2.944.361-.52.713-1.029,1.058-1.54-.055-.055-.12-.113-.168-.157-.457-.411-.928-.834-1.4-1.234a30.766,30.766,0,0,0-5.187-3.549c-.99,1.618-1.8,3.18-2.585,4.7a.554.554,0,0,1-.532.294,21.417,21.417,0,0,0-5.95.223.535.535,0,0,1-.589-.326,44.738,44.738,0,0,0-2.217-4.7,25.139,25.139,0,0,0-6.082,3.834,36.15,36.15,0,0,0,2.624,3.895.533.533,0,0,1,.025.6,42.934,42.934,0,0,0-3,5.336.532.532,0,0,1-.614.3c-1.87-.456-3.662-.91-5.4-1.35a15.772,15.772,0,0,0-.592,8.253c1.174-.183,2.286-.42,3.366-.651.54-.115,1.075-.229,1.611-.335a.531.531,0,0,1,.6.32,21.85,21.85,0,0,0,3.027,5.375.532.532,0,0,1,.038.612c-.973,1.582-1.875,2.869-2.746,4.1a14.33,14.33,0,0,0,5.3,3.924c.212-.4.418-.795.619-1.18.543-1.037,1.055-2.017,1.6-2.985a.539.539,0,0,1,.521-.269,21.834,21.834,0,0,0,5.417.049.491.491,0,0,1,.078-.006" transform="translate(-1679.75 -466.507)"/>
                <path id="Caminho_18904" data-name="Caminho 18904" d="M2522.236,743.017a5.147,5.147,0,0,1-2.091-.442,2.884,2.884,0,0,1-1.25-.957,3.316,3.316,0,0,1-.5-1.661,6.466,6.466,0,0,1,1.177-4.489,4.051,4.051,0,0,1,4.38-1.494.537.537,0,0,1,.237.163l.047.016a4.377,4.377,0,0,1,2.846,3.863,4.8,4.8,0,0,1-2.223,4.261,4.936,4.936,0,0,1-2.625.74m.633-8.153a3.216,3.216,0,0,0-2.455,1.26,5.413,5.413,0,0,0-.954,3.753,2.359,2.359,0,0,0,.309,1.132,1.878,1.878,0,0,0,.808.592,4,4,0,0,0,3.716-.226,3.771,3.771,0,0,0,1.726-3.3,3.334,3.334,0,0,0-2.123-2.913l-.134-.042a1.1,1.1,0,0,1-.429-.212,2.392,2.392,0,0,0-.465-.045m.912-.385.116.52h0Z" transform="translate(-1710.518 -493.616)"/>
              </g>
              <g id="Grupo_18532" data-name="Grupo 18532" transform="translate(-20.979 25.83)">
                <path id="Caminho_19113" data-name="Caminho 19113" d="M2096.191,697.347c-.727-33.282-.229-69.841,1.492-103.084-53.57,0-104.547-.411-151.008-.411.4,33.893.808,68.08.808,103.5,44.328,0,98.188-1.876,148.707,0" transform="translate(-1325.907 -386.093)" fill="#fff"/>
                <path id="Caminho_19114" data-name="Caminho 19114" d="M1946.4,696.841a.578.578,0,0,1-.578-.578c0-35.091-.406-69.393-.8-102.565l-.011-.924a.579.579,0,0,1,.579-.585c22.405,0,45.6.095,70.149.195,26.116.106,53.122.216,80.859.216a.578.578,0,0,1,.578.608c-1.7,32.781-2.226,69.375-1.491,103.042a.58.58,0,0,1-.172.425.592.592,0,0,1-.428.166c-34.281-1.274-69.444-.826-103.449-.394-15.941.2-31,.394-45.236.394m-.223-103.5,0,.338c.39,32.993.793,67.1.8,102,14.06-.005,28.922-.194,44.643-.394,33.816-.43,68.779-.875,102.894.372-.711-33.318-.188-69.451,1.475-101.905-27.525,0-54.328-.111-80.254-.216-24.338-.1-47.338-.193-69.559-.194" transform="translate(-1324.822 -385.009)"/>
                <path id="Caminho_19115" data-name="Caminho 19115" d="M2069.968,578q-32.692-.117-65.382-.446c-18.442-.157-39.81.214-58.251-.009a92.4,92.4,0,0,0,0,11.639c47.407,0,103.149-.648,150.865,0,.269-3.021.075-7.3.075-11.045-8.021,0-19.291-.109-27.307-.138" transform="translate(-1325.566 -375.442)" fill="#fff"/>
                <path id="Caminho_19116" data-name="Caminho 19116" d="M1945.25,588.682a.579.579,0,0,1-.577-.532,92.418,92.418,0,0,1,0-11.714.568.568,0,0,1,.585-.551c9.77.118,20.516.068,30.907.021,9.179-.042,18.67-.086,27.342-.012,20.143.172,42.973.365,65.379.446,3.272.012,7.084.036,11,.062,5.684.037,11.562.074,16.309.077a.579.579,0,0,1,.578.579c0,1.1.017,2.248.034,3.4.039,2.724.081,5.541-.112,7.7a.579.579,0,0,1-.576.528h-.008c-32.115-.437-67.78-.285-102.271-.14-17.016.072-33.09.14-48.585.14m.552-11.632a92.859,92.859,0,0,0-.015,10.475c15.328,0,31.225-.069,48.045-.14,34.3-.145,69.765-.295,101.749.133.139-2.026.1-4.575.065-7.047-.014-.954-.028-1.907-.032-2.834-4.645-.006-10.281-.042-15.739-.077-3.912-.025-7.723-.05-10.994-.062-22.409-.081-45.241-.275-65.385-.446-8.664-.074-18.151-.03-27.326.012-10.2.047-20.739.1-30.368-.015" transform="translate(-1324.482 -374.357)"/>
                <path id="Caminho_19117" data-name="Caminho 19117" d="M1964.113,594.23a.579.579,0,0,1-.019-1.157l6.047-.2a.569.569,0,0,1,.6.559.579.579,0,0,1-.559.6l-6.047.2h-.02" transform="translate(-1336.902 -385.453)"/>
                <path id="Caminho_19118" data-name="Caminho 19118" d="M2001.985,593.333a.579.579,0,0,1,0-1.157l6.052-.025h0a.579.579,0,0,1,0,1.158l-6.052.024Z" transform="translate(-1361.6 -384.985)"/>
                <path id="Caminho_19119" data-name="Caminho 19119" d="M2038.005,592.964a.579.579,0,0,1-.019-1.157l6.047-.2a.573.573,0,0,1,.6.559.579.579,0,0,1-.559.6l-6.047.2h-.02" transform="translate(-1385.092 -384.627)"/>
                <path id="Caminho_19120" data-name="Caminho 19120" d="M1982.461,935.807l-.222,56.4h39.03l.47-56.4Z" transform="translate(-1349.101 -609.105)" fill="#fff"/>
                <path id="Caminho_19121" data-name="Caminho 19121" d="M2020.185,991.7h-39.03a.578.578,0,0,1-.578-.581l.221-56.4a.578.578,0,0,1,.578-.576h39.279a.578.578,0,0,1,.579.583l-.47,56.4a.579.579,0,0,1-.579.574m-38.449-1.157h37.875l.46-55.244h-38.119Z" transform="translate(-1348.016 -608.021)"/>
                <path id="Caminho_19122" data-name="Caminho 19122" d="M2029,975.988h-20.427a.579.579,0,1,1,0-1.157H2029a.579.579,0,1,1,0,1.157" transform="translate(-1365.895 -634.555)"/>
                <path id="Caminho_19123" data-name="Caminho 19123" d="M2029,1011.849h-20.427a.579.579,0,1,1,0-1.157H2029a.579.579,0,1,1,0,1.157" transform="translate(-1365.895 -657.943)"/>
                <path id="Caminho_19124" data-name="Caminho 19124" d="M2029,1047.71h-20.427a.579.579,0,1,1,0-1.157H2029a.579.579,0,1,1,0,1.157" transform="translate(-1365.895 -681.33)"/>
                <path id="Caminho_19125" data-name="Caminho 19125" d="M2022.435,1079.387h0c-12.7-.284-25.589-.441-38.3-.467a.193.193,0,1,1,0-.386h0c12.709.026,25.6.183,38.3.467a.193.193,0,0,1,0,.386" transform="translate(-1350.212 -702.187)"/>
                <g id="Grupo_18522" data-name="Grupo 18522" transform="translate(633.156 380.875)" opacity="0.129">
                  <g id="Grupo_18521" data-name="Grupo 18521">
                    <g id="Grupo_18520" data-name="Grupo 18520" clip-path="url(#clip-path-6)">
                      <path id="Caminho_19126" data-name="Caminho 19126" d="M2021.083,1092.09c-.41-.414-1.008-.252-1.53-.27-8.817.078-17.632-.189-26.448-.269a97.991,97.991,0,0,0-10.211.3,1.01,1.01,0,0,0,.389,1.935c7.59-.154,15.18.076,22.77-.047,4.781-.019,9.565.177,14.346,0a.975.975,0,0,0,.684-1.651" transform="translate(-1982.288 -1091.552)"/>
                    </g>
                  </g>
                </g>
                <path id="Caminho_19127" data-name="Caminho 19127" d="M2146.129,991.088h-.009a.579.579,0,0,1-.571-.587l.751-54.266a.594.594,0,0,1,.587-.571.579.579,0,0,1,.57.587l-.752,54.266a.578.578,0,0,1-.578.571" transform="translate(-1455.606 -609.013)"/>
                <path id="Caminho_19128" data-name="Caminho 19128" d="M2143.391,943.463a.578.578,0,0,1-.5-.286l-3.465-5.9-4.306,5.6a.578.578,0,1,1-.917-.705l4.828-6.279a.579.579,0,0,1,.958.06l3.9,6.64a.579.579,0,0,1-.5.872" transform="translate(-1448.128 -609.013)"/>
                <path id="Caminho_19129" data-name="Caminho 19129" d="M2137.289,1083.477a.578.578,0,0,1-.458-.226l-4.828-6.279a.579.579,0,1,1,.917-.7l4.3,5.6,3.466-5.9a.578.578,0,0,1,1,.586l-3.9,6.64a.581.581,0,0,1-.464.284h-.036" transform="translate(-1446.692 -700.325)"/>
                <path id="Caminho_19130" data-name="Caminho 19130" d="M1837.672,778.209l-1.451,111.224h60.224l.726-111.224Z" transform="translate(-1253.872 -506.325)" fill="#fff"/>
                <path id="Caminho_19131" data-name="Caminho 19131" d="M1895.36,888.926h-60.224a.579.579,0,0,1-.579-.586l1.451-111.224a.579.579,0,0,1,.579-.571h59.5a.577.577,0,0,1,.578.582l-.726,111.223a.578.578,0,0,1-.578.575m-59.637-1.157h59.062L1895.5,777.7h-58.344Z" transform="translate(-1252.787 -505.24)"/>
                <rect id="Retângulo_5378" data-name="Retângulo 5378" width="8.506" height="13.513" transform="translate(591.35 290.352)" fill="#b8b8f1"/>
                <path id="Caminho_19132" data-name="Caminho 19132" d="M1869.52,844.309h-8.506a.579.579,0,0,1-.579-.578V830.218a.579.579,0,0,1,.579-.579h8.506a.579.579,0,0,1,.579.579v13.513a.579.579,0,0,1-.579.578m-7.928-1.157h7.349V830.8h-7.349Z" transform="translate(-1269.664 -539.866)"/>
                <rect id="Retângulo_5379" data-name="Retângulo 5379" width="8.506" height="13.513" transform="translate(609.401 290.352)" fill="#b8b8f1"/>
                <path id="Caminho_19133" data-name="Caminho 19133" d="M1921.417,844.309h-8.506a.579.579,0,0,1-.579-.578V830.218a.579.579,0,0,1,.579-.579h8.506a.579.579,0,0,1,.579.579v13.513a.579.579,0,0,1-.579.578m-7.927-1.157h7.349V830.8h-7.349Z" transform="translate(-1303.509 -539.866)"/>
                <rect id="Retângulo_5380" data-name="Retângulo 5380" width="8.506" height="13.513" transform="translate(590.766 320.16)" fill="#b8b8f1"/>
                <path id="Caminho_19134" data-name="Caminho 19134" d="M1867.841,930.007h-8.507a.578.578,0,0,1-.578-.578V915.915a.578.578,0,0,1,.578-.578h8.507a.579.579,0,0,1,.578.578v13.513a.579.579,0,0,1-.578.578m-7.928-1.157h7.349V916.494h-7.349Z" transform="translate(-1268.569 -595.755)"/>
                <rect id="Retângulo_5381" data-name="Retângulo 5381" width="8.506" height="13.513" transform="translate(608.817 320.16)" fill="#b8b8f1"/>
                <path id="Caminho_19135" data-name="Caminho 19135" d="M1919.737,930.007h-8.506a.579.579,0,0,1-.579-.578V915.915a.579.579,0,0,1,.579-.578h8.506a.579.579,0,0,1,.579.578v13.513a.579.579,0,0,1-.579.578m-7.927-1.157h7.349V916.494h-7.349Z" transform="translate(-1302.414 -595.755)"/>
                <rect id="Retângulo_5382" data-name="Retângulo 5382" width="8.506" height="13.513" transform="translate(590.766 349.969)" fill="#b8b8f1"/>
                <path id="Caminho_19136" data-name="Caminho 19136" d="M1867.841,1015.7h-8.507a.578.578,0,0,1-.578-.579v-13.513a.578.578,0,0,1,.578-.578h8.507a.579.579,0,0,1,.578.578v13.513a.579.579,0,0,1-.578.579m-7.928-1.157h7.349v-12.356h-7.349Z" transform="translate(-1268.569 -651.644)"/>
                <rect id="Retângulo_5383" data-name="Retângulo 5383" width="8.506" height="13.513" transform="translate(608.817 349.969)" fill="#b8b8f1"/>
                <path id="Caminho_19137" data-name="Caminho 19137" d="M1919.737,1015.7h-8.506a.579.579,0,0,1-.579-.579v-13.513a.579.579,0,0,1,.579-.578h8.506a.579.579,0,0,1,.579.578v13.513a.579.579,0,0,1-.579.579m-7.927-1.157h7.349v-12.356h-7.349Z" transform="translate(-1302.414 -651.644)"/>
                <rect id="Retângulo_5384" data-name="Retângulo 5384" width="8.506" height="13.513" transform="translate(626.374 290.352)" fill="#b8b8f1"/>
                <path id="Caminho_19138" data-name="Caminho 19138" d="M1970.214,844.309h-8.506a.579.579,0,0,1-.579-.578V830.218a.579.579,0,0,1,.579-.579h8.506a.579.579,0,0,1,.579.579v13.513a.579.579,0,0,1-.579.578m-7.927-1.157h7.349V830.8h-7.349Z" transform="translate(-1335.333 -539.866)"/>
                <rect id="Retângulo_5385" data-name="Retângulo 5385" width="8.506" height="13.513" transform="translate(625.791 320.16)" fill="#b8b8f1"/>
                <path id="Caminho_19139" data-name="Caminho 19139" d="M1968.534,930.007h-8.506a.579.579,0,0,1-.579-.578V915.915a.579.579,0,0,1,.579-.578h8.506a.578.578,0,0,1,.578.578v13.513a.578.578,0,0,1-.578.578m-7.927-1.157h7.349V916.494h-7.349Z" transform="translate(-1334.238 -595.755)"/>
                <rect id="Retângulo_5386" data-name="Retângulo 5386" width="8.506" height="13.513" transform="translate(625.791 349.969)" fill="#b8b8f1"/>
                <path id="Caminho_19140" data-name="Caminho 19140" d="M1968.534,1015.7h-8.506a.579.579,0,0,1-.579-.579v-13.513a.579.579,0,0,1,.579-.578h8.506a.578.578,0,0,1,.578.578v13.513a.578.578,0,0,1-.578.579m-7.927-1.157h7.349v-12.356h-7.349Z" transform="translate(-1334.238 -651.644)"/>
                <path id="Caminho_19141" data-name="Caminho 19141" d="M1897.032,1078.552h0c-19.716-.285-39.693-.442-59.376-.467a.193.193,0,1,1,0-.386c19.685.026,39.663.183,59.381.467a.193.193,0,0,1,0,.386" transform="translate(-1254.681 -701.642)"/>
                <g id="Grupo_18525" data-name="Grupo 18525" transform="translate(582.821 380.421)" opacity="0.129">
                  <g id="Grupo_18524" data-name="Grupo 18524">
                    <g id="Grupo_18523" data-name="Grupo 18523" clip-path="url(#clip-path-7)">
                      <path id="Caminho_19142" data-name="Caminho 19142" d="M1895.765,1090.256l-.328.009c-1.4.04-5.516,0-8.107.093-3.409.091-6.805.373-10.215.442-7.089.083-14.172-.208-21.257-.326-5.721-.079-11.437.061-17.152.237-1.379-.107-1.571,1.547-.132,1.586,5.024.017,10.047-.164,15.072-.1,4.637.094,9.267.339,13.907.334,6,.017,12-.167,18-.164,2.937-.026,7.6-.263,9.355-.1.172.027.584.064.786.08a1.563,1.563,0,0,0,.808-.069c1.5-.5.764-2.187-.736-2.023" transform="translate(-1837.58 -1090.245)"/>
                    </g>
                  </g>
                </g>
                <path id="Caminho_19143" data-name="Caminho 19143" d="M2048.306,674.129H2030.14a.193.193,0,1,1,0-.386h18.166a.193.193,0,0,1,0,.386" transform="translate(-1380.214 -438.196)"/>
                <path id="Caminho_19144" data-name="Caminho 19144" d="M2055.783,647.555H2030.14a.193.193,0,1,1,0-.386h25.642a.193.193,0,0,1,0,.386" transform="translate(-1380.214 -420.866)"/>
                <path id="Caminho_19145" data-name="Caminho 19145" d="M2148.733,717.78h-30.619a.578.578,0,0,1-.578-.593l.684-27.674h-10.16a.579.579,0,0,1-.392-1l25.5-23.579a.579.579,0,0,1,.8.017l23.488,23.579a.579.579,0,0,1-.41.987h-8.54l.8,27.672a.579.579,0,0,1-.578.6m-30.026-1.157h29.43l-.8-27.672a.579.579,0,0,1,.579-.6h7.742l-22.112-22.2-24.01,22.2h9.274a.577.577,0,0,1,.578.593Z" transform="translate(-1430.779 -432.349)"/>
                <rect id="Retângulo_5388" data-name="Retângulo 5388" width="9.798" height="10.934" transform="translate(698.055 261.29)" fill="#b8b8f1"/>
                <path id="Caminho_19146" data-name="Caminho 19146" d="M2177.584,758.182h-9.8a.579.579,0,0,1-.579-.579V746.669a.579.579,0,0,1,.579-.579h9.8a.579.579,0,0,1,.578.579V757.6a.579.579,0,0,1-.578.579m-9.22-1.157H2177v-9.777h-8.641Z" transform="translate(-1469.73 -485.379)"/>
                <path id="Caminho_19147" data-name="Caminho 19147" d="M2309.4,709.8a.578.578,0,0,1-.578-.575L2308.5,651.7a.579.579,0,0,1,.576-.582h0a.578.578,0,0,1,.578.575l.321,57.524a.579.579,0,0,1-.576.582Z" transform="translate(-1561.874 -423.439)"/>
                <path id="Caminho_19148" data-name="Caminho 19148" d="M2296.856,652.272h-6.518a.579.579,0,0,1,0-1.157h6.518a.579.579,0,1,1,0,1.157" transform="translate(-1549.655 -423.439)"/>
                <path id="Caminho_19149" data-name="Caminho 19149" d="M2296.856,817.649h-6.518a.579.579,0,1,1,0-1.157h6.518a.579.579,0,1,1,0,1.157" transform="translate(-1549.655 -531.292)"/>
                <path id="Caminho_19150" data-name="Caminho 19150" d="M2296.856,705.846h-6.518a.579.579,0,0,1,0-1.158h6.518a.579.579,0,1,1,0,1.158" transform="translate(-1549.655 -458.377)"/>
                <path id="Caminho_19151" data-name="Caminho 19151" d="M2296.856,761.748h-6.518a.579.579,0,0,1,0-1.157h6.518a.579.579,0,1,1,0,1.157" transform="translate(-1549.655 -494.836)"/>
                <g id="Grupo_18528" data-name="Grupo 18528" transform="translate(686.629 285.433)" opacity="0.129">
                  <g id="Grupo_18527" data-name="Grupo 18527">
                    <g id="Grupo_18526" data-name="Grupo 18526" clip-path="url(#clip-path-8)">
                      <path id="Caminho_19152" data-name="Caminho 19152" d="M2166.354,817.433q-10.636.122-21.27-.185c-1.934-.039-3.867.015-5.8-.026a10.657,10.657,0,0,0-2.537.055,1.309,1.309,0,0,0,.465,2.475c9.828.049,19.668.532,29.493.154a1.25,1.25,0,1,0-.35-2.473" transform="translate(-2136.019 -817.161)"/>
                    </g>
                  </g>
                </g>
                <g id="Grupo_18531" data-name="Grupo 18531" transform="translate(621.215 213.686)" opacity="0.129">
                  <g id="Grupo_18530" data-name="Grupo 18530">
                    <g id="Grupo_18529" data-name="Grupo 18529" clip-path="url(#clip-path-9)">
                      <path id="Caminho_19153" data-name="Caminho 19153" d="M2098.447,611.928c-.275-1.048-1.44-.981-2.31-.989-1.162-.061-2.326-.041-3.49-.039-2.115.028-4.225.219-6.341.239-1.515.015-3.031-.021-4.545.055-3.431.1-6.859.359-10.293.32-2.12.021-4.236-.185-6.356-.119-.929.044-2.238.128-3.653.2a1.269,1.269,0,0,0-.2-.147c-.612-.336-1.354-.117-2.02-.168q-2.493-.006-4.985.023c-8.427.07-16.849.435-25.276.4-5.726-.081-11.45-.314-17.176-.364-7.531.043-15.062-.085-22.593-.027-6.448-.081-12.892.024-19.338.2-4.63.087-9.258-.149-13.888-.189-1.757-.03-3.513-.024-5.271-.016-.8.065-1.741-.227-2.37.394a1.35,1.35,0,0,0,.946,2.284c6.459-.095,12.913.218,19.37.218,4.134-.027,8.264-.229,12.4-.256,6.494.084,12.989-.033,19.483.065,4.688.023,9.378-.027,14.066.025,4.3.109,8.6.287,12.907.253,7.974.133,15.944-.135,23.917-.266,2.282-.047,4.563-.054,6.844-.076.661-.008,1.323-.016,1.984-.014a1.766,1.766,0,0,0,1.143-.279c1.725,0,3.449.007,5.174-.036,4.838-.021,9.678-.072,14.515.031,1.1.1,3.914.209,6.037.141,2.66-.088,5.315-.275,7.978-.218.813-.077,1.635.036,2.443-.056a1.313,1.313,0,0,0,.9-1.591" transform="translate(-1947.96 -610.895)"/>
                    </g>
                  </g>
                </g>
              </g>
              <g id="Grupo_18536" data-name="Grupo 18536" transform="translate(-8.556 90.132)">
                <path id="Caminho_19155" data-name="Caminho 19155" d="M2672,306.376a.533.533,0,0,1-.484-.309l-5.986-12.913a.533.533,0,0,1,.484-.757h11.726a.533.533,0,0,1,.487.749l-5.74,12.913a.533.533,0,0,1-.483.317Zm-5.151-12.913,5.141,11.09,4.929-11.09Z" transform="translate(-1818.704 -169.716)"/>
                <path id="Caminho_19156" data-name="Caminho 19156" d="M2669.05,74.559a26.8,26.8,0,0,1,.581-6.966,4.331,4.331,0,0,1,1.485-2.8,4.275,4.275,0,0,1,2.264-.554,24.929,24.929,0,0,1,3.155.077,2.914,2.914,0,0,1,1.3.337,2.967,2.967,0,0,1,1.072,2.016,29.331,29.331,0,0,1,.578,7.917.389.389,0,0,1-.4.438,26.936,26.936,0,0,1-5.544.593,8.318,8.318,0,0,1-4.5-1.057" transform="translate(-1821.106 -14.643)" fill="#fff"/>
                <path id="Caminho_19157" data-name="Caminho 19157" d="M2672.356,75.018a8.745,8.745,0,0,1-4.707-1.13.531.531,0,0,1-.262-.434,27.294,27.294,0,0,1,.593-7.1,3.875,3.875,0,0,1,4.248-3.775,25.527,25.527,0,0,1,3.224.079,3.371,3.371,0,0,1,1.539.416,3.438,3.438,0,0,1,1.312,2.358,29.838,29.838,0,0,1,.588,8.061,1.01,1.01,0,0,1-.176.564,1.021,1.021,0,0,1-.641.362,27.48,27.48,0,0,1-5.655.6Zm-3.917-1.909a8.076,8.076,0,0,0,3.975.843,26.438,26.438,0,0,0,5.415-.577,28.771,28.771,0,0,0-.57-7.728,2.525,2.525,0,0,0-.833-1.674,2.462,2.462,0,0,0-1.068-.259,24.583,24.583,0,0,0-3.088-.075,3.841,3.841,0,0,0-1.986.462,3.906,3.906,0,0,0-1.263,2.475,26.273,26.273,0,0,0-.582,6.533" transform="translate(-1819.975 -13.512)"/>
                <rect id="Retângulo_5391" data-name="Retângulo 5391" width="11.726" height="58.543" transform="translate(847.314 64.672)" fill="#b8b8f1"/>
                <path id="Caminho_19158" data-name="Caminho 19158" d="M2677.745,169.281H2666.02a.533.533,0,0,1-.533-.533V110.206a.533.533,0,0,1,.533-.533h11.726a.533.533,0,0,1,.533.533v58.543a.533.533,0,0,1-.533.533m-11.193-1.066h10.659V110.739h-10.659Z" transform="translate(-1818.705 -45.534)"/>
                <path id="Caminho_19159" data-name="Caminho 19159" d="M2665.659,98.549c-.9-1.724-.232-5.157-.106-5.36.178-.288,2.732-.7,4.369-.645,2.821.1,5.986.188,8.015.48a9.334,9.334,0,0,1,.125,5.144.579.579,0,0,1-.143.322.553.553,0,0,1-.344.1,69.607,69.607,0,0,1-11.917-.045" transform="translate(-1818.506 -33.889)" fill="#fff"/>
                <path id="Caminho_19160" data-name="Caminho 19160" d="M2670.261,98.236a55.91,55.91,0,0,1-5.8-.282.533.533,0,0,1-.417-.283c-1.018-1.945-.289-5.562-.087-5.889.448-.722,3.981-.93,4.841-.9l.826.029c2.647.092,5.384.188,7.247.456a.534.534,0,0,1,.423.341,9.743,9.743,0,0,1,.147,5.439,1.076,1.076,0,0,1-.305.607,1.042,1.042,0,0,1-.667.242c-2.258.157-4.308.235-6.211.235m-5.384-1.311a69.023,69.023,0,0,0,11.522.013h0v0a9.121,9.121,0,0,0,0-4.551c-1.8-.227-4.343-.316-6.81-.4l-.827-.029a14.305,14.305,0,0,0-3.9.461,9.576,9.576,0,0,0,.017,4.512" transform="translate(-1817.367 -32.764)"/>
                <path id="Caminho_19161" data-name="Caminho 19161" d="M2677.344,314.786l5.152.117L2680,321Z" transform="translate(-1826.763 -184.931)" fill="#b8b8f1"/>
                <path id="Caminho_19162" data-name="Caminho 19162" d="M2678.867,320.407a.533.533,0,0,1-.49-.324l-2.653-6.218a.533.533,0,0,1,.049-.508.522.522,0,0,1,.453-.234l5.151.117a.534.534,0,0,1,.481.735l-2.5,6.1a.533.533,0,0,1-.489.331Zm-1.838-6.2,1.828,4.285,1.723-4.2Z" transform="translate(-1825.633 -183.801)"/>
                <g id="Grupo_18535" data-name="Grupo 18535" transform="translate(846.856 64.401)" opacity="0.129">
                  <g id="Grupo_18534" data-name="Grupo 18534">
                    <g id="Grupo_18533" data-name="Grupo 18533" clip-path="url(#clip-path-10)">
                      <path id="Caminho_19163" data-name="Caminho 19163" d="M2676.608,111.077c-.081,0-.162.013-.242.025l-.117.013c-.076.009-.152.015-.228.021l.138.02c-1.57-.037-3.149.15-4.724.046a17.054,17.054,0,0,1-3.63-.474c-.454-.092-.21-.312-1.185-.207a1.246,1.246,0,0,0,0,2.393,20.581,20.581,0,0,0,4.263.668,25.912,25.912,0,0,0,4.729-.016c.11-.011.219-.027.328-.041-.115.017.008.007.172-.021l.038,0-.033,0c.058-.01.12-.023.179-.038l-.113.01.29-.038a1.479,1.479,0,0,0,.839-.293,1.157,1.157,0,0,0-.7-2.066" transform="translate(-2665.721 -110.492)"/>
                    </g>
                  </g>
                </g>
              </g>
              <g id="Grupo_18549" data-name="Grupo 18549" transform="translate(773.887 200.11)">
                <g id="Grupo_18548" data-name="Grupo 18548" clip-path="url(#clip-path-11)">
                  <g id="Grupo_18547" data-name="Grupo 18547">
                    <g id="Grupo_18546" data-name="Grupo 18546" clip-path="url(#clip-path-11)">
                      <path id="Caminho_19165" data-name="Caminho 19165" d="M20.361,46.563c-1.93,1.659-3.134,1.308-5.37-.067a5.422,5.422,0,0,1-2.318-6.48C7.962,41.07,3.2,37.207,1.965,32.886c-.881-3.083.188-7.126,3.56-7.845A7.121,7.121,0,0,1,4.31,15.326c2.261-2.869,7.025-3.773,10.432-1.98A10.858,10.858,0,0,1,19.011,3.3a7.324,7.324,0,0,1,4.072-1.631c3.116-.117,5.73,2.563,6.362,5.362s-.209,5.658-1.044,8.389c2.023-1.617,5.6-.905,7.048,1.212a5.118,5.118,0,0,1-1.235,6.723,9.2,9.2,0,0,1,4.962,8.295,9.031,9.031,0,0,1-5.768,7.674c-.909.362-2.006.711-2.282,1.582-.158.5.727,4.4-4.553,7-1.712.843-4.01.088-6.211-1.348" transform="translate(-1.24 -1.236)" fill="#fff"/>
                      <path id="Caminho_19166" data-name="Caminho 19166" d="M23.722,47.459a9.172,9.172,0,0,1-4.568-1.6c-1.949,1.554-3.342,1.174-5.627-.232a5.962,5.962,0,0,1-2.719-6.3c-4.779.606-9.294-3.348-10.5-7.555a7.883,7.883,0,0,1,.666-6.041A4.93,4.93,0,0,1,3.44,23.61a7.558,7.558,0,0,1-.706-9.786C4.956,11,9.5,9.981,13,11.4a11.411,11.411,0,0,1,4.515-9.68A7.642,7.642,0,0,1,21.827,0c3.413-.136,6.141,2.8,6.8,5.7a15.028,15.028,0,0,1-.736,7.561,5.426,5.426,0,0,1,2.9-.325,5.584,5.584,0,0,1,3.774,2.218,5.463,5.463,0,0,1-.863,6.888,9.584,9.584,0,0,1,4.663,8.393,9.465,9.465,0,0,1-6.038,8.051l-.256.1c-.78.3-1.587.617-1.776,1.212,0,.027,0,.176,0,.3-.006,1.265-.023,4.627-4.767,6.963a4.027,4.027,0,0,1-1.8.4m-4.6-2.562a.425.425,0,0,1,.234.07c2.35,1.533,4.4,2,5.787,1.322,4.268-2.1,4.283-5.077,4.288-6.2a1.934,1.934,0,0,1,.045-.551c.313-.987,1.359-1.394,2.282-1.753l.25-.1a8.6,8.6,0,0,0,5.5-7.3,8.763,8.763,0,0,0-4.736-7.9.429.429,0,0,1-.068-.711,4.709,4.709,0,0,0,1.151-6.148,4.712,4.712,0,0,0-3.192-1.853,4.188,4.188,0,0,0-3.234.734.429.429,0,0,1-.678-.461c.777-2.54,1.657-5.42,1.036-8.17C27.208,3.33,24.829.75,21.859.861a6.814,6.814,0,0,0-3.828,1.544,10.47,10.47,0,0,0-4.1,9.642.429.429,0,0,1-.625.441c-3.227-1.7-7.759-.845-9.9,1.866a6.7,6.7,0,0,0,1.151,9.119.429.429,0,0,1-.184.75,4.046,4.046,0,0,0-2.661,1.945,7,7,0,0,0-.576,5.363c1.157,4.05,5.632,7.851,10.2,6.828a.429.429,0,0,1,.491.581,5,5,0,0,0,2.146,5.952c2.218,1.364,3.179,1.557,4.865.107a.428.428,0,0,1,.28-.1" transform="translate(0 0)"/>
                      <path id="Caminho_19167" data-name="Caminho 19167" d="M72.27,98.137a.429.429,0,0,1-.429-.422c-.241-14.686-.49-29.872,1.322-44.728a.429.429,0,1,1,.852.1c-1.8,14.8-1.556,29.953-1.316,44.61a.429.429,0,0,1-.422.436Z" transform="translate(-53.189 -39.043)"/>
                      <path id="Caminho_19168" data-name="Caminho 19168" d="M75.263,71.993a.429.429,0,0,1-.365-.654,23.3,23.3,0,0,1,3.26-4.153.429.429,0,1,1,.61.6,22.462,22.462,0,0,0-3.14,4,.428.428,0,0,1-.366.2" transform="translate(-55.535 -49.765)"/>
                      <path id="Caminho_19169" data-name="Caminho 19169" d="M50.328,95.65a.429.429,0,0,1-.4-.263c-1.966-4.7-3.823-9.14-7.482-13.031a.429.429,0,1,1,.625-.588c3.766,4,5.652,8.513,7.649,13.287a.429.429,0,0,1-.4.595" transform="translate(-31.416 -60.58)"/>
                      <path id="Caminho_19170" data-name="Caminho 19170" d="M43.81,100.05a.424.424,0,0,1-.216-.059,13.193,13.193,0,0,0-5.1-1.7.429.429,0,1,1,.1-.852,14.051,14.051,0,0,1,5.433,1.81.429.429,0,0,1-.217.8" transform="translate(-28.285 -72.309)"/>
                      <path id="Caminho_19171" data-name="Caminho 19171" d="M72.909,121.132a.429.429,0,0,1-.394-.6,37.747,37.747,0,0,1,9.647-13.344.429.429,0,1,1,.568.643A36.88,36.88,0,0,0,73.3,120.872a.43.43,0,0,1-.395.26" transform="translate(-53.788 -79.467)"/>
                      <path id="Caminho_19172" data-name="Caminho 19172" d="M16.586,65.538a.143.143,0,0,1-.121-.067,4.828,4.828,0,0,1,.012-5.031.143.143,0,0,1,.242.153,4.536,4.536,0,0,0-.012,4.727.143.143,0,0,1-.046.2.145.145,0,0,1-.076.021" transform="translate(-11.698 -44.803)"/>
                      <path id="Caminho_19173" data-name="Caminho 19173" d="M24.209,70.592a.143.143,0,0,1-.135-.1,8.915,8.915,0,0,1-.47-2.5.143.143,0,0,1,.137-.149.149.149,0,0,1,.149.137,8.616,8.616,0,0,0,.455,2.421.143.143,0,0,1-.089.182.152.152,0,0,1-.046.007" transform="translate(-17.516 -50.348)"/>
                      <path id="Caminho_19174" data-name="Caminho 19174" d="M119.61,69.025a.143.143,0,0,1-.06-.273,2.192,2.192,0,0,0,1.082-1.32,6.818,6.818,0,0,0,.268-1.807.141.141,0,0,1,.151-.135.143.143,0,0,1,.135.151,7.021,7.021,0,0,1-.283,1.883,2.474,2.474,0,0,1-1.234,1.488.139.139,0,0,1-.059.013" transform="translate(-88.657 -48.6)"/>
                      <g id="Grupo_18545" data-name="Grupo 18545" transform="translate(1.161 33.018)" opacity="0.129">
                        <g id="Grupo_18544" data-name="Grupo 18544">
                          <g id="Grupo_18543" data-name="Grupo 18543" clip-path="url(#clip-path-13)">
                            <path id="Caminho_19175" data-name="Caminho 19175" d="M33.2,134.191a.79.79,0,0,0-1.431.187,7.271,7.271,0,0,1-.7,2.516,7.957,7.957,0,0,1-2.023,2.474c-.624.331-.238.2-.969.337l-.141.02a10.171,10.171,0,0,1-2.335.123l-.176-.02a6.46,6.46,0,0,1-1.577-.4l-.045-.02a5.127,5.127,0,0,0-1.1-.54c-.619-.116-1.529,0-1.76.644a1.054,1.054,0,0,0-.228-.178c-.736-.311-.347-.032-1.116-.317a7.5,7.5,0,0,1-1.985-1.247A3.556,3.556,0,0,1,16.3,135.2a7.819,7.819,0,0,0-.114-1.821,1.111,1.111,0,0,0-1.592-.55,1.047,1.047,0,0,0-.576-.406l-.067-.025a15.284,15.284,0,0,0-1.883-.055,5.211,5.211,0,0,1-1.9-.457A11.694,11.694,0,0,1,8.107,130.5a9.125,9.125,0,0,1-1.721-1.659c-.3-.33-.6-.808-1.1-.808a.8.8,0,0,0-.561,1.355,13.623,13.623,0,0,1,.97,1.2c.464.52.941,1.03,1.433,1.523a11.546,11.546,0,0,0,2.515,1.721,6.437,6.437,0,0,0,2.076.492c.346.047.7.032,1.042.064a3.217,3.217,0,0,0,1.221.038,6.338,6.338,0,0,0,2.978,5.727c.9.59,3.043,1.908,3.98.978a1.048,1.048,0,0,0,.287-.5.948.948,0,0,0,.935.185l-.017.007a1.622,1.622,0,0,1,.187-.068c.164.089.655.335.787.4a6.974,6.974,0,0,0,4.428.47,5.311,5.311,0,0,0,2.839-1.079,6.973,6.973,0,0,0,1.3-1.526,8.221,8.221,0,0,0,1.258-2.42,10.557,10.557,0,0,0,.274-1.425c.035-.328.167-.68-.026-.983" transform="translate(-4.501 -128.032)"/>
                          </g>
                        </g>
                      </g>
                    </g>
                  </g>
                </g>
              </g>
            </g>
          </g>
          <g id="Grupo_18563" data-name="Grupo 18563" transform="translate(767.276 362.051)">
            <g id="Grupo_18562" data-name="Grupo 18562" clip-path="url(#clip-path-14)">
              <g id="Grupo_18561" data-name="Grupo 18561" transform="translate(0 0)">
                <g id="Grupo_18560" data-name="Grupo 18560" clip-path="url(#clip-path-14)">
                  <path id="Caminho_19178" data-name="Caminho 19178" d="M.566,77.149A.565.565,0,0,1,0,76.574L.076,71.9a.581.581,0,0,1,.575-.556.566.566,0,0,1,.557.575l-.066,4.091,40.41-.4h.006a.566.566,0,0,1,.005,1.131l-40.99.4Z" transform="translate(0 -47.091)"/>
                  <path id="Caminho_19179" data-name="Caminho 19179" d="M105.843,74.165l-8,.158.116,7.062,8.179-.091Z" transform="translate(-64.577 -48.951)" fill="#fff"/>
                  <path id="Caminho_19180" data-name="Caminho 19180" d="M96.856,80.852a.566.566,0,0,1-.565-.556l-.116-7.062a.565.565,0,0,1,.554-.575l8-.158a.559.559,0,0,1,.576.543l.29,7.13a.565.565,0,0,1-.559.588l-8.179.091Zm.459-7.073.1,5.936,7.034-.078-.244-5.995Z" transform="translate(-63.479 -47.853)"/>
                  <path id="Caminho_19181" data-name="Caminho 19181" d="M154.982,33.824l-39-.355c-.632-10.516,2.046-31.807,18.358-31.807,24.574,0,20.641,32.161,20.641,32.161" transform="translate(-76.498 -1.098)" fill="#fff"/>
                  <path id="Caminho_19182" data-name="Caminho 19182" d="M153.876,33.292h-.005l-39-.355a.566.566,0,0,1-.559-.532c-.513-8.529,1.115-20.852,7.391-27.516A15.243,15.243,0,0,1,133.236,0c6.277,0,11.291,2.068,14.9,6.148,8.3,9.38,6.385,25.947,6.3,26.648a.566.566,0,0,1-.561.5m-38.463-1.481,37.951.345c.252-2.853,1.107-17.151-6.076-25.262-3.387-3.824-8.115-5.763-14.053-5.763a14.153,14.153,0,0,0-10.709,4.534c-5.9,6.268-7.518,17.871-7.114,26.147" transform="translate(-75.392 0)"/>
                  <path id="Caminho_19183" data-name="Caminho 19183" d="M155.722,42.758a5.561,5.561,0,1,1,5.561,5.561,5.561,5.561,0,0,1-5.561-5.561" transform="translate(-102.782 -24.551)" fill="#b8b8f1"/>
                  <path id="Caminho_19184" data-name="Caminho 19184" d="M160.186,47.787a6.126,6.126,0,1,1,6.127-6.126,6.133,6.133,0,0,1-6.127,6.126m0-11.122a5,5,0,1,0,5,5,5,5,0,0,0-5-5" transform="translate(-101.684 -23.454)"/>
                  <path id="Caminho_19185" data-name="Caminho 19185" d="M133.708,80.626a.188.188,0,0,1-.189-.188l-.031-7.369a.188.188,0,0,1,.188-.189h0a.189.189,0,0,1,.189.188l.031,7.369a.188.188,0,0,1-.188.189Z" transform="translate(-88.107 -48.103)"/>
                  <path id="Caminho_19186" data-name="Caminho 19186" d="M146.291,86.7a.189.189,0,0,1-.187-.166,19.305,19.305,0,0,1-.045-4.286.188.188,0,0,1,.375.038,18.919,18.919,0,0,0,.044,4.2.188.188,0,0,1-.164.21l-.023,0" transform="translate(-96.34 -54.175)"/>
                  <path id="Caminho_19187" data-name="Caminho 19187" d="M158.691,89.884a.189.189,0,0,1-.187-.161,22.125,22.125,0,0,1-.217-2.639.189.189,0,1,1,.377-.008,21.577,21.577,0,0,0,.213,2.593.189.189,0,0,1-.16.214l-.027,0" transform="translate(-104.476 -57.351)"/>
                  <g id="Grupo_18556" data-name="Grupo 18556" transform="translate(33.576 30.587)" opacity="0.129">
                    <g id="Grupo_18555" data-name="Grupo 18555">
                      <g id="Grupo_18554" data-name="Grupo 18554" clip-path="url(#clip-path-16)">
                        <path id="Caminho_19188" data-name="Caminho 19188" d="M143.491,90.337a1.841,1.841,0,0,0-.973-.086c-8.222-.072-16.445.234-24.666.024-5.584-.23-11.168-.377-16.757-.268-.516.009-1.031.012-1.547.016a.79.79,0,0,0,0,1.58c3.1-.015,6.209-.084,9.313-.043,4.129.093,8.254.317,12.383.361,6.79.067,13.577-.185,20.368-.071.494,0,.988-.028,1.482-.044a.787.787,0,0,0,.557-.23.8.8,0,0,0-.159-1.238" transform="translate(-98.764 -89.97)"/>
                      </g>
                    </g>
                  </g>
                  <g id="Grupo_18559" data-name="Grupo 18559" transform="translate(52.987 18.068)" opacity="0.129">
                    <g id="Grupo_18558" data-name="Grupo 18558">
                      <g id="Grupo_18557" data-name="Grupo 18557" clip-path="url(#clip-path-17)">
                        <path id="Caminho_19189" data-name="Caminho 19189" d="M166.215,53.4a8.841,8.841,0,0,1-1.813,2.044c-.087.079-.188.159-.3.242a1.551,1.551,0,0,1-.176.092c-1.667.906-3.727.578-5.628-.5a5.154,5.154,0,0,1-.516-.444c-.516-.454-.408-.368-.629-.572-.17-.2-.277-.488-.557-.554a.586.586,0,0,0-.656.854c.39.564.582.861.809,1.128a.593.593,0,0,0,.1.746,5.317,5.317,0,0,0,1.054.948.709.709,0,0,0,.513.5,4.747,4.747,0,0,0,2.757.406,5.211,5.211,0,0,0,.557.058,5.334,5.334,0,0,0,5.035-3.435,4.553,4.553,0,0,0,.44-1.31.536.536,0,0,0-.989-.2" transform="translate(-155.862 -53.146)"/>
                      </g>
                    </g>
                  </g>
                </g>
              </g>
            </g>
          </g>
          <g id="Grupo_18565" data-name="Grupo 18565" transform="translate(627.276 161.895)">
            <g id="Grupo_18564" data-name="Grupo 18564" transform="translate(5 -13)" clip-path="url(#clip-path-18)">
              <path id="Caminho_19190" data-name="Caminho 19190" d="M10.86,52.415h-.005a.574.574,0,0,1-.568-.579l.461-49.772a.59.59,0,0,1,.579-.568.573.573,0,0,1,.568.579l-.462,49.773a.574.574,0,0,1-.574.568" transform="translate(-6.738 -0.979)"/>
              <rect id="Retângulo_5404" data-name="Retângulo 5404" width="7.557" height="7.846" transform="translate(0.574 46.939)" fill="#fff"/>
              <path id="Caminho_19191" data-name="Caminho 19191" d="M8.131,143.415H.574A.574.574,0,0,1,0,142.841v-7.846a.574.574,0,0,1,.574-.574H8.131a.574.574,0,0,1,.574.574v7.846a.574.574,0,0,1-.574.574m-6.983-1.148H7.557v-6.7H1.148Z" transform="translate(0 -88.056)"/>
              <path id="Caminho_19192" data-name="Caminho 19192" d="M8.867,6.885a.573.573,0,0,1-.489-.272L5.312,1.641,2.078,6.548a.574.574,0,0,1-.959-.631L4.848.258a.574.574,0,0,1,.968.015L9.355,6.011a.574.574,0,0,1-.488.875" transform="translate(-0.671 0)"/>
            </g>
          </g>
        </g>
      </g>
    </g>
  </g>
</svg>
