<svg xmlns="http://www.w3.org/2000/svg" xmlns:xlink="http://www.w3.org/1999/xlink" width="312" height="281" viewBox="0 0 312 281">
  <defs>
    <clipPath id="clip-path">
      <rect id="Retângulo_4957" data-name="Retângulo 4957" width="312" height="281" transform="translate(24 115)" fill="#fff" stroke="#707070" stroke-width="1"/>
    </clipPath>
    <clipPath id="clip-path-2">
      <rect id="Retângulo_4966" data-name="Retângulo 4966" width="26.714" height="1.547" fill="none"/>
    </clipPath>
    <clipPath id="clip-path-3">
      <rect id="Retângulo_4989" data-name="Retângulo 4989" width="20.234" height="36.554" fill="none"/>
    </clipPath>
    <clipPath id="clip-path-4">
      <rect id="Retângulo_5029" data-name="Retângulo 5029" width="25.308" height="6.523" fill="none"/>
    </clipPath>
    <clipPath id="clip-path-5">
      <rect id="Retângulo_5037" data-name="Retângulo 5037" width="0.124" height="0.136" fill="none"/>
    </clipPath>
    <clipPath id="clip-path-6">
      <rect id="Retângulo_5038" data-name="Retângulo 5038" width="0.167" height="0.005" fill="none"/>
    </clipPath>
    <clipPath id="clip-path-7">
      <rect id="Retângulo_5039" data-name="Retângulo 5039" width="0.113" height="0.003" fill="none"/>
    </clipPath>
    <clipPath id="clip-path-8">
      <rect id="Retângulo_5129" data-name="Retângulo 5129" width="178.891" height="168.099" fill="none"/>
    </clipPath>
    <clipPath id="clip-path-10">
      <rect id="Retângulo_5121" data-name="Retângulo 5121" width="26.174" height="4.366" fill="none"/>
    </clipPath>
    <clipPath id="clip-path-11">
      <rect id="Retângulo_5127" data-name="Retângulo 5127" width="72.607" height="3.509" fill="none"/>
    </clipPath>
    <clipPath id="clip-path-12">
      <rect id="Retângulo_5134" data-name="Retângulo 5134" width="32.193" height="31.981" fill="none"/>
    </clipPath>
    <clipPath id="clip-path-14">
      <rect id="Retângulo_5131" data-name="Retângulo 5131" width="7.725" height="3.41" fill="none"/>
    </clipPath>
    <clipPath id="clip-path-15">
      <rect id="Retângulo_5132" data-name="Retângulo 5132" width="5.475" height="6.995" fill="none"/>
    </clipPath>
    <clipPath id="clip-path-16">
      <rect id="Retângulo_5138" data-name="Retângulo 5138" width="48.872" height="50.202" fill="none"/>
    </clipPath>
    <clipPath id="clip-path-18">
      <rect id="Retângulo_5136" data-name="Retângulo 5136" width="7.324" height="1.865" fill="none"/>
    </clipPath>
    <clipPath id="clip-path-19">
      <rect id="Retângulo_5139" data-name="Retângulo 5139" width="44.117" height="5.645" fill="none"/>
    </clipPath>
  </defs>
  <g id="Grupo_de_máscara_10" data-name="Grupo de máscara 10" transform="translate(-24 -115)" clip-path="url(#clip-path)">
    <g id="Grupo_18051" data-name="Grupo 18051" transform="translate(6155.724 333.589)">
      <g id="Grupo_18050" data-name="Grupo 18050" transform="translate(-6128 -213.932)">
        <g id="Grupo_18129" data-name="Grupo 18129">
          <g id="Grupo_18046" data-name="Grupo 18046" transform="translate(0 -0.001)">
            <g id="Grupo_18052" data-name="Grupo 18052">
              <path id="Caminho_17572" data-name="Caminho 17572" d="M24.7,43.741,24.549,82.66H51.23l.322-38.919Z" transform="translate(-16.683 -29.726)" fill="#fff"/>
              <path id="Caminho_17573" data-name="Caminho 17573" d="M50.1,82.063H23.416a.533.533,0,0,1-.533-.535l.152-38.919a.533.533,0,0,1,.533-.531H50.42a.533.533,0,0,1,.533.538l-.321,38.919a.533.533,0,0,1-.533.528M23.951,81H49.57l.313-37.853H24.1Z" transform="translate(-15.552 -28.596)"/>
              <path id="Caminho_17574" data-name="Caminho 17574" d="M57.73,73.343H43.765a.533.533,0,1,1,0-1.066H57.73a.533.533,0,1,1,0,1.066" transform="translate(-29.381 -49.119)"/>
              <path id="Caminho_17575" data-name="Caminho 17575" d="M57.73,99.959H43.765a.533.533,0,1,1,0-1.066H57.73a.533.533,0,1,1,0,1.066" transform="translate(-29.381 -67.208)"/>
              <path id="Caminho_17576" data-name="Caminho 17576" d="M57.73,126.576H43.765a.533.533,0,1,1,0-1.066H57.73a.533.533,0,0,1,0,1.066" transform="translate(-29.381 -85.297)"/>
              <path id="Caminho_17577" data-name="Caminho 17577" d="M52.029,150.206h0c-8.7-.194-17.5-.3-26.179-.319a.178.178,0,0,1,0-.355h0c8.677.017,17.488.125,26.186.319a.178.178,0,0,1,0,.355" transform="translate(-17.445 -101.623)"/>
              <g id="Grupo_17831" data-name="Grupo 17831" transform="translate(7.876 51.052)" opacity="0.129">
                <g id="Grupo_17830" data-name="Grupo 17830">
                  <g id="Grupo_17829" data-name="Grupo 17829" clip-path="url(#clip-path-2)">
                    <path id="Caminho_17578" data-name="Caminho 17578" d="M51.1,159.7c-.281-.283-.689-.172-1.046-.184-6.027.053-12.054-.129-18.081-.184a66.912,66.912,0,0,0-6.98.207.69.69,0,0,0,.266,1.323c5.189-.1,10.377.052,15.566-.032,3.269-.013,6.539.121,9.807,0A.666.666,0,0,0,51.1,159.7" transform="translate(-24.582 -159.338)"/>
                  </g>
                </g>
              </g>
              <path id="Caminho_17656" data-name="Caminho 17656" d="M74.012,740.619c2.215-3.632,5.332-8.627,7.329-11.9-4.152.21-8.248.444-12.988.275a122.332,122.332,0,0,1,5.659,11.627" transform="translate(-46.454 -495.244)" fill="#b8b8f1"/>
              <path id="Caminho_17657" data-name="Caminho 17657" d="M72.881,740.021h-.038a.534.534,0,0,1-.452-.322,121.482,121.482,0,0,0-5.631-11.572.533.533,0,0,1,.482-.8c4.445.158,8.4-.043,12.23-.238l.713-.036a.533.533,0,0,1,.482.81c-.971,1.592-2.207,3.592-3.476,5.643-1.34,2.167-2.716,4.393-3.853,6.258a.533.533,0,0,1-.455.255m-4.734-11.6c1.519,2.758,3.26,6.341,4.815,9.91,1.021-1.667,2.183-3.547,3.32-5.385,1.048-1.7,2.074-3.354,2.946-4.777-3.486.177-7.086.352-11.081.252" transform="translate(-45.323 -494.114)"/>
              <path id="Caminho_17658" data-name="Caminho 17658" d="M87.027,659.624a.533.533,0,0,1-.533-.526l-.423-32.7a.533.533,0,0,1,.526-.54.526.526,0,0,1,.54.526l.423,32.7a.533.533,0,0,1-.526.54Z" transform="translate(-58.495 -425.336)"/>
              <rect id="Retângulo_4983" data-name="Retângulo 4983" width="6.396" height="6.396" transform="translate(25.195 197.852)" fill="#fff"/>
              <path id="Caminho_17659" data-name="Caminho 17659" d="M83.906,623.333h-6.4a.533.533,0,0,1-.533-.533v-6.4a.533.533,0,0,1,.533-.533h6.4a.533.533,0,0,1,.533.533v6.4a.533.533,0,0,1-.533.533m-5.863-1.066h5.33v-5.33h-5.33Z" transform="translate(-52.315 -418.553)"/>
              <g id="Grupo_18092" data-name="Grupo 18092" transform="translate(180.863 -122.077)">
                <path id="Caminho_17664" data-name="Caminho 17664" d="M202.815,552.987l48.151-27.814,8.466,14.657-48.15,27.814s-7.6,3.228-10.918-2.963a8.836,8.836,0,0,1,2.451-11.694" transform="translate(-134.57 -379.695)" fill="#fff"/>
                <path id="Caminho_17665" data-name="Caminho 17665" d="M205.709,567.68a7.4,7.4,0,0,1-6.942-4.019c-4.05-7.568,2.522-12.215,2.589-12.261l.03-.018,48.15-27.814a.438.438,0,0,1,.6.16l8.466,14.657a.438.438,0,0,1-.16.6L210.29,566.8a.439.439,0,0,1-.048.024,13.073,13.073,0,0,1-4.533.859m-3.869-15.549a8.332,8.332,0,0,0-2.3,11.116c3.025,5.653,9.8,3,10.337,2.777l47.746-27.58-8.028-13.9Z" transform="translate(-133.36 -378.469)"/>
                <path id="Caminho_17666" data-name="Caminho 17666" d="M201.232,508.515l28.275-47.881,14.575,8.607-28.276,47.881s-5.037,6.547-10.965,2.783a8.836,8.836,0,0,1-3.61-11.39" transform="translate(-135.542 -332.16)" fill="#fff"/>
                <path id="Caminho_17667" data-name="Caminho 17667" d="M207.432,520.281a7.366,7.366,0,0,1-4-1.231c-7.246-4.6-3.8-11.879-3.769-11.952l.017-.031,28.275-47.881a.439.439,0,0,1,.6-.155l14.575,8.607a.438.438,0,0,1,.154.6l-28.275,47.881a.469.469,0,0,1-.03.045c-.041.053-3.231,4.116-7.545,4.116m-6.99-12.784A8.333,8.333,0,0,0,203.9,518.31c5.412,3.438,10.011-2.205,10.367-2.66l28.039-47.479-13.82-8.161Z" transform="translate(-134.365 -330.935)"/>
                <path id="Caminho_17668" data-name="Caminho 17668" d="M195.013,503.376V447.769h16.926v55.607s-1.008,8.2-8.027,7.972a8.836,8.836,0,0,1-8.9-7.972" transform="translate(-131.566 -322.684)" fill="#fff"/>
                <path id="Caminho_17669" data-name="Caminho 17669" d="M202.972,510.565h-.3c-8.579-.278-9.316-8.294-9.322-8.375V446.544a.439.439,0,0,1,.438-.439h16.927a.439.439,0,0,1,.438.439V502.15a.456.456,0,0,1,0,.054c-.011.085-1.111,8.361-8.176,8.361m-8.747-8.434a8.334,8.334,0,0,0,8.476,7.553c6.4.2,7.5-6.99,7.574-7.562v-55.14H194.23Zm-.438.019Z" transform="translate(-130.339 -321.458)"/>
                <path id="Caminho_17670" data-name="Caminho 17670" d="M218.426,654.1a2.363,2.363,0,1,1,2.363,2.363,2.363,2.363,0,0,1-2.363-2.363" transform="translate(-148.81 -472.916)" fill="#fff"/>
                <path id="Caminho_17671" data-name="Caminho 17671" d="M219.564,655.678a2.8,2.8,0,1,1,2.8-2.8,2.8,2.8,0,0,1-2.8,2.8m0-4.726a1.925,1.925,0,1,0,1.925,1.925,1.925,1.925,0,0,0-1.925-1.925" transform="translate(-147.585 -471.691)"/>
                <rect id="Retângulo_4986" data-name="Retângulo 4986" width="16.926" height="16.362" transform="translate(63.447 125.085)" fill="#b8b8f1"/>
                <path id="Caminho_17672" data-name="Caminho 17672" d="M210.714,463.344H193.787a.438.438,0,0,1-.438-.438V446.544a.438.438,0,0,1,.438-.438h16.927a.438.438,0,0,1,.438.438v16.362a.438.438,0,0,1-.438.438m-16.488-.877h16.05V446.982h-16.05Z" transform="translate(-130.34 -321.459)"/>
                <rect id="Retângulo_4987" data-name="Retângulo 4987" width="16.926" height="16.362" transform="translate(63.447 141.447)" fill="#fff"/>
                <path id="Caminho_17673" data-name="Caminho 17673" d="M210.714,525.449H193.787a.438.438,0,0,1-.438-.438V508.648a.438.438,0,0,1,.438-.438h16.927a.438.438,0,0,1,.438.438V525.01a.438.438,0,0,1-.438.438m-16.488-.876h16.05V509.087h-16.05Z" transform="translate(-130.34 -367.201)"/>
                <rect id="Retângulo_4988" data-name="Retângulo 4988" width="16.927" height="16.362" transform="translate(63.515 157.525)" fill="#fff"/>
                <path id="Caminho_17674" data-name="Caminho 17674" d="M210.973,586.477H194.046a.438.438,0,0,1-.438-.438V569.677a.438.438,0,0,1,.438-.438h16.927a.438.438,0,0,1,.438.438v16.362a.438.438,0,0,1-.438.438m-16.488-.876h16.05V570.115h-16.05Z" transform="translate(-130.531 -412.152)"/>
                <path id="Caminho_17675" data-name="Caminho 17675" d="M294.377,520.468a.148.148,0,0,1-.074-.02l-14.426-8.462a.146.146,0,0,1,.148-.252l14.426,8.462a.146.146,0,0,1-.074.272" transform="translate(-194.019 -369.782)"/>
                <path id="Caminho_17676" data-name="Caminho 17676" d="M270.971,577.936a.144.144,0,0,1-.076-.022l-11.86-7.3a.146.146,0,1,1,.153-.249l11.86,7.3a.146.146,0,0,1-.077.271" transform="translate(-178.669 -412.968)"/>
                <path id="Caminho_17677" data-name="Caminho 17677" d="M262.7,642.855a.143.143,0,0,1-.075-.021l-3.849-2.31a.146.146,0,1,1,.15-.251l3.85,2.31a.146.146,0,0,1-.075.271" transform="translate(-178.478 -464.456)"/>
                <path id="Caminho_17678" data-name="Caminho 17678" d="M351.253,570.373a.146.146,0,0,1-.126-.073l-8.667-14.853a.146.146,0,0,1,.252-.147l8.667,14.853a.146.146,0,0,1-.052.2.143.143,0,0,1-.073.02" transform="translate(-240.152 -401.832)"/>
                <path id="Caminho_17679" data-name="Caminho 17679" d="M307.46,611.928a.146.146,0,0,1-.127-.074l-5.859-10.236a.146.146,0,0,1,.254-.145l5.859,10.236a.146.146,0,0,1-.127.219" transform="translate(-209.964 -435.839)"/>
                <path id="Caminho_17680" data-name="Caminho 17680" d="M275.747,653.849a.146.146,0,0,1-.126-.073l-2.3-3.942a.146.146,0,0,1,.252-.147l2.3,3.942a.146.146,0,0,1-.053.2.143.143,0,0,1-.074.02" transform="translate(-189.229 -471.352)"/>
                <path id="Caminho_17681" data-name="Caminho 17681" d="M204.853,461.466a.146.146,0,0,1-.146-.138c-.116-2.229-.143-4.491-.082-6.72a.15.15,0,0,1,.15-.142.146.146,0,0,1,.142.15c-.061,2.222-.034,4.475.082,6.7a.146.146,0,0,1-.138.154h-.008" transform="translate(-138.622 -327.615)"/>
                <path id="Caminho_17682" data-name="Caminho 17682" d="M212.409,457.466a.146.146,0,0,1-.146-.139l-.144-2.9a.146.146,0,0,1,.139-.153.142.142,0,0,1,.153.139l.144,2.9a.146.146,0,0,1-.139.153h-.007" transform="translate(-144.165 -327.471)"/>
                <g id="Grupo_17864" data-name="Grupo 17864" transform="translate(78.455 149.606)" opacity="0.129">
                  <g id="Grupo_17863" data-name="Grupo 17863">
                    <g id="Grupo_17862" data-name="Grupo 17862" clip-path="url(#clip-path-3)">
                      <path id="Caminho_17683" data-name="Caminho 17683" d="M271.44,547.143c-.4.116-.486.568-.672.889-2.172,4.238-4.71,8.28-7.2,12.339-2.317,3.911-4.755,7.746-7.138,11.616a27.115,27.115,0,0,1-2.672,3.935,17.75,17.75,0,0,0,1.524-5.332,76.97,76.97,0,0,0,.037-11.09c-.131-2.617.162-5.228.219-7.844.1-2.755-.014-5.51-.149-8.263-.027-.648-.075-1.294-.118-1.941a.616.616,0,0,0-.612-.612c-.713.048-.625.719-.57,1.246.049.665.076,1.33.106,2a114.651,114.651,0,0,1-.135,13.343c.022,3.3.306,6.593.187,9.894a20.945,20.945,0,0,1-.479,4.836,16.336,16.336,0,0,1-1.339,3.734c-.146.36-.547.667-.438,1.085a.586.586,0,0,0,1.061.139c.109-.148.215-.312.319-.483a.571.571,0,0,0,.975.35,26.1,26.1,0,0,0,3.643-5.217c1.517-2.47,3.107-4.9,4.585-7.388,2.29-3.837,4.7-7.606,6.916-11.485a50.854,50.854,0,0,0,2.706-5.077.61.61,0,0,0-.762-.67" transform="translate(-251.978 -540.84)"/>
                    </g>
                  </g>
                </g>
              </g>
              <path id="Caminho_17705" data-name="Caminho 17705" d="M163.928,95.536V81.321h14.211l-.255,14.216Z" transform="translate(-111.407 -55.266)" fill="#acd4f7"/>
              <path id="Caminho_17706" data-name="Caminho 17706" d="M176.754,94.939H162.8a.533.533,0,0,1-.533-.533V80.191a.533.533,0,0,1,.533-.533h14.211a.533.533,0,0,1,.533.543l-.255,14.215a.533.533,0,0,1-.533.523M163.33,93.873h12.9l.235-13.149H163.33Z" transform="translate(-110.277 -54.136)"/>
              <path id="Caminho_17707" data-name="Caminho 17707" d="M163.928,95.536V81.321h14.211l-.255,14.216Z" transform="translate(-111.407 -55.266)" fill="#b8b8f1"/>
              <path id="Caminho_17708" data-name="Caminho 17708" d="M176.754,94.939H162.8a.533.533,0,0,1-.533-.533V80.191a.533.533,0,0,1,.533-.533h14.211a.533.533,0,0,1,.533.543l-.255,14.215a.533.533,0,0,1-.533.523M163.33,93.873h12.9l.235-13.149H163.33Z" transform="translate(-110.277 -54.136)"/>
              <rect id="Retângulo_5007" data-name="Retângulo 5007" width="7.288" height="7.019" transform="translate(6.73 262.298)" fill="#fff"/>
              <path id="Caminho_17754" data-name="Caminho 17754" d="M27.165,825.107H19.877a.533.533,0,0,1-.533-.533v-7.019a.533.533,0,0,1,.533-.533h7.288a.533.533,0,0,1,.533.533v7.019a.533.533,0,0,1-.533.533m-6.755-1.066h6.222v-5.953H20.41Z" transform="translate(-13.146 -555.257)"/>
              <rect id="Retângulo_5008" data-name="Retângulo 5008" width="7.288" height="7.019" transform="translate(58.836 61.799)" fill="#fff"/>
              <path id="Caminho_17755" data-name="Caminho 17755" d="M189.8,199.306h-7.288a.533.533,0,0,1-.533-.533v-7.019a.533.533,0,0,1,.533-.533H189.8a.533.533,0,0,1,.533.533v7.019a.533.533,0,0,1-.533.533m-6.755-1.066h6.222v-5.953h-6.222Z" transform="translate(-123.672 -129.955)"/>
              <g id="Grupo_18117" data-name="Grupo 18117" transform="translate(12.991 -17.53)">
                <rect id="Retângulo_5130" data-name="Retângulo 5130" width="7.288" height="7.019" transform="translate(261.176 125.326)" fill="#fff"/>
                <path id="Caminho_18191" data-name="Caminho 18191" d="M189.8,199.306h-7.288a.533.533,0,0,1-.533-.533v-7.019a.533.533,0,0,1,.533-.533H189.8a.533.533,0,0,1,.533.533v7.019a.533.533,0,0,1-.533.533m-6.755-1.066h6.222v-5.953h-6.222Z" transform="translate(78.668 -66.428)"/>
              </g>
              <g id="Grupo_18127" data-name="Grupo 18127" transform="translate(-52.009 -55.91)">
                <rect id="Retângulo_5130-2" data-name="Retângulo 5130" width="7.288" height="7.019" transform="translate(261.176 125.326)" fill="#fff"/>
                <path id="Caminho_18191-2" data-name="Caminho 18191" d="M189.8,199.306h-7.288a.533.533,0,0,1-.533-.533v-7.019a.533.533,0,0,1,.533-.533H189.8a.533.533,0,0,1,.533.533v7.019a.533.533,0,0,1-.533.533m-6.755-1.066h6.222v-5.953h-6.222Z" transform="translate(78.668 -66.428)"/>
              </g>
              <path id="Caminho_17860" data-name="Caminho 17860" d="M832.8,48.968a.533.533,0,0,1-.519-.414,14.326,14.326,0,0,0-1.713-4.25.533.533,0,1,1,.911-.554,15.385,15.385,0,0,1,1.841,4.565.533.533,0,0,1-.52.652" transform="translate(-714.257 31.385)"/>
              <path id="Caminho_17861" data-name="Caminho 17861" d="M851.317,44.915a.533.533,0,0,1-.532-.5,38.4,38.4,0,0,1,.2-6.546.533.533,0,1,1,1.058.123,37.41,37.41,0,0,0-.193,6.364.533.533,0,0,1-.5.562h-.03" transform="translate(-728.012 35.531)"/>
              <path id="Caminho_17862" data-name="Caminho 17862" d="M866.742,49.449a.523.523,0,0,1-.173-.029.533.533,0,0,1-.332-.677,32.249,32.249,0,0,1,2.189-4.97.533.533,0,0,1,.936.511,31.139,31.139,0,0,0-2.117,4.805.533.533,0,0,1-.5.36" transform="translate(-738.533 31.385)"/>
              <path id="Caminho_17872" data-name="Caminho 17872" d="M2.309,538.051a.533.533,0,0,1-.519-.414,14.328,14.328,0,0,0-1.712-4.25.533.533,0,1,1,.911-.554,15.384,15.384,0,0,1,1.84,4.567.533.533,0,0,1-.52.652" transform="translate(0 -361.945)"/>
              <path id="Caminho_17873" data-name="Caminho 17873" d="M20.828,534a.533.533,0,0,1-.532-.5,38.364,38.364,0,0,1,.2-6.546.533.533,0,0,1,1.059.124,37.306,37.306,0,0,0-.193,6.364.533.533,0,0,1-.5.562h-.03" transform="translate(-13.754 -357.799)"/>
              <path id="Caminho_17874" data-name="Caminho 17874" d="M36.252,538.532a.533.533,0,0,1-.5-.706,32.279,32.279,0,0,1,2.189-4.97.533.533,0,1,1,.936.511,31.131,31.131,0,0,0-2.116,4.805.533.533,0,0,1-.5.36" transform="translate(-24.275 -361.946)"/>
              <g id="Grupo_18094" data-name="Grupo 18094" transform="translate(113.573 145.145)">
                <path id="Caminho_17884" data-name="Caminho 17884" d="M334.128,202.641c-2.658,1.354-7.316.383-9.662-1.467a16.766,16.766,0,0,1-5.089-18.591c1.186-3.108,3.314-5.833,4.108-9.067,1.217-4.964-.908-10.217-.14-15.272a13.609,13.609,0,0,1,9.83-10.909c3.142-.8,6.883-.193,8.872,2.391a9.627,9.627,0,0,1,1.495,6.783c-.355,3.835-1.832,7.778-.594,11.421.936,2.754,3.249,4.749,4.988,7.07a19.626,19.626,0,0,1,1.3,20.95c-3.666,6.422-9.948,10.076-15.1,6.69" transform="translate(-170.784 -102.908)" fill="#fff"/>
                <path id="Caminho_17885" data-name="Caminho 17885" d="M337.244,203.349a8.094,8.094,0,0,1-4.253-1.212c-2.915,1.27-7.583.216-9.955-1.656a17.4,17.4,0,0,1-5.257-19.2,33.438,33.438,0,0,1,1.836-3.809,22.488,22.488,0,0,0,2.252-5.194,22.633,22.633,0,0,0,.026-7.962,27.817,27.817,0,0,1-.175-7.262,14.148,14.148,0,0,1,10.226-11.345c3.1-.785,7.213-.291,9.426,2.583a10.059,10.059,0,0,1,1.6,7.157c-.106,1.145-.311,2.306-.51,3.43-.484,2.738-.942,5.324-.11,7.771a15.417,15.417,0,0,0,3.243,4.891c.561.654,1.141,1.33,1.667,2.031A20.167,20.167,0,0,1,348.6,195.1c-2.422,4.242-5.824,7.158-9.334,8a8.661,8.661,0,0,1-2.018.244M333.029,201a.533.533,0,0,1,.293.087,7.018,7.018,0,0,0,5.692.984c3.178-.763,6.414-3.564,8.657-7.493a19.074,19.074,0,0,0-1.26-20.367c-.5-.673-1.073-1.335-1.623-1.976a16.451,16.451,0,0,1-3.444-5.242c-.92-2.706-.417-5.549.07-8.3.2-1.1.4-2.241.5-3.342.174-1.876.075-4.511-1.386-6.408-1.918-2.49-5.561-2.9-8.32-2.2a13.057,13.057,0,0,0-9.434,10.473,27.049,27.049,0,0,0,.181,6.983,23.776,23.776,0,0,1-.049,8.335,23.644,23.644,0,0,1-2.348,5.443,32.646,32.646,0,0,0-1.779,3.687,16.3,16.3,0,0,0,4.921,17.982c2.152,1.7,6.592,2.685,9.09,1.411a.534.534,0,0,1,.242-.058" transform="translate(-169.686 -101.796)"/>
                <path id="Caminho_17886" data-name="Caminho 17886" d="M365.715,248.993a.533.533,0,0,1-.533-.527c-.042-3.934-.21-7.935-.372-11.8q-.065-1.557-.128-3.114c-.534-13.456-.692-27.1-.47-40.569a.525.525,0,0,1,.542-.524.533.533,0,0,1,.524.542c-.222,13.444-.064,27.073.47,40.509q.062,1.556.128,3.112c.162,3.877.33,7.886.373,11.836a.533.533,0,0,1-.527.539Z" transform="translate(-201.871 -133.794)"/>
                <path id="Caminho_17887" data-name="Caminho 17887" d="M365.277,251.412a.526.526,0,0,1-.2-.037.532.532,0,0,1-.3-.692,46.57,46.57,0,0,1,6.9-11.916.533.533,0,1,1,.833.665,45.509,45.509,0,0,0-6.747,11.644.533.533,0,0,1-.5.336" transform="translate(-202.299 -165.132)"/>
                <path id="Caminho_17888" data-name="Caminho 17888" d="M347.3,282.946a.532.532,0,0,1-.415-.2,53.278,53.278,0,0,0-8.465-8.385.533.533,0,0,1,.661-.837,54.365,54.365,0,0,1,8.634,8.553.533.533,0,0,1-.415.867" transform="translate(-184.273 -188.813)"/>
                <path id="Caminho_17889" data-name="Caminho 17889" d="M346.255,169.738a.177.177,0,0,1-.177-.167,8.8,8.8,0,0,1,1.738-5.767.178.178,0,0,1,.283.214,8.44,8.44,0,0,0-1.667,5.532.178.178,0,0,1-.166.188h-.011" transform="translate(-189.603 -114.274)"/>
                <path id="Caminho_17890" data-name="Caminho 17890" d="M339.945,181.4a.177.177,0,0,1-.177-.178V178.56a.178.178,0,1,1,.355,0v2.662a.178.178,0,0,1-.178.178" transform="translate(-185.325 -124.231)"/>
                <path id="Caminho_17891" data-name="Caminho 17891" d="M408.68,263.031a.185.185,0,0,1-.047-.006.178.178,0,0,1-.124-.219,12.935,12.935,0,0,0,.4-4.718.178.178,0,0,1,.159-.194.18.18,0,0,1,.194.16,13.288,13.288,0,0,1-.412,4.847.178.178,0,0,1-.171.13" transform="translate(-232.038 -178.267)"/>
                <g id="Grupo_17924" data-name="Grupo 17924" transform="translate(151.834 94.569)" opacity="0.129">
                  <g id="Grupo_17923" data-name="Grupo 17923">
                    <g id="Grupo_17922" data-name="Grupo 17922" clip-path="url(#clip-path-4)">
                      <path id="Caminho_17892" data-name="Caminho 17892" d="M355.961,304.531a1.376,1.376,0,0,0-1,.612c-.283.25-.566.5-.852.746l-.055.036a22.479,22.479,0,0,1-2.7,1.548c-1.1.391-1.868.869-2.355,1.005a4.726,4.726,0,0,1-2.36.3,3.766,3.766,0,0,1-1.408-.535c-.525-.306-1.042-.625-1.54-.976a1.488,1.488,0,0,0-.787-.385,1.132,1.132,0,0,0-1.307.943,3.1,3.1,0,0,1-.876.308,8.089,8.089,0,0,1-2.559.185h-.025c-.232-.051-1-.21-1.182-.285a4.91,4.91,0,0,1-1.041-.419c-1.332-.775-1.652-.838-2.76-1.412a1.03,1.03,0,1,0-1.031,1.784c1.018.562,1.23.542,1.861.906a10.61,10.61,0,0,0,5.779,1.814,7.815,7.815,0,0,0,2.128-.233,2.257,2.257,0,0,0,1.321-.644,6.848,6.848,0,0,0,2.441,1.094,5.331,5.331,0,0,0,2.1.059c.13-.021.143-.023.109-.019a.559.559,0,0,0,.1-.014,9.282,9.282,0,0,0,2.747-.879c.858-.467,1-.393,2.183-.973a13.77,13.77,0,0,0,3.1-2.234c.389-.37.927-.755.932-1.345a.987.987,0,0,0-.972-.983" transform="translate(-331.625 -304.53)"/>
                    </g>
                  </g>
                </g>
              </g>
              <path id="Caminho_17932" data-name="Caminho 17932" d="M95.03,326.744a.527.527,0,0,1-.235-.055c-1.537-.756-2.716-1.345-3.822-1.91a.533.533,0,1,1,.485-.949c1.1.563,2.275,1.149,3.807,1.9a.533.533,0,0,1-.235,1.011m-7.586-3.9a.532.532,0,0,1-.256-.066c-1.34-.735-2.555-1.436-3.715-2.142a.533.533,0,1,1,.554-.91c1.146.7,2.348,1.39,3.674,2.117a.533.533,0,0,1-.257,1m-7.27-4.44a.53.53,0,0,1-.3-.1c-1.221-.849-2.378-1.721-3.438-2.59a.533.533,0,1,1,.676-.824c1.038.852,2.173,1.706,3.371,2.54a.533.533,0,0,1-.3.97m-6.567-5.421a.531.531,0,0,1-.377-.156,36.958,36.958,0,0,1-2.875-3.228.533.533,0,1,1,.837-.66,35.77,35.77,0,0,0,2.792,3.134.533.533,0,0,1-.377.91m-5.245-6.693a.532.532,0,0,1-.459-.261,33.165,33.165,0,0,1-1.951-3.865.533.533,0,1,1,.98-.418,32.146,32.146,0,0,0,1.888,3.74.533.533,0,0,1-.458.8M65,298.469a.533.533,0,0,1-.511-.381c-.393-1.322-.738-2.731-1.026-4.188a.533.533,0,1,1,1.046-.207c.281,1.425.619,2.8,1,4.091a.533.533,0,0,1-.511.685m-1.681-8.349a.533.533,0,0,1-.528-.468c-.166-1.355-.3-2.753-.4-4.274a.533.533,0,1,1,1.063-.072c.1,1.5.231,2.881.394,4.216a.533.533,0,0,1-.464.594h-.066m-.6-8.5a.533.533,0,0,1-.532-.517c-.038-1.273-.064-2.632-.079-4.276a.533.533,0,0,1,.528-.538h.005a.533.533,0,0,1,.533.528c.015,1.636.04,2.988.079,4.253a.533.533,0,0,1-.517.549h-.016m-.1-8.528a.533.533,0,0,1-.533-.531l-.019-4.264a.533.533,0,0,1,.531-.535h0a.533.533,0,0,1,.533.531l.019,4.264a.533.533,0,0,1-.531.536Zm-.038-8.528a.533.533,0,0,1-.533-.531l-.019-4.264a.533.533,0,0,1,.531-.535h0a.533.533,0,0,1,.533.531l.019,4.264A.533.533,0,0,1,62.579,264.559Zm-.038-8.527a.533.533,0,0,1-.533-.531l-.019-4.264a.533.533,0,0,1,.531-.535h0a.533.533,0,0,1,.533.531l.019,4.264a.533.533,0,0,1-.531.535ZM62.5,247.5a.533.533,0,0,1-.533-.531l-.019-4.264a.533.533,0,0,1,.531-.535h0a.533.533,0,0,1,.533.531l.019,4.263A.534.534,0,0,1,62.5,247.5Zm-.038-8.527a.533.533,0,0,1-.533-.531l-.02-4.264a.533.533,0,0,1,.531-.535h0a.533.533,0,0,1,.533.531L63,238.443a.533.533,0,0,1-.531.535Zm-.038-8.528a.533.533,0,0,1-.533-.531l-.019-4.264a.533.533,0,0,1,.531-.535h0a.533.533,0,0,1,.533.531l.019,4.264a.533.533,0,0,1-.531.535Zm-.039-8.527a.533.533,0,0,1-.533-.531l-.019-4.264a.533.533,0,0,1,.53-.535h0a.533.533,0,0,1,.533.531l.019,4.264a.533.533,0,0,1-.53.535Z" transform="translate(-42.026 -147.199)"/>
              <g id="Grupo_17945" data-name="Grupo 17945" transform="translate(291.193 158.66)" opacity="0.129">
                <g id="Grupo_17944" data-name="Grupo 17944">
                  <g id="Grupo_17943" data-name="Grupo 17943" clip-path="url(#clip-path-5)">
                    <path id="Caminho_17941" data-name="Caminho 17941" d="M908.878,495.346h.005c.131-.145.186-.206-.005,0" transform="translate(-908.878 -495.209)"/>
                  </g>
                </g>
              </g>
              <g id="Grupo_17948" data-name="Grupo 17948" transform="translate(284.49 163.247)" opacity="0.129">
                <g id="Grupo_17947" data-name="Grupo 17947">
                  <g id="Grupo_17946" data-name="Grupo 17946" clip-path="url(#clip-path-6)">
                    <path id="Caminho_17942" data-name="Caminho 17942" d="M888.123,509.526a1.54,1.54,0,0,0-.167.005l.167-.005" transform="translate(-887.956 -509.526)"/>
                  </g>
                </g>
              </g>
              <g id="Grupo_17951" data-name="Grupo 17951" transform="translate(284.657 163.244)" opacity="0.129">
                <g id="Grupo_17950" data-name="Grupo 17950">
                  <g id="Grupo_17949" data-name="Grupo 17949" clip-path="url(#clip-path-7)">
                    <path id="Caminho_17943" data-name="Caminho 17943" d="M888.581,509.516h0" transform="translate(-888.476 -509.516)"/>
                  </g>
                </g>
              </g>
              <g id="Grupo_18091" data-name="Grupo 18091" transform="translate(58.755 95.785)">
                <g id="Grupo_18090" data-name="Grupo 18090" clip-path="url(#clip-path-8)">
                  <path id="Caminho_18167" data-name="Caminho 18167" d="M257.357,103.432l-1.446,118.9h60.031l.723-118.9Z" transform="translate(-138.519 -55.986)" fill="#fff"/>
                  <g id="Grupo_18089" data-name="Grupo 18089">
                    <g id="Grupo_18088" data-name="Grupo 18088" clip-path="url(#clip-path-8)">
                      <path id="Caminho_18168" data-name="Caminho 18168" d="M315.061,222.2h-60.03a.746.746,0,0,1-.746-.755l1.446-118.9a.746.746,0,0,1,.746-.736h59.308a.746.746,0,0,1,.745.75l-.723,118.9a.746.746,0,0,1-.746.741m-59.276-1.491H314.32l.714-117.407H257.213Z" transform="translate(-137.639 -55.106)"/>
                      <rect id="Retângulo_5115" data-name="Retângulo 5115" width="12.068" height="12.068" transform="translate(130.142 63.209)" fill="#fff"/>
                      <path id="Caminho_18169" data-name="Caminho 18169" d="M294.893,149.726H282.825a.746.746,0,0,1-.745-.745V136.912a.746.746,0,0,1,.745-.745h12.068a.746.746,0,0,1,.745.745V148.98a.746.746,0,0,1-.745.745m-11.322-1.491h10.576V137.658H283.571Z" transform="translate(-152.684 -73.704)"/>
                      <rect id="Retângulo_5116" data-name="Retângulo 5116" width="12.068" height="12.068" transform="translate(154.277 63.209)" fill="#fff"/>
                      <path id="Caminho_18170" data-name="Caminho 18170" d="M347.507,149.726H335.439a.746.746,0,0,1-.745-.745V136.912a.746.746,0,0,1,.745-.745h12.068a.746.746,0,0,1,.745.745V148.98a.746.746,0,0,1-.745.745m-11.323-1.491h10.577V137.658H336.185Z" transform="translate(-181.163 -73.704)"/>
                      <rect id="Retângulo_5117" data-name="Retângulo 5117" width="12.068" height="12.068" transform="translate(130.142 94.828)" fill="#fff"/>
                      <path id="Caminho_18171" data-name="Caminho 18171" d="M294.893,218.656H282.825a.746.746,0,0,1-.745-.745V205.843a.746.746,0,0,1,.745-.745h12.068a.746.746,0,0,1,.745.745v12.068a.746.746,0,0,1-.745.745m-11.322-1.491h10.576V206.589H283.571Z" transform="translate(-152.684 -111.015)"/>
                      <rect id="Retângulo_5118" data-name="Retângulo 5118" width="12.068" height="12.068" transform="translate(154.277 94.828)" fill="#fff"/>
                      <path id="Caminho_18172" data-name="Caminho 18172" d="M347.507,218.656H335.439a.746.746,0,0,1-.745-.745V205.843a.746.746,0,0,1,.745-.745h12.068a.746.746,0,0,1,.745.745v12.068a.746.746,0,0,1-.745.745m-11.323-1.491h10.577V206.589H336.185Z" transform="translate(-181.163 -111.015)"/>
                      <rect id="Retângulo_5119" data-name="Retângulo 5119" width="12.068" height="12.068" transform="translate(129.667 126.448)" fill="#fff"/>
                      <path id="Caminho_18173" data-name="Caminho 18173" d="M293.859,287.585H281.791a.745.745,0,0,1-.745-.745V274.772a.746.746,0,0,1,.745-.745h12.068a.746.746,0,0,1,.745.745V286.84a.745.745,0,0,1-.745.745m-11.322-1.491h10.576V275.518H282.537Z" transform="translate(-152.124 -148.325)"/>
                      <rect id="Retângulo_5120" data-name="Retângulo 5120" width="12.068" height="12.068" transform="translate(153.803 126.448)" fill="#fff"/>
                      <path id="Caminho_18174" data-name="Caminho 18174" d="M346.473,287.585H334.4a.745.745,0,0,1-.745-.745V274.772a.746.746,0,0,1,.745-.745h12.068a.746.746,0,0,1,.745.745V286.84a.745.745,0,0,1-.745.745m-11.322-1.491h10.577V275.518H335.151Z" transform="translate(-180.603 -148.325)"/>
                      <path id="Caminho_18175" data-name="Caminho 18175" d="M315.923,344.562h0l-59.645-.077a.25.25,0,1,1,0-.5h0l59.645.078a.25.25,0,0,1,0,.5" transform="translate(-138.583 -186.193)"/>
                      <path id="Caminho_18176" data-name="Caminho 18176" d="M24.931,1.646Q13.341,13.1,1.625,24.443v143.8h122.6V1.646Z" transform="translate(-0.88 -0.891)" fill="#fff"/>
                      <path id="Caminho_18177" data-name="Caminho 18177" d="M123.342,168.11H.745A.746.746,0,0,1,0,167.365V23.564a.747.747,0,0,1,.226-.534L1.6,21.691C8.806,14.675,16.257,7.422,23.527.237a.743.743,0,0,1,.524-.216h99.291a.746.746,0,0,1,.745.745v166.6a.746.746,0,0,1-.745.745M1.491,166.62H122.6V1.512H24.357c-7.2,7.119-14.581,14.3-21.716,21.247l-1.15,1.119Z" transform="translate(0 -0.011)"/>
                      <path id="Caminho_18178" data-name="Caminho 18178" d="M1.625,24.443c11.056.2,19.771.9,25.681,1-.456-7.5-.951-16.432-2.375-23.8-.616,1.235-16.688,15.281-23.306,22.8" transform="translate(-0.88 -0.891)" fill="#fff"/>
                      <path id="Caminho_18179" data-name="Caminho 18179" d="M26.426,25.3h-.014c-2.506-.047-5.5-.2-8.973-.371C12.6,24.69,7.109,24.415.732,24.3a.746.746,0,0,1-.546-1.238C4.1,18.615,11.351,11.852,16.645,6.914,19.805,3.968,23.072.92,23.4.4a.735.735,0,0,1,.762-.4.748.748,0,0,1,.626.607C26.153,7.7,26.661,16.1,27.109,23.5l.061,1.009a.744.744,0,0,1-.744.791M2.394,22.84c5.708.132,10.684.381,15.119.6,3.092.155,5.805.29,8.12.35l-.012-.2a201.934,201.934,0,0,0-2.03-21.2C22.546,3.44,20.7,5.171,17.663,8,12.852,12.491,6.42,18.49,2.394,22.84"/>
                      <g id="Grupo_18084" data-name="Grupo 18084" transform="translate(0.936 23.698)" opacity="0.129">
                        <g id="Grupo_18083" data-name="Grupo 18083">
                          <g id="Grupo_18082" data-name="Grupo 18082" clip-path="url(#clip-path-10)">
                            <path id="Caminho_18180" data-name="Caminho 18180" d="M27.792,53.3c-.544-.606-1.33-.474-2.034-.43-3.391-.2-6.764-.769-10.165-.863-3.052-.019-6.1.066-9.155-.063-.845-.057-1.69-.113-2.531-.224a1.411,1.411,0,0,0-1.17.145,1.641,1.641,0,0,0,.344,2.87c4.427.387,8.893.265,13.331.556,3.674.288,7.716.339,10.346.73A1.629,1.629,0,0,0,27.792,53.3" transform="translate(-2.04 -51.66)"/>
                          </g>
                        </g>
                      </g>
                      <path id="Caminho_18181" data-name="Caminho 18181" d="M191.344,53.532H164.793a.25.25,0,1,1,0-.5h26.551a.25.25,0,0,1,0,.5" transform="translate(-89.064 -28.707)"/>
                      <path id="Caminho_18182" data-name="Caminho 18182" d="M178.45,74.264H140.97a.25.25,0,0,1,0-.5h37.48a.25.25,0,0,1,0,.5" transform="translate(-76.17 -39.928)"/>
                      <rect id="Retângulo_5122" data-name="Retângulo 5122" width="70.88" height="68.805" transform="translate(26.604 60.183)" fill="#fff"/>
                      <path id="Caminho_18183" data-name="Caminho 18183" d="M128,199.869H57.115a.746.746,0,0,1-.745-.745V130.318a.746.746,0,0,1,.745-.745H128a.746.746,0,0,1,.745.745v68.805a.746.746,0,0,1-.745.745m-70.135-1.491H127.25V131.064H57.861Z" transform="translate(-30.512 -70.135)"/>
                      <rect id="Retângulo_5123" data-name="Retângulo 5123" width="10.069" height="10.349" transform="translate(26.964 60.183)" fill="#b8b8f1"/>
                      <path id="Caminho_18184" data-name="Caminho 18184" d="M67.97,141.413H57.9a.746.746,0,0,1-.745-.745v-10.35a.746.746,0,0,1,.745-.745H67.97a.746.746,0,0,1,.745.745v10.349a.746.746,0,0,1-.745.745m-9.324-1.491h8.579v-8.857H58.646Z" transform="translate(-30.937 -70.135)"/>
                      <rect id="Retângulo_5124" data-name="Retângulo 5124" width="10.069" height="10.349" transform="translate(26.964 118.64)" fill="#b8b8f1"/>
                      <path id="Caminho_18185" data-name="Caminho 18185" d="M67.97,268.847H57.9a.746.746,0,0,1-.745-.745v-10.35a.746.746,0,0,1,.745-.745H67.97a.746.746,0,0,1,.745.745V268.1a.746.746,0,0,1-.745.745m-9.324-1.491h8.579V258.5H58.646Z" transform="translate(-30.937 -139.112)"/>
                      <rect id="Retângulo_5125" data-name="Retângulo 5125" width="10.069" height="10.349" transform="translate(87.415 118.64)" fill="#b8b8f1"/>
                      <path id="Caminho_18186" data-name="Caminho 18186" d="M199.752,268.847h-10.07a.745.745,0,0,1-.745-.745v-10.35a.745.745,0,0,1,.745-.745h10.069a.746.746,0,0,1,.745.745V268.1a.746.746,0,0,1-.745.745m-9.324-1.491h8.579V258.5h-8.579Z" transform="translate(-102.267 -139.112)"/>
                      <rect id="Retângulo_5126" data-name="Retângulo 5126" width="10.069" height="10.349" transform="translate(87.415 60.183)" fill="#b8b8f1"/>
                      <path id="Caminho_18187" data-name="Caminho 18187" d="M199.752,141.413h-10.07a.745.745,0,0,1-.745-.745v-10.35a.745.745,0,0,1,.745-.745h10.069a.746.746,0,0,1,.745.745v10.349a.746.746,0,0,1-.745.745m-9.324-1.491h8.579v-8.857h-8.579Z" transform="translate(-102.267 -70.135)"/>
                      <path id="Caminho_18188" data-name="Caminho 18188" d="M144.777,177.3a.248.248,0,0,1-.17-.067l-9.852-9.228a.251.251,0,0,1-.078-.179l-.39-36.92a.248.248,0,0,1,.246-.251h0a.249.249,0,0,1,.249.246l.389,36.814,9.774,9.156a.248.248,0,0,1-.17.43" transform="translate(-72.687 -70.722)"/>
                      <path id="Caminho_18189" data-name="Caminho 18189" d="M134.925,263.325a.249.249,0,0,1-.249-.242l-.389-15.1a.25.25,0,1,1,.5-.013l.39,15.1a.249.249,0,0,1-.242.255Z" transform="translate(-72.687 -134.088)"/>
                      <g id="Grupo_18087" data-name="Grupo 18087" transform="translate(25.828 129.012)" opacity="0.129">
                        <g id="Grupo_18086" data-name="Grupo 18086">
                          <g id="Grupo_18085" data-name="Grupo 18085" clip-path="url(#clip-path-11)">
                            <path id="Caminho_18190" data-name="Caminho 18190" d="M125.927,281.63c-2.068.058-4.138.042-6.206,0-6.59-.161-11.85-.316-18.933-.211-3.732.115-11.916.6-17.237.314-8-.368-16.008-.4-24.015-.494-.926.069-2.018-.208-2.733.531a1.759,1.759,0,0,0,1.233,2.977c5.062-.111,10.124-.168,15.186-.313a171.983,171.983,0,0,0,18.659.043c6.142-.191,10.087.239,16.045.132,4.872.037,9.738.236,14.608-.038,1.528-.012,3.057.005,4.584-.086A1.56,1.56,0,0,0,128.911,283c-.124-1.729-1.714-1.469-2.982-1.377" transform="translate(-56.303 -281.242)"/>
                          </g>
                        </g>
                      </g>
                    </g>
                  </g>
                </g>
              </g>
              <g id="Grupo_18104" data-name="Grupo 18104" transform="translate(97.092 10.065)">
                <g id="Grupo_18103" data-name="Grupo 18103" clip-path="url(#clip-path-12)">
                  <g id="Grupo_18102" data-name="Grupo 18102">
                    <g id="Grupo_18101" data-name="Grupo 18101" clip-path="url(#clip-path-12)">
                      <path id="Caminho_18192" data-name="Caminho 18192" d="M32.865,19.886c-1.412-1.093-2.473-1.145-3.642-1.99-.1-1.387-.457-3.762-.616-5.157,1.323-1.184,2.013-1.47,3.162-2.468a1.086,1.086,0,0,0-.234-.558c-.284-.442-.568-.883-.865-1.316A26.16,26.16,0,0,0,26.9,4.025c-1.3,1.2-2.383,2.367-3.461,3.537A18.4,18.4,0,0,0,18.461,6.4a37.785,37.785,0,0,0-.86-4.736,21.5,21.5,0,0,0-6.615,2.018,23.806,23.806,0,0,0,1.248,3.731,37,37,0,0,0-3.7,3.683C7,10.243,5.722,9.835,4.28,9.018a13.753,13.753,0,0,0-2.615,7.524c1.645.211,2.609.144,4.116.252a18.967,18.967,0,0,0,1.451,5.1C6,23.036,5.323,24.051,4.253,24.927A12.463,12.463,0,0,0,8.264,30c1.073-1.138,1.755-1.842,2.732-2.831a21.88,21.88,0,0,0,4.8,1.513,16.5,16.5,0,0,1,.707,3.762,18.337,18.337,0,0,0,7.144-.332,30.8,30.8,0,0,0-.4-4.006,16.536,16.536,0,0,0,3.627-3.555A21.951,21.951,0,0,1,30.4,25.564a14.708,14.708,0,0,0,2.463-5.678M19.382,21.96c-1.044.374-2.091.7-4.8-1.041-1.067-.685-3.367-3.566-.526-7.157a4.25,4.25,0,0,1,3.869-1.6,6.493,6.493,0,0,1,3.387,1.313,4.888,4.888,0,0,1,1.481,4.767,5.411,5.411,0,0,1-3.407,3.716" transform="translate(-1.168 -1.168)" fill="#fff"/>
                      <path id="Caminho_18193" data-name="Caminho 18193" d="M18,31.98a17.229,17.229,0,0,1-2.744-.217.5.5,0,0,1-.414-.435l-.023-.207a15.525,15.525,0,0,0-.573-3.163,21.842,21.842,0,0,1-4.143-1.317l-.156-.061c-.792.8-1.465,1.5-2.495,2.59a.5.5,0,0,1-.658.057,12.939,12.939,0,0,1-4.17-5.276.5.5,0,0,1,.142-.577,13.884,13.884,0,0,0,1.5-1.509c.366-.406.742-.824,1.2-1.268a19.437,19.437,0,0,1-1.3-4.5c-.4-.023-.772-.034-1.133-.046a24.851,24.851,0,0,1-2.61-.183.5.5,0,0,1-.428-.5,14.111,14.111,0,0,1,2.7-7.8.5.5,0,0,1,.655-.154c.709.4,1.372.7,2.074,1.016.579.261,1.175.528,1.814.865a34.906,34.906,0,0,1,2.973-2.948l.263-.242A22.638,22.638,0,0,1,9.336,2.628a.5.5,0,0,1,.256-.555A21.966,21.966,0,0,1,16.36,0a.5.5,0,0,1,.554.371,38.4,38.4,0,0,1,.823,4.4,18.863,18.863,0,0,1,4.4,1.034c1-1.08,2.036-2.193,3.264-3.321a.5.5,0,0,1,.672,0,26.7,26.7,0,0,1,3.843,4.455c.3.434.586.881.864,1.313a1.529,1.529,0,0,1,.322.849.5.5,0,0,1-.171.366,17.747,17.747,0,0,1-1.445,1.116,18.5,18.5,0,0,0-1.52,1.178c.053.442.121.96.192,1.5.141,1.077.3,2.286.377,3.18a8.153,8.153,0,0,0,1.3.656A9.206,9.206,0,0,1,32,18.326a.5.5,0,0,1,.181.494,15.105,15.105,0,0,1-2.546,5.866.5.5,0,0,1-.55.182c-.385-.121-.713-.234-1.019-.34a13.961,13.961,0,0,0-2.145-.6,17.154,17.154,0,0,1-3.283,3.221A11.791,11.791,0,0,1,22.85,29.2c.021.512.043,1.04.124,1.683a.5.5,0,0,1-.377.544A19.9,19.9,0,0,1,18,31.984m-2.214-1.14a17.762,17.762,0,0,0,6.152-.284c-.047-.492-.065-.925-.081-1.317a9.92,9.92,0,0,0-.259-2.181.5.5,0,0,1,.2-.526A16.127,16.127,0,0,0,25.308,23.1a.494.494,0,0,1,.486-.2,14.668,14.668,0,0,1,2.6.7c.2.07.416.144.649.22a14.1,14.1,0,0,0,2.1-4.887,8.755,8.755,0,0,0-1.708-.906,8.214,8.214,0,0,1-1.671-.89.5.5,0,0,1-.2-.365c-.065-.881-.238-2.2-.39-3.363-.086-.657-.167-1.278-.223-1.774a.5.5,0,0,1,.162-.426,18.741,18.741,0,0,1,1.8-1.415c.368-.263.719-.513,1.124-.848-.027-.045-.056-.09-.079-.125-.284-.441-.567-.881-.857-1.3a25.716,25.716,0,0,0-3.366-3.973C24.589,4.622,23.6,5.7,22.641,6.736a.5.5,0,0,1-.543.127,17.856,17.856,0,0,0-4.843-1.131.5.5,0,0,1-.448-.436,37.435,37.435,0,0,0-.742-4.232A21.006,21.006,0,0,0,10.4,2.788a23.4,23.4,0,0,0,1.062,3.1l.071.179a.5.5,0,0,1-.125.546l-.515.474a30.839,30.839,0,0,0-3.138,3.158.5.5,0,0,1-.624.12c-.742-.411-1.433-.722-2.1-1.022-.565-.255-1.146-.516-1.749-.835A13.17,13.17,0,0,0,1,14.935c.78.082,1.41.1,2.071.123.486.016.989.032,1.572.073a.5.5,0,0,1,.457.433,18.327,18.327,0,0,0,1.414,4.96.5.5,0,0,1-.116.558c-.54.5-.971.984-1.389,1.447a17.124,17.124,0,0,1-1.324,1.365,11.944,11.944,0,0,0,3.357,4.269C8,27.15,8.658,26.479,9.476,25.652a.5.5,0,0,1,.532-.113l.463.181a19.113,19.113,0,0,0,4.221,1.3.5.5,0,0,1,.413.343,15.7,15.7,0,0,1,.685,3.476m1.015-9.258a6.954,6.954,0,0,1-3.663-1.414,5.073,5.073,0,0,1-2.054-3.295A5.749,5.749,0,0,1,12.5,12.286a4.726,4.726,0,0,1,4.334-1.78,6.859,6.859,0,0,1,3.634,1.427A5.4,5.4,0,0,1,22.1,17.194a5.872,5.872,0,0,1-3.722,4.065,4.532,4.532,0,0,1-1.575.324M16.2,11.45a3.845,3.845,0,0,0-2.927,1.45,4.8,4.8,0,0,0-1.207,3.808,4.149,4.149,0,0,0,1.612,2.624c2.555,1.64,3.436,1.325,4.369.991a4.937,4.937,0,0,0,3.093-3.366,4.383,4.383,0,0,0-1.323-4.275,5.968,5.968,0,0,0-3.139-1.2,3.087,3.087,0,0,0-.473-.036"/>
                      <g id="Grupo_18097" data-name="Grupo 18097" transform="translate(14.8 28.041)" opacity="0.129">
                        <g id="Grupo_18096" data-name="Grupo 18096">
                          <g id="Grupo_18095" data-name="Grupo 18095" clip-path="url(#clip-path-14)">
                            <path id="Caminho_18194" data-name="Caminho 18194" d="M55.035,94.252c-.026.006-.061.015-.117.032a5.336,5.336,0,0,1-.62.134c-.063.007-.125.016-.188.021a10.66,10.66,0,0,1-2.446-.1,1.607,1.607,0,0,0-1.069.068,1.516,1.516,0,0,0,.181,2.848,12.623,12.623,0,0,0,4.233.154l.5-.083a1.631,1.631,0,1,0-.471-3.076" transform="translate(-49.679 -94.126)"/>
                          </g>
                        </g>
                      </g>
                      <g id="Grupo_18100" data-name="Grupo 18100" transform="translate(26.303 17.561)" opacity="0.129">
                        <g id="Grupo_18099" data-name="Grupo 18099">
                          <g id="Grupo_18098" data-name="Grupo 18098" clip-path="url(#clip-path-15)">
                            <path id="Caminho_18195" data-name="Caminho 18195" d="M93.746,60.174a1.453,1.453,0,0,0-2.888.2c-.032.108-.073.213-.114.318s-.13.279-.188.387a11.151,11.151,0,0,1-1.11,1.672,7.882,7.882,0,0,0-1.028,1.313,1.354,1.354,0,0,0,2.2,1.481,17.453,17.453,0,0,0,2.62-3.6,3.493,3.493,0,0,0,.513-1.774" transform="translate(-88.29 -58.948)"/>
                          </g>
                        </g>
                      </g>
                    </g>
                  </g>
                </g>
              </g>
              <path id="Caminho_18203" data-name="Caminho 18203" d="M2.309,538.051a.533.533,0,0,1-.519-.414,14.328,14.328,0,0,0-1.712-4.25.533.533,0,1,1,.911-.554,15.384,15.384,0,0,1,1.84,4.567.533.533,0,0,1-.52.652" transform="translate(269.827 -375.279)"/>
              <path id="Caminho_18204" data-name="Caminho 18204" d="M20.828,534a.533.533,0,0,1-.532-.5,38.364,38.364,0,0,1,.2-6.546.533.533,0,0,1,1.059.124,37.306,37.306,0,0,0-.193,6.364.533.533,0,0,1-.5.562h-.03" transform="translate(256.073 -371.133)"/>
              <path id="Caminho_18205" data-name="Caminho 18205" d="M36.252,538.532a.533.533,0,0,1-.5-.706,32.279,32.279,0,0,1,2.189-4.97.533.533,0,1,1,.936.511,31.131,31.131,0,0,0-2.116,4.805.533.533,0,0,1-.5.36" transform="translate(245.552 -375.28)"/>
              <g id="Grupo_18124" data-name="Grupo 18124" transform="translate(170.802 24.224)">
                <g id="Grupo_18123" data-name="Grupo 18123" clip-path="url(#clip-path-16)">
                  <g id="Grupo_18122" data-name="Grupo 18122">
                    <g id="Grupo_18121" data-name="Grupo 18121" clip-path="url(#clip-path-16)">
                      <path id="Caminho_18206" data-name="Caminho 18206" d="M9.649,57.18h-.01a.506.506,0,0,1-.495-.516l.9-44.1a.506.506,0,0,1,1.011.021l-.9,44.1a.506.506,0,0,1-.505.5" transform="translate(-6.365 -8.4)"/>
                      <path id="Caminho_18207" data-name="Caminho 18207" d="M53.86,13.81h-.01l-43.434-.917a.506.506,0,0,1-.495-.516.516.516,0,0,1,.516-.5l43.434.917a.506.506,0,0,1-.011,1.011" transform="translate(-6.906 -8.271)"/>
                      <rect id="Retângulo_5135" data-name="Retângulo 5135" width="7.133" height="7.026" transform="translate(0.874 7.636) rotate(-88.168)" fill="#fff"/>
                      <path id="Caminho_18208" data-name="Caminho 18208" d="M8.753,8.366H8.737L1.715,8.142a.506.506,0,0,1-.489-.521l.22-7.13a.506.506,0,0,1,.16-.353A.491.491,0,0,1,1.968,0L8.99.226a.506.506,0,0,1,.49.521l-.221,7.13a.5.5,0,0,1-.5.49m-6.5-1.219,6.011.192.19-6.119L2.441,1.028Z" transform="translate(-0.853)"/>
                      <path id="Caminho_18209" data-name="Caminho 18209" d="M3.084,151.321H3.059a.506.506,0,0,1-.425-.275L.055,146a.506.506,0,0,1,.9-.46l2.179,4.26,2.725-4.227a.506.506,0,1,1,.85.548l-3.2,4.965a.506.506,0,0,1-.425.232" transform="translate(0 -101.119)"/>
                      <path id="Caminho_18210" data-name="Caminho 18210" d="M141.651,11.756a.506.506,0,0,1-.236-.953l4.212-2.221L141.445,5.8a.506.506,0,1,1,.56-.842l4.89,3.25a.506.506,0,0,1-.044.868L141.886,11.7a.508.508,0,0,1-.235.058" transform="translate(-98.248 -3.394)"/>
                      <g id="Grupo_18120" data-name="Grupo 18120" transform="translate(1.138 0.456)" opacity="0.129">
                        <g id="Grupo_18119" data-name="Grupo 18119">
                          <g id="Grupo_18118" data-name="Grupo 18118" clip-path="url(#clip-path-18)">
                            <path id="Caminho_18211" data-name="Caminho 18211" d="M4.116,3.016a1.888,1.888,0,0,0,.94.141q.981.023,1.961.067a22.361,22.361,0,0,0,3.533.08.832.832,0,0,0-.266-1.6c-2,.029-4.041-.329-6.026-.155a.833.833,0,0,0-.143,1.465" transform="translate(-3.743 -1.502)"/>
                          </g>
                        </g>
                      </g>
                    </g>
                  </g>
                </g>
              </g>
            </g>
          </g>
          <g id="Grupo_18126" data-name="Grupo 18126" transform="translate(203.276 115.184)">
            <g id="Grupo_18125" data-name="Grupo 18125" clip-path="url(#clip-path-19)">
              <path id="Caminho_18212" data-name="Caminho 18212" d="M.569,1.35a.57.57,0,0,1,0-1.139L43.544,0h0a.57.57,0,0,1,0,1.139L.572,1.35Z"/>
              <path id="Caminho_18213" data-name="Caminho 18213" d="M.569,6.05A.569.569,0,0,1,0,5.481V1.186a.57.57,0,0,1,1.139,0V5.481a.57.57,0,0,1-.57.569" transform="translate(0 -0.406)"/>
              <path id="Caminho_18214" data-name="Caminho 18214" d="M61.994,6.05a.569.569,0,0,1-.569-.569V1.186a.57.57,0,0,1,1.139,0V5.481a.57.57,0,0,1-.57.569" transform="translate(-40.393 -0.406)"/>
              <path id="Caminho_18215" data-name="Caminho 18215" d="M126.086,6.05a.57.57,0,0,1-.57-.569V1.186a.57.57,0,0,1,1.139,0V5.481a.569.569,0,0,1-.569.569" transform="translate(-82.539 -0.406)"/>
            </g>
          </g>
        </g>
      </g>
    </g>
  </g>
</svg>
