<svg xmlns="http://www.w3.org/2000/svg" xmlns:xlink="http://www.w3.org/1999/xlink" width="312" height="281" viewBox="0 0 312 281">
  <defs>
    <clipPath id="clip-path">
      <rect id="Retângulo_5277" data-name="Retângulo 5277" width="312" height="281" transform="translate(24 115)" fill="#fff" stroke="#707070" stroke-width="1"/>
    </clipPath>
    <clipPath id="clip-path-2">
      <rect id="Retângulo_5163" data-name="Retângulo 5163" width="6.401" height="2.053" fill="none"/>
    </clipPath>
    <clipPath id="clip-path-3">
      <rect id="Retângulo_5164" data-name="Retângulo 5164" width="4.25" height="5.118" fill="none"/>
    </clipPath>
    <clipPath id="clip-path-4">
      <rect id="Retângulo_5172" data-name="Retângulo 5172" width="79.533" height="2.566" fill="none"/>
    </clipPath>
    <clipPath id="clip-path-5">
      <rect id="Retângulo_5176" data-name="Retângulo 5176" width="27.743" height="2.304" fill="none"/>
    </clipPath>
    <clipPath id="clip-path-6">
      <rect id="Retângulo_5177" data-name="Retângulo 5177" width="27.863" height="1.066" fill="none"/>
    </clipPath>
    <clipPath id="clip-path-7">
      <rect id="Retângulo_5178" data-name="Retângulo 5178" width="65.522" height="3.352" fill="none"/>
    </clipPath>
    <clipPath id="clip-path-8">
      <rect id="Retângulo_5179" data-name="Retângulo 5179" width="13.341" height="2.776" fill="none"/>
    </clipPath>
    <clipPath id="clip-path-9">
      <rect id="Retângulo_5183" data-name="Retângulo 5183" width="9.198" height="5.395" fill="none"/>
    </clipPath>
    <clipPath id="clip-path-10">
      <rect id="Retângulo_5184" data-name="Retângulo 5184" width="32.651" height="12.248" fill="none"/>
    </clipPath>
    <clipPath id="clip-path-11">
      <rect id="Retângulo_5213" data-name="Retângulo 5213" width="26.797" height="8.324" fill="none"/>
    </clipPath>
    <clipPath id="clip-path-12">
      <rect id="Retângulo_5237" data-name="Retângulo 5237" width="31.51" height="12.13" fill="none"/>
    </clipPath>
    <clipPath id="clip-path-13">
      <rect id="Retângulo_5242" data-name="Retângulo 5242" width="22.575" height="1.703" fill="none"/>
    </clipPath>
    <clipPath id="clip-path-14">
      <rect id="Retângulo_5243" data-name="Retângulo 5243" width="6.811" height="1.535" fill="none"/>
    </clipPath>
    <clipPath id="clip-path-15">
      <rect id="Retângulo_5244" data-name="Retângulo 5244" width="6.225" height="1.637" fill="none"/>
    </clipPath>
    <clipPath id="clip-path-16">
      <rect id="Retângulo_5245" data-name="Retângulo 5245" width="71.264" height="3.222" fill="none"/>
    </clipPath>
  </defs>
  <g id="Grupo_de_máscara_12" data-name="Grupo de máscara 12" transform="translate(-24 -115)" clip-path="url(#clip-path)">
    <g id="Grupo_18352" data-name="Grupo 18352" transform="translate(5845.724 334.589)">
      <g id="Grupo_18351" data-name="Grupo 18351" transform="translate(-6128 -213.932)">
        <g id="Grupo_18353" data-name="Grupo 18353">
          <g id="Grupo_18349" data-name="Grupo 18349" transform="translate(0 -0.001)">
            <g id="Grupo_18348" data-name="Grupo 18348">
              <g id="Grupo_18154" data-name="Grupo 18154" transform="translate(-21.007 23)">
                <path id="Caminho_18275" data-name="Caminho 18275" d="M1513.653,689.395a.533.533,0,0,1,0-1.066l53.79-.423h0a.533.533,0,0,1,0,1.066l-53.79.423Z" transform="translate(-984.371 -484.391)"/>
                <path id="Caminho_18276" data-name="Caminho 18276" d="M1694.628,676.28c-3.632,2.215-8.627,5.332-11.9,7.329.21-4.151.444-8.248.275-12.988a122.394,122.394,0,0,0,11.627,5.659" transform="translate(-1099.637 -472.644)" fill="#b8b8f1"/>
                <path id="Caminho_18277" data-name="Caminho 18277" d="M1681.6,683.011a.533.533,0,0,1-.532-.56l.036-.716c.195-3.825.4-7.781.238-12.225a.533.533,0,0,1,.8-.482,121.464,121.464,0,0,0,11.572,5.632.532.532,0,0,1,.068.945c-1.861,1.135-4.081,2.507-6.243,3.844-2.057,1.272-4.062,2.512-5.659,3.485a.531.531,0,0,1-.277.078m.836-12.6c.1,4-.075,7.6-.252,11.081,1.427-.875,3.092-1.9,4.792-2.955,1.833-1.133,3.707-2.292,5.37-3.31-3.569-1.556-7.153-3.3-9.91-4.815" transform="translate(-1098.506 -471.513)"/>
                <path id="Caminho_18278" data-name="Caminho 18278" d="M1478.515,675.846c3.632,2.215,8.627,5.332,11.9,7.329-.21-4.152-.444-8.248-.275-12.988a122.392,122.392,0,0,1-11.627,5.659" transform="translate(-960.853 -472.349)" fill="#b8b8f1"/>
                <path id="Caminho_18279" data-name="Caminho 18279" d="M1489.286,682.578a.535.535,0,0,1-.278-.078c-1.591-.971-3.589-2.206-5.639-3.473-2.168-1.341-4.4-2.718-6.262-3.856a.533.533,0,0,1,.068-.945,121.538,121.538,0,0,0,11.573-5.631.533.533,0,0,1,.8.482c-.159,4.442.042,8.4.237,12.222l.036.72a.532.532,0,0,1-.532.56m-10.746-7.78c1.668,1.022,3.55,2.185,5.389,3.322,1.693,1.047,3.351,2.072,4.773,2.943-.177-3.485-.352-7.086-.252-11.081-2.759,1.519-6.342,3.261-9.91,4.815" transform="translate(-959.723 -471.219)"/>
                <path id="Caminho_18280" data-name="Caminho 18280" d="M1628.057,685.3h0a.532.532,0,0,1-.529-.537l.047-6.556a.533.533,0,0,1,.533-.529h0a.533.533,0,0,1,.529.537l-.047,6.556a.533.533,0,0,1-.533.529" transform="translate(-1062.122 -477.438)"/>
                <path id="Caminho_18281" data-name="Caminho 18281" d="M1571.22,685.3h0a.533.533,0,0,1-.529-.537l.047-6.556a.533.533,0,0,1,.533-.529h0a.533.533,0,0,1,.529.537l-.047,6.556a.533.533,0,0,1-.533.529" transform="translate(-1023.494 -477.438)"/>
              </g>
              <path id="Caminho_18307" data-name="Caminho 18307" d="M916.191,261.128c-1.171-.906-2.049-.949-3.018-1.649-.085-1.15-.379-3.118-.51-4.273,1.1-.981,1.668-1.218,2.62-2.045a.9.9,0,0,0-.194-.462c-.235-.366-.471-.732-.717-1.09a21.683,21.683,0,0,0-3.126-3.622c-1.081.992-1.974,1.961-2.868,2.931a15.243,15.243,0,0,0-4.124-.963,31.264,31.264,0,0,0-.713-3.924,17.814,17.814,0,0,0-5.481,1.672,19.746,19.746,0,0,0,1.034,3.092,30.667,30.667,0,0,0-3.067,3.052c-1.275-.707-2.33-1.045-3.525-1.722a11.4,11.4,0,0,0-2.167,6.235c1.363.175,2.162.119,3.41.209a15.719,15.719,0,0,0,1.2,4.221c-1.015.95-1.579,1.791-2.466,2.517a10.329,10.329,0,0,0,3.323,4.2c.889-.943,1.454-1.526,2.264-2.346a18.139,18.139,0,0,0,3.98,1.254,13.66,13.66,0,0,1,.586,3.117,15.193,15.193,0,0,0,5.919-.276,25.528,25.528,0,0,0-.333-3.319,13.714,13.714,0,0,0,3.005-2.946,18.166,18.166,0,0,1,2.922.84,12.193,12.193,0,0,0,2.04-4.7m-11.172,1.719c-.865.31-1.732.581-3.98-.862-.884-.568-2.79-2.955-.436-5.93a3.522,3.522,0,0,1,3.206-1.324,5.38,5.38,0,0,1,2.806,1.088,4.05,4.05,0,0,1,1.227,3.95,4.484,4.484,0,0,1-2.823,3.079" transform="translate(-581.844 -165.878)" fill="#b8b8f1"/>
              <path id="Caminho_18308" data-name="Caminho 18308" d="M903.592,270.863a14.261,14.261,0,0,1-2.273-.18.41.41,0,0,1-.343-.36l-.019-.171a12.845,12.845,0,0,0-.475-2.621,18.082,18.082,0,0,1-3.435-1.092l-.127-.05c-.751.762-1.3,1.328-2.067,2.146a.411.411,0,0,1-.545.047,10.724,10.724,0,0,1-3.455-4.371.411.411,0,0,1,.118-.478,11.528,11.528,0,0,0,1.246-1.25c.3-.337.615-.683.992-1.051a16.11,16.11,0,0,1-1.075-3.732c-.334-.018-.64-.028-.939-.038a20.587,20.587,0,0,1-2.162-.152.411.411,0,0,1-.359-.409,11.693,11.693,0,0,1,2.237-6.463.41.41,0,0,1,.543-.128c.588.333,1.137.58,1.718.842.48.216.974.438,1.5.717a28.874,28.874,0,0,1,2.465-2.444l.216-.2a18.8,18.8,0,0,1-.948-2.886.411.411,0,0,1,.212-.46,18.211,18.211,0,0,1,5.608-1.713.409.409,0,0,1,.459.307,31.805,31.805,0,0,1,.682,3.647,15.652,15.652,0,0,1,3.641.857c.826-.9,1.688-1.818,2.7-2.751a.411.411,0,0,1,.557,0,22.128,22.128,0,0,1,3.185,3.692c.251.367.491.74.724,1.1a1.244,1.244,0,0,1,.259.692.409.409,0,0,1-.141.3,14.7,14.7,0,0,1-1.2.925,15.271,15.271,0,0,0-1.259.976c.044.367.1.8.159,1.248.117.892.248,1.892.312,2.632a6.769,6.769,0,0,0,1.075.543,7.639,7.639,0,0,1,1.8,1.009.41.41,0,0,1,.151.409,12.516,12.516,0,0,1-2.109,4.861.409.409,0,0,1-.456.151c-.319-.1-.591-.194-.845-.282a11.55,11.55,0,0,0-1.777-.5,14.2,14.2,0,0,1-2.72,2.669,9.761,9.761,0,0,1,.176,1.7c.018.424.036.862.1,1.394a.411.411,0,0,1-.313.45,16.5,16.5,0,0,1-3.806.461m-1.834-.944a14.716,14.716,0,0,0,5.1-.236c-.039-.408-.054-.766-.068-1.091a8.212,8.212,0,0,0-.215-1.808.411.411,0,0,1,.162-.436,13.346,13.346,0,0,0,2.909-2.852.407.407,0,0,1,.4-.163,12.133,12.133,0,0,1,2.152.578c.169.058.345.119.538.183a11.673,11.673,0,0,0,1.744-4.049,7.238,7.238,0,0,0-1.416-.751,6.807,6.807,0,0,1-1.384-.737.41.41,0,0,1-.169-.3c-.054-.73-.2-1.821-.323-2.784-.071-.545-.139-1.061-.186-1.474a.411.411,0,0,1,.134-.353,15.541,15.541,0,0,1,1.489-1.173c.305-.218.6-.425.931-.7-.022-.037-.047-.074-.065-.1-.229-.356-.466-.723-.71-1.08a21.335,21.335,0,0,0-2.789-3.292c-.948.894-1.769,1.783-2.564,2.646a.412.412,0,0,1-.45.1,14.8,14.8,0,0,0-4.012-.937.411.411,0,0,1-.371-.361,31.128,31.128,0,0,0-.615-3.507,17.4,17.4,0,0,0-4.694,1.429,19.41,19.41,0,0,0,.881,2.573l.058.146a.41.41,0,0,1-.1.453l-.426.391a25.539,25.539,0,0,0-2.6,2.618.411.411,0,0,1-.518.1c-.615-.341-1.188-.6-1.742-.848-.468-.211-.949-.427-1.448-.691a10.915,10.915,0,0,0-1.881,5.329c.646.068,1.168.085,1.716.1.4.013.82.026,1.3.06a.411.411,0,0,1,.378.359,15.217,15.217,0,0,0,1.172,4.109.41.41,0,0,1-.1.462c-.448.419-.8.816-1.151,1.2a14.253,14.253,0,0,1-1.1,1.131,9.894,9.894,0,0,0,2.781,3.537c.707-.747,1.246-1.3,2.015-2.081a.41.41,0,0,1,.441-.094l.381.149a15.819,15.819,0,0,0,3.5,1.079.411.411,0,0,1,.343.284,12.977,12.977,0,0,1,.568,2.881m.842-7.672a5.767,5.767,0,0,1-3.036-1.172,4.2,4.2,0,0,1-1.7-2.73,4.763,4.763,0,0,1,1.167-3.8,3.918,3.918,0,0,1,3.591-1.475,5.686,5.686,0,0,1,3.011,1.182,4.473,4.473,0,0,1,1.358,4.359,4.866,4.866,0,0,1-3.084,3.368,3.754,3.754,0,0,1-1.305.268m1.167-.655h0Zm-1.665-7.741a3.186,3.186,0,0,0-2.429,1.2,3.982,3.982,0,0,0-1,3.156,3.437,3.437,0,0,0,1.336,2.174c2.117,1.36,2.847,1.1,3.62.822a4.092,4.092,0,0,0,2.563-2.789,3.633,3.633,0,0,0-1.1-3.542,4.95,4.95,0,0,0-2.6-.993,2.586,2.586,0,0,0-.392-.03" transform="translate(-580.592 -164.624)"/>
              <g id="Grupo_18163" data-name="Grupo 18163" transform="translate(320.345 103.747)" opacity="0.129">
                <g id="Grupo_18162" data-name="Grupo 18162" transform="translate(0 0)">
                  <g id="Grupo_18161" data-name="Grupo 18161" clip-path="url(#clip-path-2)">
                    <path id="Caminho_18309" data-name="Caminho 18309" d="M942.792,341.7l-.1.019c-.135.032-.375.064-.514.081-.052,0-.1.01-.156.013a12.138,12.138,0,0,1-2.027-.059,1.8,1.8,0,0,0-.886.041c-1.092.29-.971,1.513.15,1.714a14.308,14.308,0,0,0,3.508.093l.412-.05a1.518,1.518,0,0,0,1.455-.595c.515-.865-.765-1.572-1.845-1.257" transform="translate(-938.354 -341.619)"/>
                  </g>
                </g>
              </g>
              <g id="Grupo_18166" data-name="Grupo 18166" transform="translate(330.252 94.805)" opacity="0.129">
                <g id="Grupo_18165" data-name="Grupo 18165" transform="translate(0 0)">
                  <g id="Grupo_18164" data-name="Grupo 18164" clip-path="url(#clip-path-3)">
                    <path id="Caminho_18310" data-name="Caminho 18310" d="M982.632,305.9c-1.442-1.682-2.247,1.313-3.085,2.48-.268.373-.875.666-1.058,1.088-.087.25,1.593,1.1,1.949,1.047a13.912,13.912,0,0,0,1.769-3.145c.182-.465.765-1.073.425-1.47" transform="translate(-978.487 -305.397)"/>
                  </g>
                </g>
              </g>
              <rect id="Retângulo_5171" data-name="Retângulo 5171" width="79.14" height="17.055" transform="translate(324.557 14.184)" fill="#fff"/>
              <path id="Caminho_18337" data-name="Caminho 18337" d="M1091.022,60.726h-79.14a.533.533,0,0,1-.533-.533V43.138a.533.533,0,0,1,.533-.533h79.14a.533.533,0,0,1,.533.533V60.193a.533.533,0,0,1-.533.533m-78.607-1.066h78.074V43.671h-78.074Z" transform="translate(-687.325 -28.954)"/>
              <path id="Caminho_18338" data-name="Caminho 18338" d="M1074.263,90.429a.178.178,0,0,1-.177-.173l-.084-3.24a.178.178,0,0,1,.173-.182.174.174,0,0,1,.182.173l.084,3.24a.178.178,0,0,1-.173.182Z" transform="translate(-729.905 -59.012)"/>
              <path id="Caminho_18339" data-name="Caminho 18339" d="M1043.07,90.429a.177.177,0,0,1-.177-.173l-.084-3.24a.178.178,0,0,1,.355-.009l.084,3.24a.178.178,0,0,1-.173.182Z" transform="translate(-708.705 -59.012)"/>
              <path id="Caminho_18340" data-name="Caminho 18340" d="M1136.65,90.429a.178.178,0,0,1-.177-.173l-.084-3.24a.178.178,0,0,1,.173-.182.174.174,0,0,1,.182.173l.084,3.24a.178.178,0,0,1-.173.182Z" transform="translate(-772.304 -59.012)"/>
              <path id="Caminho_18341" data-name="Caminho 18341" d="M1105.456,90.429a.177.177,0,0,1-.177-.173l-.084-3.24a.178.178,0,0,1,.355-.009l.084,3.24a.178.178,0,0,1-.173.182Z" transform="translate(-751.104 -59.012)"/>
              <path id="Caminho_18342" data-name="Caminho 18342" d="M1167.843,90.429a.178.178,0,0,1-.177-.173l-.084-3.24a.178.178,0,0,1,.355-.009l.084,3.24a.178.178,0,0,1-.173.182Z" transform="translate(-793.503 -59.012)"/>
              <path id="Caminho_18343" data-name="Caminho 18343" d="M1230.23,90.429a.178.178,0,0,1-.178-.173l-.084-3.24a.178.178,0,1,1,.355-.009l.084,3.24a.178.178,0,0,1-.173.182Z" transform="translate(-835.902 -59.012)"/>
              <path id="Caminho_18344" data-name="Caminho 18344" d="M1199.037,90.429a.178.178,0,0,1-.177-.173l-.084-3.24a.178.178,0,0,1,.173-.182.174.174,0,0,1,.182.173l.084,3.24a.178.178,0,0,1-.173.182Z" transform="translate(-814.703 -59.012)"/>
              <path id="Caminho_18345" data-name="Caminho 18345" d="M1027.957,61.28a.177.177,0,0,1-.177-.177l-.039-16.779a.178.178,0,0,1,.177-.178h0a.177.177,0,0,1,.177.177l.039,16.779a.177.177,0,0,1-.177.178Z" transform="translate(-698.465 -30.001)"/>
              <g id="Grupo_18175" data-name="Grupo 18175" transform="translate(324.511 28.778)" opacity="0.129">
                <g id="Grupo_18174" data-name="Grupo 18174">
                  <g id="Grupo_18173" data-name="Grupo 18173" clip-path="url(#clip-path-4)">
                    <path id="Caminho_18346" data-name="Caminho 18346" d="M1092.4,91.986c-.073-.722-.131-1.444-.181-2.167-.166.012-.327.024-.469.022-1.151.044-2.3.073-3.454.116-5.913.179-11.827.293-17.742.4-3.587-.051-7.173-.124-10.76-.246-8.916-.1-17.836,0-26.751.2-1.908-.1-3.817-.191-5.727-.233-3.687-.166-7.376.082-11.064.035-.789,0-1.577-.051-2.365-.086a.945.945,0,0,0-.808.21.762.762,0,0,0,.122,1.152.733.733,0,0,0,.73.661c5.385.2,10.769,0,16.152-.182.95-.027,1.9-.047,2.85-.07,4,.207,8,.462,12,.58,5.791.035,11.577-.3,17.367-.383q3.982-.083,7.965-.151c6.291.082,12.582.085,18.872.2,1.087.025,2.174.06,3.261.069,0-.043,0-.086,0-.129" transform="translate(-1012.87 -89.819)"/>
                  </g>
                </g>
              </g>
              <g id="Grupo_18188" data-name="Grupo 18188" transform="translate(-12.123 0.246)">
                <path id="Caminho_18356" data-name="Caminho 18356" d="M1185.434,932.182h0l-13.644-.039a.443.443,0,0,1,0-.885h0l13.644.039a.443.443,0,0,1,0,.885" transform="translate(-807.564 -671.442)"/>
                <path id="Caminho_18357" data-name="Caminho 18357" d="M1083.274,855.2h-27.519a.443.443,0,0,1-.443-.443V825.592a.443.443,0,0,1,.443-.443h27.519a.443.443,0,0,1,.443.443v29.164a.443.443,0,0,1-.443.443m-27.076-.885h26.634V826.034H1056.2Z" transform="translate(-722.402 -593.566)"/>
                <path id="Caminho_18358" data-name="Caminho 18358" d="M1054.539,766.8l-19.631,19.829h39.262Z" transform="translate(-707.426 -550.74)" fill="#fff"/>
                <path id="Caminho_18359" data-name="Caminho 18359" d="M1072.948,785.863h-39.261a.443.443,0,0,1-.315-.754L1053,765.28a.456.456,0,0,1,.629,0l19.631,19.829a.443.443,0,0,1-.315.754m-38.2-.885h37.14l-18.57-18.757Z" transform="translate(-706.205 -549.534)"/>
                <rect id="Retângulo_5175" data-name="Retângulo 5175" width="7.716" height="6.996" transform="translate(343.254 242.212)" fill="#b8b8f1"/>
                <path id="Caminho_18360" data-name="Caminho 18360" d="M1100.685,871.315h-7.716a.443.443,0,0,1-.443-.443v-7a.443.443,0,0,1,.443-.443h7.716a.443.443,0,0,1,.443.443v7a.443.443,0,0,1-.443.443m-7.274-.885h6.831v-6.111h-6.831Z" transform="translate(-749.714 -621.664)"/>
                <path id="Caminho_18361" data-name="Caminho 18361" d="M1084.579,922.236h0c-9.07-.114-18.268-.177-27.339-.188a.147.147,0,1,1,0-.295c9.073.01,18.272.073,27.343.188a.148.148,0,0,1,0,.3" transform="translate(-723.706 -664.467)"/>
                <path id="Caminho_18362" data-name="Caminho 18362" d="M1154.834,765.995h0l-24.737-.028a.443.443,0,1,1,0-.885h0l24.737.028a.443.443,0,0,1,0,.885" transform="translate(-776.964 -549.48)"/>
                <g id="Grupo_18181" data-name="Grupo 18181" transform="translate(333.429 236.024)" opacity="0.129">
                  <g id="Grupo_18180" data-name="Grupo 18180">
                    <g id="Grupo_18179" data-name="Grupo 18179" clip-path="url(#clip-path-5)">
                      <path id="Caminho_18363" data-name="Caminho 18363" d="M1084.776,842.042a1.19,1.19,0,0,0-.552-.056c-.379,0-.757-.006-1.136-.008-1.525-.008-3.05.009-4.575.031-3.555,0-7.11-.045-10.665.043-3.115.045-6.23-.111-9.344-.15-.162-.006-.47-.035-.536-.04a.562.562,0,0,0-.408.037.42.42,0,0,0-.15.618.821.821,0,0,0,.656,1.3c3.062.29,7.743.339,11.58.322,4.363-.058,8.731-.249,13.093-.086a5.169,5.169,0,0,0,1.425-.081.839.839,0,0,0,.491-1,1.113,1.113,0,0,0-.053-.144c.039,0,.079-.006.118-.011a.423.423,0,0,0,.056-.777" transform="translate(-1057.263 -841.84)"/>
                    </g>
                  </g>
                </g>
                <g id="Grupo_18184" data-name="Grupo 18184" transform="translate(333.383 260.036)" opacity="0.129">
                  <g id="Grupo_18183" data-name="Grupo 18183">
                    <g id="Grupo_18182" data-name="Grupo 18182" clip-path="url(#clip-path-6)">
                      <path id="Caminho_18364" data-name="Caminho 18364" d="M1084.836,932.21c-.248-.2-.718-.087-1.034-.123-5.393.062-10.787.181-16.182.174-3.03.009-6.06-.162-9.089-.064-.323.012-.646.037-.967.078a.492.492,0,0,0-.408.217.452.452,0,0,0,.537.642c3.144-.246,7.7.063,11.329,0,5.178,0,10.353-.151,15.527-.287a.372.372,0,0,0,.286-.636" transform="translate(-1057.091 -932.088)"/>
                    </g>
                  </g>
                </g>
                <path id="Caminho_18365" data-name="Caminho 18365" d="M1242.781,701.9l1.177,69.778,65.482-.165Zm11.722,29.781,24.728,25.235-23.97.052Z" transform="translate(-859.992 -503.111)" fill="#fff"/>
                <path id="Caminho_18366" data-name="Caminho 18366" d="M1242.737,770.9a.443.443,0,0,1-.443-.435l-1.177-69.778a.442.442,0,0,1,.762-.313l66.659,69.612a.442.442,0,0,1-.318.749l-65.482.165Zm-.715-69.1,1.151,68.212,64.013-.162Zm12.018,54.389a.443.443,0,0,1-.442-.43l-.758-25.287a.442.442,0,0,1,.759-.323l24.728,25.235a.443.443,0,0,1-.315.753l-23.97.052Zm-.281-24.611.711,23.725,22.49-.049Z" transform="translate(-858.77 -501.89)"/>
                <path id="Caminho_18367" data-name="Caminho 18367" d="M1244.082,764.253a.148.148,0,0,1-.011-.295l2.977-.224a.151.151,0,0,1,.158.136.147.147,0,0,1-.136.158l-2.978.224h-.011" transform="translate(-860.838 -548.491)"/>
                <path id="Caminho_18368" data-name="Caminho 18368" d="M1246.375,844.51a.148.148,0,0,1-.011-.295l2.977-.224a.15.15,0,0,1,.158.137.148.148,0,0,1-.136.158l-2.977.224h-.011" transform="translate(-862.521 -607.394)"/>
                <path id="Caminho_18369" data-name="Caminho 18369" d="M1245.229,804.381a.148.148,0,0,1-.011-.295l2.978-.223a.148.148,0,0,1,.022.295l-2.977.223h-.011" transform="translate(-861.68 -577.943)"/>
                <path id="Caminho_18370" data-name="Caminho 18370" d="M1247.521,884.638a.148.148,0,0,1-.011-.295l2.977-.224a.148.148,0,1,1,.022.294l-2.977.224h-.011" transform="translate(-863.362 -636.846)"/>
                <path id="Caminho_18371" data-name="Caminho 18371" d="M1248.667,924.768a.148.148,0,0,1-.011-.295l2.977-.223a.15.15,0,0,1,.158.136.148.148,0,0,1-.136.158l-2.978.224h-.011" transform="translate(-864.203 -666.299)"/>
                <g id="Grupo_18187" data-name="Grupo 18187" transform="translate(383.771 265.559)" opacity="0.129">
                  <g id="Grupo_18186" data-name="Grupo 18186">
                    <g id="Grupo_18185" data-name="Grupo 18185" clip-path="url(#clip-path-7)">
                      <path id="Caminho_18372" data-name="Caminho 18372" d="M1311.232,954.7c-.451-.484-.877-1-1.289-1.529-1.195.007-2.389.067-3.583.091-3.432.049-6.865.124-10.3.122-3.463-.039-6.92-.348-10.381-.468-5.568-.2-11.136.088-16.7.19-3.1.163-6.2.248-9.305.135-2.71-.112-5.417-.333-8.131-.308q-1.713,0-3.424.125c-.468.077-1.01-.026-1.366.435-.606.721-.158,2.131.692,2.1,3.765-.445,7.549-.046,11.322-.251L1260,955.3c-.05.4.174.859.546.841,16.936-.668,33.888.5,50.826-.162a.679.679,0,0,0,.621-.485q-.389-.387-.762-.8" transform="translate(-1246.472 -952.844)"/>
                    </g>
                  </g>
                </g>
              </g>
              <path id="Caminho_18373" data-name="Caminho 18373" d="M1786.824,385.231l-.182-8.544-13.307.355-.279,71.921,12.965.563v-7.594s29.445-2.284,29.445-26.713c1.027-27.664-28.641-29.988-28.641-29.988m-.711,43.456-.093-30.4s18.118.918,18.118,14.995c0,15.4-18.025,15.4-18.025,15.4" transform="translate(-1204.991 -256)" fill="#fff"/>
              <path id="Caminho_18374" data-name="Caminho 18374" d="M1784.89,448.929h-.023l-12.965-.563a.533.533,0,0,1-.51-.535l.279-71.921a.532.532,0,0,1,.519-.53l13.307-.355a.519.519,0,0,1,.382.146.535.535,0,0,1,.165.375l.171,8.072a40.986,40.986,0,0,1,14.441,4.637c6.781,3.758,14.751,11.294,14.21,25.855,0,10.185-5.193,18.137-15.02,22.975a45.814,45.814,0,0,1-14.425,4.2V448.4a.532.532,0,0,1-.533.533m-12.43-1.606,11.9.516V440.8a.533.533,0,0,1,.492-.531,45.119,45.119,0,0,0,14.555-4.156c9.553-4.714,14.4-12.124,14.4-22.025.418-11.276-4.178-19.647-13.661-24.9a40.153,40.153,0,0,0-14.489-4.555.532.532,0,0,1-.491-.52l-.17-8.008-12.254.327Zm12.522-19.234a.533.533,0,0,1-.533-.531l-.093-30.4a.533.533,0,0,1,.56-.534c.186.01,18.624,1.111,18.624,15.527,0,15.748-18.373,15.935-18.558,15.935m.442-30.35.089,29.266a25.526,25.526,0,0,0,8.3-1.877c5.747-2.467,8.661-6.831,8.661-12.973,0-12.038-14.042-14.11-17.05-14.415" transform="translate(-1203.86 -254.87)"/>
              <path id="Caminho_18375" data-name="Caminho 18375" d="M1773.895,433.209a.178.178,0,0,1,0-.355l3.24-.078a.178.178,0,0,1,.008.356l-3.24.078Z" transform="translate(-1205.44 -294.119)"/>
              <path id="Caminho_18376" data-name="Caminho 18376" d="M1773.895,404.334a.178.178,0,0,1,0-.355l3.24-.078a.17.17,0,0,1,.182.174.178.178,0,0,1-.173.182l-3.24.078Z" transform="translate(-1205.44 -274.495)"/>
              <path id="Caminho_18377" data-name="Caminho 18377" d="M1773.895,490.953a.178.178,0,0,1,0-.355l3.24-.078a.178.178,0,0,1,.009.355l-3.24.078Z" transform="translate(-1205.44 -333.362)"/>
              <path id="Caminho_18378" data-name="Caminho 18378" d="M1773.895,462.081a.178.178,0,0,1,0-.355l3.24-.078a.175.175,0,0,1,.182.174.178.178,0,0,1-.173.182l-3.24.078Z" transform="translate(-1205.44 -313.741)"/>
              <path id="Caminho_18379" data-name="Caminho 18379" d="M1773.895,519.823a.178.178,0,0,1,0-.355l3.24-.078a.172.172,0,0,1,.182.173.178.178,0,0,1-.173.182l-3.24.078Z" transform="translate(-1205.44 -352.982)"/>
              <path id="Caminho_18380" data-name="Caminho 18380" d="M1773.895,577.571a.178.178,0,0,1,0-.355l3.24-.078a.171.171,0,0,1,.182.174.177.177,0,0,1-.173.182l-3.24.078Z" transform="translate(-1205.44 -392.229)"/>
              <path id="Caminho_18381" data-name="Caminho 18381" d="M1773.895,548.7a.178.178,0,0,1,0-.355l3.24-.078a.168.168,0,0,1,.182.173.178.178,0,0,1-.173.182l-3.24.078Z" transform="translate(-1205.44 -372.606)"/>
              <g id="Grupo_18191" data-name="Grupo 18191" transform="translate(567.654 190.57)" opacity="0.129">
                <g id="Grupo_18190" data-name="Grupo 18190">
                  <g id="Grupo_18189" data-name="Grupo 18189" clip-path="url(#clip-path-8)">
                    <path id="Caminho_18382" data-name="Caminho 18382" d="M1784.213,595.729c-1.687.084-2.821-.059-4.871-.079-2.387.014-3.892-.633-6.588-.844a1.15,1.15,0,0,0-.153,2.242,30.02,30.02,0,0,0,5.82.456c1.438.062,2.877.106,4.315.056a7.273,7.273,0,0,0,1.826-.094.907.907,0,0,0-.35-1.737" transform="translate(-1771.771 -594.806)"/>
                  </g>
                </g>
              </g>
              <path id="Caminho_18394" data-name="Caminho 18394" d="M1801.641,62.242a16.265,16.265,0,0,0-16.106,5.268,19.858,19.858,0,0,0-4.072,16.776c1.38,6.655,7.737,11.735,12.642,12.339,7.969.981,14.5-2.857,16.538-5.324a19.373,19.373,0,0,0,4.056-16.555c-1.387-5.725-6.005-10.6-13.058-12.505" transform="translate(-1210.416 -41.971)" fill="#fff"/>
              <path id="Caminho_18395" data-name="Caminho 18395" d="M1795.513,96.181a21.229,21.229,0,0,1-2.6-.159c-5.181-.638-11.681-5.917-13.1-12.76a20.485,20.485,0,0,1,4.19-17.232,16.745,16.745,0,0,1,16.65-5.435c6.911,1.871,11.934,6.691,13.437,12.894a19.967,19.967,0,0,1-4.163,17.019c-2.1,2.545-7.722,5.672-14.418,5.672m1.279-35.025a16.051,16.051,0,0,0-11.976,5.57,19.4,19.4,0,0,0-3.955,16.32c1.326,6.4,7.372,11.326,12.186,11.918,8.116,1,14.325-3.027,16.062-5.134a18.884,18.884,0,0,0,3.949-16.09c-1.409-5.82-6.149-10.349-12.679-12.116a13.71,13.71,0,0,0-3.586-.469" transform="translate(-1209.294 -40.838)"/>
              <path id="Caminho_18396" data-name="Caminho 18396" d="M1825.516,85.218a5.308,5.308,0,0,0-4.068,1.71,4.287,4.287,0,0,0-.925,3.981,4.145,4.145,0,0,0,1.367,2.062,4.93,4.93,0,0,0,5.1.482,4.441,4.441,0,0,0,2.478-4.129,4.314,4.314,0,0,0-3.947-4.107" transform="translate(-1237.142 -57.913)" fill="#fff"/>
              <path id="Caminho_18397" data-name="Caminho 18397" d="M1823.7,93.341a5.249,5.249,0,0,1-3.277-1.087,4.707,4.707,0,0,1-1.543-2.329,4.83,4.83,0,0,1,1.036-4.481,5.822,5.822,0,0,1,4.483-1.89,4.855,4.855,0,0,1,4.464,4.608,4.966,4.966,0,0,1-2.772,4.637,5.389,5.389,0,0,1-2.392.542m.537-8.724a4.764,4.764,0,0,0-3.52,1.53,3.756,3.756,0,0,0-.813,3.482,3.628,3.628,0,0,0,1.19,1.8,4.38,4.38,0,0,0,4.522.419,3.888,3.888,0,0,0,2.183-3.621,3.793,3.793,0,0,0-3.43-3.605l-.132,0" transform="translate(-1236.013 -56.781)"/>
              <path id="Caminho_18398" data-name="Caminho 18398" d="M1818.512,124.6c5.944,0,7.324-1.944,7.53-2.13-.474-2.3-1.343-5.243-2.839-6.716a6.467,6.467,0,0,0-4.321-2.006,4.775,4.775,0,0,0-2.727.632c-2.868,1.964-4.235,5.426-4.875,7.945,1.02.684,2.637,2.274,7.233,2.274" transform="translate(-1230.968 -77.305)" fill="#b8b8f1"/>
              <path id="Caminho_18399" data-name="Caminho 18399" d="M1817.381,124.006c-4.25,0-6.081-1.323-7.174-2.114-.128-.092-.245-.177-.355-.251a.532.532,0,0,1-.219-.574c.67-2.634,2.1-6.2,5.091-8.254a5.194,5.194,0,0,1,3.035-.725,6.934,6.934,0,0,1,4.688,2.159c1.6,1.577,2.508,4.67,2.987,6.988a.534.534,0,0,1-.165.5l-.028.03c-1.73,1.848-5.229,2.236-7.859,2.236m-6.623-3.03.073.053c.989.715,2.644,1.911,6.55,1.911,3.295,0,5.75-.626,6.95-1.767-.641-2.971-1.549-5.1-2.632-6.166a6.011,6.011,0,0,0-3.954-1.853,4.158,4.158,0,0,0-2.419.539c-2.591,1.774-3.908,4.87-4.567,7.283" transform="translate(-1229.837 -76.176)"/>
              <g id="Grupo_18203" data-name="Grupo 18203" transform="translate(583.013 32.245)" opacity="0.129">
                <g id="Grupo_18202" data-name="Grupo 18202">
                  <g id="Grupo_18201" data-name="Grupo 18201" clip-path="url(#clip-path-9)">
                    <path id="Caminho_18400" data-name="Caminho 18400" d="M1826.014,104.892c-.519.112-.74-.671-.22-.8a4.7,4.7,0,0,0,1.433-.563,3.518,3.518,0,0,0,.949-.9,8.57,8.57,0,0,0,.73-1.239.682.682,0,0,0-.819.12c-1.227,1.681-3.877,1.591-4.506,1.5a4.741,4.741,0,0,1-1.663-.611,5.071,5.071,0,0,1-1.592-1.242,1.889,1.889,0,0,0-.62-.521c.152.321.277.656.414.99s.274.675.412,1.012c.008.012.015.025.023.037a5.2,5.2,0,0,0,.782.913,9.08,9.08,0,0,0,.843.644c.084-.031.17-.058.256-.083a1.335,1.335,0,0,1,.146-.034.616.616,0,0,1,.253,0,.372.372,0,0,1,.2.114.42.42,0,0,1,.109.264.4.4,0,0,1-.109.264.383.383,0,0,1-.246.124h0l-.009,0h0a1.976,1.976,0,0,0-.3.087.488.488,0,0,1-.178.2.783.783,0,0,0,.78.843c.734.01,1.47.046,2.2.013.3-.031.652,0,.879-.242a.711.711,0,0,0,.059-.936l-.216.049" transform="translate(-1819.707 -100.64)"/>
                  </g>
                </g>
              </g>
              <g id="Grupo_18206" data-name="Grupo 18206" transform="translate(570.624 42.914)" opacity="0.129">
                <g id="Grupo_18205" data-name="Grupo 18205">
                  <g id="Grupo_18204" data-name="Grupo 18204" clip-path="url(#clip-path-10)">
                    <path id="Caminho_18401" data-name="Caminho 18401" d="M1802.676,145.314a20.187,20.187,0,0,0,7.072-3.885,10.98,10.98,0,0,0,2.635-2.862c.467-.777.894-1.583,1.309-2.39a.883.883,0,0,0-.706.261,25,25,0,0,1-4.085,3.79,14.715,14.715,0,0,1-5.427,2.782c-3.066,1.005-5.1,1.516-8.093,1.247a14.585,14.585,0,0,1-3.127-.63,18.965,18.965,0,0,1-2.36-1.1c-.979-.56-1.924-1.177-2.839-1.83a11.679,11.679,0,0,1-1.483-1.346,19.055,19.055,0,0,1-2.066-2.024c-.033-.041-.021-.026.035.044-.444-.51-1.032-1.474-1.4-1.836a1.208,1.208,0,0,0-1.1-1.6,23.548,23.548,0,0,0,1.324,3.288c.1.2.207.4.317.6q.41.679.831,1.352a20.408,20.408,0,0,0,2.954,3.433,23,23,0,0,0,3.435,2.09,11.383,11.383,0,0,0,3.276,1.123,19.421,19.421,0,0,0,6.059.224c1.054-.14,2.12-.307,3.166-.543a.476.476,0,0,1,.274-.192" transform="translate(-1781.04 -133.939)"/>
                  </g>
                </g>
              </g>
              <path id="Caminho_18402" data-name="Caminho 18402" d="M1671.38,240.309a.533.533,0,0,1-.092-1.058c1.4-.247,2.8-.528,4.156-.835a.533.533,0,1,1,.234,1.04c-1.374.31-2.789.594-4.2.845a.546.546,0,0,1-.094.008m8.315-1.882a.533.533,0,0,1-.143-1.046c1.37-.383,2.732-.8,4.047-1.247a.533.533,0,0,1,.342,1.01c-1.333.45-2.713.876-4.1,1.263a.528.528,0,0,1-.143.02m8.073-2.734a.533.533,0,0,1-.2-1.027c1.317-.531,2.62-1.1,3.873-1.7a.533.533,0,0,1,.459.962c-1.273.607-2.6,1.189-3.933,1.728a.534.534,0,0,1-.2.039m7.688-3.676a.533.533,0,0,1-.261-1c1.235-.693,2.449-1.432,3.609-2.2a.533.533,0,0,1,.586.89c-1.181.778-2.417,1.53-3.674,2.235a.533.533,0,0,1-.26.068m7.112-4.691a.533.533,0,0,1-.326-.955c.468-.361.936-.735,1.39-1.11.625-.516,1.245-1.055,1.843-1.6a.533.533,0,0,1,.719.788c-.611.557-1.245,1.108-1.883,1.635-.463.383-.939.763-1.417,1.132a.53.53,0,0,1-.325.111m6.29-5.743a.534.534,0,0,1-.391-.9c.953-1.03,1.871-2.112,2.728-3.215a.533.533,0,1,1,.842.654c-.875,1.127-1.813,2.232-2.788,3.285a.531.531,0,0,1-.391.171m5.222-6.728a.533.533,0,0,1-.448-.822c.763-1.184,1.476-2.41,2.117-3.642a.533.533,0,0,1,.946.492c-.657,1.261-1.386,2.515-2.167,3.727a.532.532,0,0,1-.448.244m3.927-7.555a.533.533,0,0,1-.494-.732,41.257,41.257,0,0,0,1.372-3.977.533.533,0,0,1,1.024.3,42.213,42.213,0,0,1-1.408,4.08.533.533,0,0,1-.494.334m2.348-8.18a.527.527,0,0,1-.092-.008.533.533,0,0,1-.434-.616,36.979,36.979,0,0,0,.483-4.173.533.533,0,1,1,1.064.062,38.118,38.118,0,0,1-.5,4.293.533.533,0,0,1-.525.442" transform="translate(-1135.529 -131.722)"/>
              <path id="Caminho_18403" data-name="Caminho 18403" d="M1459.744,739.164l-.64,0a.533.533,0,0,1,0-1.066h0l.768,0c1.138,0,2.309-.013,3.482-.038h.011a.533.533,0,0,1,.011,1.066c-1.226.026-2.451.033-3.638.038m-4.9-.084h-.019c-1.446-.05-2.884-.121-4.272-.214a.533.533,0,1,1,.071-1.064c1.377.092,2.8.163,4.238.213a.533.533,0,0,1-.018,1.066m12.785-.1a.533.533,0,0,1-.024-1.065c1.388-.063,2.816-.143,4.245-.24a.533.533,0,0,1,.072,1.064c-1.437.1-2.873.178-4.269.241h-.024m-21.285-.475-.055,0c-1.439-.149-2.868-.325-4.25-.525a.533.533,0,0,1,.153-1.055c1.367.2,2.781.373,4.206.52a.533.533,0,0,1-.054,1.063m29.792-.093a.533.533,0,0,1-.046-1.064c1.384-.121,2.808-.258,4.234-.408a.533.533,0,0,1,.112,1.06c-1.432.151-2.863.289-4.253.41l-.047,0m-38.221-1.136a.541.541,0,0,1-.1-.01c-1.426-.274-2.835-.583-4.188-.918a.533.533,0,1,1,.256-1.035c1.335.331,2.725.636,4.133.906a.533.533,0,0,1-.1,1.056m-8.263-2.057a.525.525,0,0,1-.159-.024c-1.393-.435-2.757-.912-4.054-1.418a.533.533,0,1,1,.387-.993c1.275.5,2.616.966,3.985,1.394a.533.533,0,0,1-.159,1.042m-7.925-3.1a.528.528,0,0,1-.231-.053c-1.314-.635-2.59-1.322-3.792-2.04a.533.533,0,0,1,.547-.915c1.174.7,2.422,1.374,3.708,2a.533.533,0,0,1-.233,1.013m-7.293-4.379a.53.53,0,0,1-.318-.105,39.945,39.945,0,0,1-3.323-2.755.533.533,0,0,1,.724-.782,38.838,38.838,0,0,0,3.234,2.681.533.533,0,0,1-.318.961m-6.232-5.786a.532.532,0,0,1-.4-.186,37.65,37.65,0,0,1-2.619-3.437.533.533,0,0,1,.884-.6,36.6,36.6,0,0,0,2.545,3.34.533.533,0,0,1-.4.88m-4.768-7.047a.533.533,0,0,1-.472-.284c-.63-1.193-1.231-2.469-1.838-3.9a.533.533,0,0,1,.981-.417c.594,1.4,1.183,2.65,1.8,3.817a.533.533,0,0,1-.471.782m-3.4-7.816a.533.533,0,0,1-.5-.344c-.441-1.158-.909-2.433-1.474-4.012a.533.533,0,0,1,1-.359c.563,1.573,1.029,2.842,1.467,3.993a.533.533,0,0,1-.5.722m-2.9-8.021a.533.533,0,0,1-.5-.354c-.424-1.193-.928-2.6-1.448-4a.533.533,0,1,1,1-.371c.523,1.406,1.028,2.82,1.454,4.016a.533.533,0,0,1-.5.712m-2.994-7.983a.533.533,0,0,1-.494-.331c-.573-1.4-1.126-2.671-1.694-3.883a.533.533,0,0,1,.965-.452c.575,1.228,1.136,2.514,1.715,3.931a.533.533,0,0,1-.493.734m-3.637-7.705a.532.532,0,0,1-.467-.275c-.7-1.265-1.442-2.475-2.2-3.6a.533.533,0,1,1,.883-.6c.775,1.146,1.531,2.383,2.249,3.675a.534.534,0,0,1-.208.725.528.528,0,0,1-.258.067m-4.786-7.041a.531.531,0,0,1-.409-.191c-.875-1.044-1.838-2.081-2.863-3.082a.533.533,0,0,1,.745-.763c1.049,1.025,2.037,2.088,2.934,3.159a.533.533,0,0,1-.408.875m-6.072-5.963a.529.529,0,0,1-.339-.122c-1.043-.862-2.139-1.706-3.35-2.58a.533.533,0,1,1,.624-.864c1.23.888,2.344,1.746,3.4,2.623a.533.533,0,0,1-.34.944m-6.9-5.012a.528.528,0,0,1-.291-.087c-1.08-.705-2.256-1.447-3.6-2.267a.533.533,0,1,1,.557-.909c1.348.825,2.533,1.572,3.621,2.283a.533.533,0,0,1-.292.979m-7.263-4.474a.53.53,0,0,1-.272-.075l-1.019-.606q-1.324-.787-2.647-1.578a.533.533,0,0,1,.548-.914q1.319.791,2.643,1.575l1.02.606a.533.533,0,0,1-.273.991m-7.3-4.408a.531.531,0,0,1-.283-.081c-1.314-.825-2.488-1.589-3.588-2.338a.533.533,0,1,1,.6-.881c1.089.741,2.252,1.5,3.555,2.316a.533.533,0,0,1-.284.984m-7.033-4.813a.531.531,0,0,1-.323-.109c-1.18-.9-2.3-1.817-3.326-2.724a.533.533,0,0,1,.706-.8c1.007.891,2.106,1.791,3.266,2.676a.533.533,0,0,1-.324.957m-6.361-5.658a.531.531,0,0,1-.388-.167q-.421-.445-.83-.9c-.681-.764-1.345-1.563-1.974-2.377a.533.533,0,0,1,.843-.652c.614.793,1.261,1.573,1.926,2.318q.4.447.809.881a.533.533,0,0,1-.387.9m-5.211-6.731a.532.532,0,0,1-.451-.248c-.752-1.19-1.471-2.448-2.136-3.738a.533.533,0,1,1,.947-.489c.652,1.263,1.355,2.494,2.091,3.658a.533.533,0,0,1-.45.817m-3.915-7.561a.533.533,0,0,1-.491-.326c-.54-1.284-1.054-2.637-1.527-4.021a.533.533,0,0,1,1.009-.345c.465,1.361.97,2.69,1.5,3.952a.533.533,0,0,1-.491.739m-2.77-8.062a.533.533,0,0,1-.513-.391c-.37-1.333-.719-2.735-1.039-4.165a.533.533,0,1,1,1.04-.233c.316,1.413.661,2.8,1.026,4.113a.534.534,0,0,1-.514.675m-1.873-8.322a.533.533,0,0,1-.524-.439c-.244-1.352-.474-2.775-.685-4.229a.533.533,0,0,1,1.055-.153c.209,1.442.438,2.853.68,4.193a.533.533,0,0,1-.43.619.561.561,0,0,1-.095.008m-1.236-8.439a.533.533,0,0,1-.529-.471c-.159-1.35-.308-2.741-.455-4.251a.533.533,0,1,1,1.061-.1c.146,1.5.294,2.887.452,4.23a.533.533,0,0,1-.467.592.515.515,0,0,1-.063,0m-.835-8.487a.533.533,0,0,1-.531-.489q-.178-2.137-.336-4.254a.533.533,0,1,1,1.063-.08q.161,2.112.336,4.246a.533.533,0,0,1-.487.576l-.045,0" transform="translate(-882.581 -403.073)"/>
              <rect id="Retângulo_5185" data-name="Retângulo 5185" width="7.288" height="7.019" transform="translate(591.346 255.835)" fill="#fff"/>
              <path id="Caminho_18406" data-name="Caminho 18406" d="M1754.8,761.059h-7.288a.533.533,0,0,1-.533-.533v-7.019a.533.533,0,0,1,.533-.533h7.288a.533.533,0,0,1,.533.533v7.019a.533.533,0,0,1-.533.533m-6.755-1.066h6.222V754.04h-6.222Z" transform="translate(-1155.636 -497.672)"/>
              <rect id="Retângulo_5186" data-name="Retângulo 5186" width="7.288" height="7.019" transform="translate(534.741 48.874)" fill="#fff"/>
              <path id="Caminho_18407" data-name="Caminho 18407" d="M1675.2,158.964h-7.288a.533.533,0,0,1-.533-.533v-7.019a.533.533,0,0,1,.533-.533h7.288a.533.533,0,0,1,.533.533v7.019a.533.533,0,0,1-.533.533m-6.755-1.066h6.222v-5.953h-6.222Z" transform="translate(-1133.171 -102.538)"/>
              <rect id="Retângulo_5188" data-name="Retângulo 5188" width="7.288" height="7.019" transform="translate(320.38 169.122)" fill="#fff"/>
              <path id="Caminho_18409" data-name="Caminho 18409" d="M1006.133,474.468h-7.288a.533.533,0,0,1-.533-.533v-7.019a.533.533,0,0,1,.533-.533h7.288a.533.533,0,0,1,.533.533v7.019a.533.533,0,0,1-.533.533m-6.755-1.066h6.222v-5.953h-6.222Z" transform="translate(-678.465 -297.793)"/>
              <path id="Caminho_18494" data-name="Caminho 18494" d="M1608.323,47.416h-.005l-46.232-.429a.533.533,0,0,1,0-1.066h.005l46.232.429a.533.533,0,0,1,0,1.066" transform="translate(-1061.254 -31.208)"/>
              <rect id="Retângulo_5208" data-name="Retângulo 5208" width="7.288" height="7.019" transform="translate(497.193 11.952)" fill="#fff"/>
              <path id="Caminho_18495" data-name="Caminho 18495" d="M1558,43.722h-7.288a.533.533,0,0,1-.533-.533V36.17a.533.533,0,0,1,.533-.533H1558a.533.533,0,0,1,.533.533v7.019a.533.533,0,0,1-.533.533m-6.755-1.066h6.222V36.7h-6.222Z" transform="translate(-1053.524 -24.218)"/>
              <path id="Caminho_18496" data-name="Caminho 18496" d="M1691.249,44.479a.533.533,0,0,1-.28-.986l4.618-2.849-4.558-3a.533.533,0,1,1,.586-.89l5.256,3.463a.533.533,0,0,1-.014.9l-5.33,3.288a.53.53,0,0,1-.279.079" transform="translate(-1149.031 -24.915)"/>
              <path id="Caminho_18506" data-name="Caminho 18506" d="M1320.677,164.874a.534.534,0,0,1-.519-.414,14.336,14.336,0,0,0-1.712-4.25.533.533,0,1,1,.911-.554,15.392,15.392,0,0,1,1.841,4.565.533.533,0,0,1-.52.652" transform="translate(-895.979 -108.33)"/>
              <path id="Caminho_18507" data-name="Caminho 18507" d="M1339.2,160.821a.533.533,0,0,1-.531-.5,38.365,38.365,0,0,1,.2-6.546.533.533,0,1,1,1.058.124,37.342,37.342,0,0,0-.193,6.364.533.533,0,0,1-.5.562h-.03" transform="translate(-909.733 -104.183)"/>
              <path id="Caminho_18508" data-name="Caminho 18508" d="M1354.62,165.355a.526.526,0,0,1-.173-.029.533.533,0,0,1-.332-.677,32.273,32.273,0,0,1,2.189-4.97.533.533,0,0,1,.936.511,31.171,31.171,0,0,0-2.117,4.805.533.533,0,0,1-.5.36" transform="translate(-920.254 -108.33)"/>
              <path id="Caminho_18550" data-name="Caminho 18550" d="M1401.992,1.757a17.293,17.293,0,0,0-16.449,8.425,18.854,18.854,0,0,0,.151,18.355,14.243,14.243,0,0,0,6.518,6.282,19.87,19.87,0,0,0,7.621,1.225,15.966,15.966,0,0,0,5.982-.738,12.3,12.3,0,0,0,4.125-2.836c4.712-4.641,7.078-11.587,5.6-17.948s-6.954-12-13.552-12.765" transform="translate(-940.061 -1.126)" fill="#fff"/>
              <path id="Caminho_18551" data-name="Caminho 18551" d="M1399.554,35.455c-.282,0-.561,0-.839-.007a20.42,20.42,0,0,1-7.826-1.268,14.866,14.866,0,0,1-6.771-6.511,19.446,19.446,0,0,1-.147-18.882A17.824,17.824,0,0,1,1400.943.1c6.523.752,12.415,6.293,14.01,13.174,1.465,6.323-.792,13.564-5.75,18.448a12.742,12.742,0,0,1-4.308,2.953,14.749,14.749,0,0,1-5.342.78m-.4-34.392a16.852,16.852,0,0,0-14.257,8.257,18.362,18.362,0,0,0,.155,17.828,13.815,13.815,0,0,0,6.265,6.053,19.506,19.506,0,0,0,7.418,1.181,15.454,15.454,0,0,0,5.782-.7,11.7,11.7,0,0,0,3.943-2.718c4.7-4.63,6.842-11.479,5.458-17.448-1.5-6.457-7-11.654-13.093-12.356a14.542,14.542,0,0,0-1.67-.1" transform="translate(-938.951 0.002)"/>
              <path id="Caminho_18552" data-name="Caminho 18552" d="M1432.955,72.071a.532.532,0,0,1-.533-.532l-.107-42.034a.533.533,0,0,1,.532-.534h0a.533.533,0,0,1,.533.532l.107,42.034a.533.533,0,0,1-.532.534Z" transform="translate(-973.419 -19.688)"/>
              <path id="Caminho_18553" data-name="Caminho 18553" d="M1433.207,64.087a.532.532,0,0,1-.491-.74,20.012,20.012,0,0,1,7.628-9,.533.533,0,0,1,.573.9,18.938,18.938,0,0,0-7.219,8.513.533.533,0,0,1-.491.326" transform="translate(-973.662 -36.878)"/>
              <path id="Caminho_18554" data-name="Caminho 18554" d="M1395.413,38.853a.178.178,0,0,1-.176-.152,7.133,7.133,0,0,1,1.391-5.367.178.178,0,0,1,.282.216,6.776,6.776,0,0,0-1.322,5.1.178.178,0,0,1-.149.2l-.027,0" transform="translate(-948.168 -22.606)"/>
              <path id="Caminho_18555" data-name="Caminho 18555" d="M1403.581,44.726l-.029,0a.177.177,0,0,1-.147-.2l.483-3.006a.178.178,0,1,1,.351.056l-.483,3.005a.178.178,0,0,1-.175.15" transform="translate(-953.77 -28.111)"/>
              <path id="Caminho_18556" data-name="Caminho 18556" d="M1458.363,82.742a.178.178,0,0,1-.107-.319,10.235,10.235,0,0,0,3.228-4.089.178.178,0,0,1,.326.142,10.6,10.6,0,0,1-3.341,4.231.179.179,0,0,1-.107.036" transform="translate(-991 -53.163)"/>
              <g id="Grupo_18242" data-name="Grupo 18242" transform="translate(446.015 27.003)" opacity="0.129">
                <g id="Grupo_18241" data-name="Grupo 18241">
                  <g id="Grupo_18240" data-name="Grupo 18240" clip-path="url(#clip-path-11)">
                    <path id="Caminho_18557" data-name="Caminho 18557" d="M1417.805,84.28c-.533-.008-.857.382-1.175.74-.634.635-1.233,1.307-1.9,1.906a15.621,15.621,0,0,1-3.348,2.048c-.143.068-.29.129-.436.191a12.414,12.414,0,0,1-1.751.445l-.115.016c-.113.014-.182.024-.187.026-1.981.234-3.861-.128-7.5-.936a17.526,17.526,0,0,1-2.281-.775c-.238-.063-1.06-.376-1.354-.487a12.205,12.205,0,0,1-2.579-1.587c-.489-.33-.818-.888-1.362-1.125a1.2,1.2,0,0,0-1.342,1.936,14.8,14.8,0,0,0,3.64,2.623,18,18,0,0,0,1.8.727,19.453,19.453,0,0,0,3.114,1.466,19.862,19.862,0,0,0,3.934.935,10.009,10.009,0,0,0,4-.058,12.2,12.2,0,0,0,2.96-1.11,16.156,16.156,0,0,0,5.062-3.48c.536-.559,1.088-1.1,1.606-1.679a1.055,1.055,0,0,0,.322-.755,1.1,1.1,0,0,0-1.1-1.069" transform="translate(-1392.109 -84.28)"/>
                  </g>
                </g>
              </g>
              <path id="Caminho_18655" data-name="Caminho 18655" d="M1271.542,304.424c0,11.967-7.28,19.772-23.807,21.5H1097.558l-2.367-113.761,176.351.64Z" transform="translate(-744.305 -144.19)" fill="#fff"/>
              <path id="Caminho_18656" data-name="Caminho 18656" d="M1246.6,325.33H1096.428a.532.532,0,0,1-.533-.522l-2.367-113.761a.532.532,0,0,1,.535-.544l176.351.639a.533.533,0,0,1,.531.533v91.617c0,12.933-8.171,20.346-24.285,22.034l-.056,0m-149.655-1.066h149.627c15.462-1.628,23.3-8.683,23.3-20.971V212.207l-175.274-.635Z" transform="translate(-743.175 -143.06)"/>
              <path id="Caminho_18657" data-name="Caminho 18657" d="M1578.311,279.061s1.085-17.512-29.249-14.692c5.285-28.879-2.328-92.376-2.328-92.376s27.885-4.574,31.682,10.158-.106,96.91-.106,96.91" transform="translate(-1051.179 -116.432)" fill="#fff"/>
              <path id="Caminho_18658" data-name="Caminho 18658" d="M1577.181,278.469h-.03a.533.533,0,0,1-.5-.557s0-.012,0-.021a12.436,12.436,0,0,0-3.911-8.839c-4.749-4.587-13.079-6.364-24.757-5.276a.523.523,0,0,1-.442-.171.533.533,0,0,1-.131-.456c5.211-28.47-2.257-91.582-2.332-92.216a.533.533,0,0,1,.443-.589,65,65,0,0,1,14.553-.45c9.987.936,16.118,4.74,17.732,11,3.755,14.569.106,92.929-.087,97.013,0,.032,0,.053,0,.063a.533.533,0,0,1-.532.5M1554.255,262.4c8.738,0,15.194,1.977,19.243,5.9a13.958,13.958,0,0,1,3.353,5.025c.748-17.5,3.136-79.688-.081-92.171-3.359-13.029-26.825-10.353-30.577-9.838.7,6.075,7.141,63.794,2.385,91.33q2.981-.251,5.677-.251" transform="translate(-1050.049 -115.306)"/>
              <path id="Caminho_18659" data-name="Caminho 18659" d="M1154.045,283.717h-20.352a.178.178,0,0,1,0-.355h20.352a.178.178,0,0,1,0,.355" transform="translate(-770.351 -192.575)"/>
              <path id="Caminho_18660" data-name="Caminho 18660" d="M1162.422,254.654h-28.728a.178.178,0,0,1,0-.355h28.728a.178.178,0,0,1,0,.355" transform="translate(-770.352 -172.824)"/>
              <path id="Caminho_18661" data-name="Caminho 18661" d="M1260.569,519.814h0l-96.336-.595a.533.533,0,0,1,0-1.066h0l96.336.595a.533.533,0,0,1,0,1.066" transform="translate(-790.865 -352.142)"/>
              <path id="Caminho_18662" data-name="Caminho 18662" d="M1452.814,517.2a.533.533,0,0,1-.28-.987l4.377-2.693-4.159-3.351a.533.533,0,1,1,.669-.83l4.747,3.824a.533.533,0,0,1-.055.869l-5.02,3.089a.529.529,0,0,1-.279.079" transform="translate(-986.988 -346.073)"/>
              <path id="Caminho_18663" data-name="Caminho 18663" d="M1166.712,514.38a.529.529,0,0,1-.279-.079l-5.02-3.089a.533.533,0,0,1-.055-.869l4.747-3.824a.533.533,0,1,1,.669.83l-4.159,3.351,4.377,2.693a.533.533,0,0,1-.28.987" transform="translate(-789.138 -344.155)"/>
              <g id="Grupo_18311" data-name="Grupo 18311" transform="translate(496.608 147.794)" opacity="0.129">
                <g id="Grupo_18310" data-name="Grupo 18310">
                  <g id="Grupo_18309" data-name="Grupo 18309" clip-path="url(#clip-path-12)">
                    <path id="Caminho_18664" data-name="Caminho 18664" d="M1581.472,471.7l0,0,0,0a1.007,1.007,0,0,0-.078-.168,4.691,4.691,0,0,0-.612-1.069,13.324,13.324,0,0,0-2.579-2.694,9.612,9.612,0,0,0-1.512-1.371c-6.507-3.89-14.995-5.228-22.959-5.092-.074.009-.152.016-.229.024a3.88,3.88,0,0,0-2.478.425,1.959,1.959,0,0,0-.777.544,1.109,1.109,0,0,0,.18,1.525,2.206,2.206,0,0,0,2.067,1.151,43.768,43.768,0,0,1,6.176.608,65.283,65.283,0,0,1,11.229,2.349c.179.065.445.16.688.244l-.126-.042a27.277,27.277,0,0,1,4.217,1.967c2.151,1.273,1.084.607,2.32,1.405a11.26,11.26,0,0,1,1.408,1.258c.084.078.143.131.18.164a1.194,1.194,0,0,0,.28.208,1.368,1.368,0,0,0,.566.241,1.759,1.759,0,0,0,2.047-.942,1.3,1.3,0,0,0-.011-.733" transform="translate(-1550.021 -461.293)"/>
                  </g>
                </g>
              </g>
              <path id="Caminho_18665" data-name="Caminho 18665" d="M1214.214,371.7l69.411.711v-52.95l-69.411-.046Z" transform="translate(-825.195 -217.079)" fill="#fff"/>
              <path id="Caminho_18666" data-name="Caminho 18666" d="M1282.495,371.815h-.005l-69.411-.711a.533.533,0,0,1-.528-.533V318.286a.534.534,0,0,1,.533-.533h0l69.411.046a.533.533,0,0,1,.532.533v52.95a.533.533,0,0,1-.533.533m-68.878-1.771,68.345.7V318.864l-68.345-.045Z" transform="translate(-824.064 -215.948)"/>
              <path id="Caminho_18667" data-name="Caminho 18667" d="M1359.594,338.959h22.833V319.417l-22.833.027Z" transform="translate(-923.997 -217.079)" fill="#b8b8f1"/>
              <path id="Caminho_18668" data-name="Caminho 18668" d="M1381.3,338.361h-22.833a.533.533,0,0,1-.533-.533V318.313a.533.533,0,0,1,.532-.533l22.833-.028h0a.533.533,0,0,1,.533.533v19.542a.533.533,0,0,1-.533.533M1359,337.3h21.767V318.82l-21.767.026Z" transform="translate(-922.867 -215.948)"/>
              <rect id="Retângulo_5238" data-name="Retângulo 5238" width="6.396" height="6.396" transform="translate(389.019 102.338)" fill="#fff"/>
              <path id="Caminho_18669" data-name="Caminho 18669" d="M1219.48,325.215h-6.4a.533.533,0,0,1-.533-.533v-6.4a.533.533,0,0,1,.533-.533h6.4a.533.533,0,0,1,.533.533v6.4a.533.533,0,0,1-.533.533m-5.863-1.066h5.33v-5.33h-5.33Z" transform="translate(-824.064 -215.948)"/>
              <rect id="Retângulo_5239" data-name="Retângulo 5239" width="6.396" height="6.396" transform="translate(389.019 148.26)" fill="#fff"/>
              <path id="Caminho_18670" data-name="Caminho 18670" d="M1219.48,468.548h-6.4a.533.533,0,0,1-.533-.533v-6.4a.533.533,0,0,1,.533-.533h6.4a.533.533,0,0,1,.533.533v6.4a.533.533,0,0,1-.533.533m-5.863-1.066h5.33v-5.33h-5.33Z" transform="translate(-824.064 -313.359)"/>
              <rect id="Retângulo_5240" data-name="Retângulo 5240" width="6.396" height="6.396" transform="translate(451.705 102.338)" fill="#fff"/>
              <path id="Caminho_18671" data-name="Caminho 18671" d="M1415.135,325.215h-6.4a.533.533,0,0,1-.533-.533v-6.4a.533.533,0,0,1,.533-.533h6.4a.533.533,0,0,1,.533.533v6.4a.533.533,0,0,1-.533.533m-5.863-1.066h5.33v-5.33h-5.33Z" transform="translate(-957.034 -215.948)"/>
              <rect id="Retângulo_5241" data-name="Retângulo 5241" width="6.396" height="6.396" transform="translate(452.035 148.798)" fill="#fff"/>
              <path id="Caminho_18672" data-name="Caminho 18672" d="M1416.164,470.226h-6.4a.533.533,0,0,1-.533-.533v-6.4a.533.533,0,0,1,.533-.533h6.4a.533.533,0,0,1,.533.533v6.4a.533.533,0,0,1-.533.533m-5.863-1.066h5.33v-5.33h-5.33Z" transform="translate(-957.733 -314.499)"/>
              <path id="Caminho_18673" data-name="Caminho 18673" d="M1282.452,339.283h0a.177.177,0,0,1-.176-.18l.2-18.608a.171.171,0,0,1,.179-.176.177.177,0,0,1,.176.18l-.2,18.608a.177.177,0,0,1-.177.176" transform="translate(-871.449 -217.692)"/>
              <path id="Caminho_18674" data-name="Caminho 18674" d="M1282.452,426.223h0a.177.177,0,0,1-.176-.18l.2-18.608a.178.178,0,0,1,.049-.121l7.852-8.213a.178.178,0,0,1,.257.246l-7.8,8.162-.2,18.538a.177.177,0,0,1-.177.176" transform="translate(-871.449 -271.196)"/>
              <path id="Caminho_18675" data-name="Caminho 18675" d="M1358.9,443.641h0a.177.177,0,0,1-.176-.18l.2-18.608a.173.173,0,0,1,.18-.176.178.178,0,0,1,.176.18l-.2,18.608a.178.178,0,0,1-.178.176" transform="translate(-923.406 -288.614)"/>
              <g id="Grupo_18314" data-name="Grupo 18314" transform="translate(435.628 122.022)" opacity="0.129">
                <g id="Grupo_18313" data-name="Grupo 18313">
                  <g id="Grupo_18312" data-name="Grupo 18312" clip-path="url(#clip-path-13)">
                    <path id="Caminho_18676" data-name="Caminho 18676" d="M1381.317,380.958c-5.068-.109-10.14-.1-15.209-.1-1.985.068-4.009.031-5.97.278a.744.744,0,0,0,.287,1.425c7.027-.39,14.074-.193,21.108-.115a.755.755,0,1,0-.215-1.486" transform="translate(-1359.689 -380.855)"/>
                  </g>
                </g>
              </g>
              <g id="Grupo_18317" data-name="Grupo 18317" transform="translate(451.362 108.729)" opacity="0.129">
                <g id="Grupo_18316" data-name="Grupo 18316">
                  <g id="Grupo_18315" data-name="Grupo 18315" clip-path="url(#clip-path-14)">
                    <path id="Caminho_18677" data-name="Caminho 18677" d="M1415.262,339.517a10.155,10.155,0,0,0-2.44-.155c-1.185.045-2.413-.053-3.578.111a.744.744,0,0,0,.287,1.425c1.79-.044,3.581-.047,5.371-.052a.716.716,0,0,0,.36-1.329" transform="translate(-1408.797 -339.362)"/>
                  </g>
                </g>
              </g>
              <g id="Grupo_18320" data-name="Grupo 18320" transform="translate(389.492 108.801)" opacity="0.129">
                <g id="Grupo_18319" data-name="Grupo 18319">
                  <g id="Grupo_18318" data-name="Grupo 18318" clip-path="url(#clip-path-15)">
                    <path id="Caminho_18678" data-name="Caminho 18678" d="M1221.722,340.09a1.057,1.057,0,0,0-.854-.19c-.4,0-.792-.018-1.188-.029-.779-.02-2.4-.108-2.548-.149-.366-.04-.742-.254-1.092-.041a.728.728,0,0,0,.365,1.35c1.272.078,2.545.155,3.82.165a5.487,5.487,0,0,0,1.283-.031.662.662,0,0,0,.213-1.075" transform="translate(-1215.688 -339.588)"/>
                  </g>
                </g>
              </g>
              <path id="Caminho_18679" data-name="Caminho 18679" d="M1446,319.153h0c-6-.068-12.086-.08-18.1-.036h0a.178.178,0,0,1,0-.355c6.012-.045,12.1-.033,18.1.036a.178.178,0,0,1,0,.355" transform="translate(-970.3 -216.615)"/>
              <path id="Caminho_18680" data-name="Caminho 18680" d="M1446.643,485.511h0c-5.491-.068-11.048-.079-16.519-.036h0a.178.178,0,0,1,0-.355c5.472-.044,11.032-.032,16.526.036a.178.178,0,0,1,0,.355" transform="translate(-971.807 -329.675)"/>
              <path id="Caminho_18681" data-name="Caminho 18681" d="M1469.665,332.4h-.01a.533.533,0,0,1-.523-.543l.249-13.511a.533.533,0,0,1,.95-.322l3.233,4.062a.533.533,0,0,1-.834.664l-2.31-2.9-.222,12.03a.533.533,0,0,1-.532.523" transform="translate(-998.44 -215.994)"/>
              <path id="Caminho_18682" data-name="Caminho 18682" d="M1459.759,323.957a.533.533,0,0,1-.389-.9,51.5,51.5,0,0,0,3.385-4,.533.533,0,1,1,.848.646,52.716,52.716,0,0,1-3.455,4.083.531.531,0,0,1-.389.168" transform="translate(-991.708 -216.693)"/>
              <path id="Caminho_18683" data-name="Caminho 18683" d="M1462.992,453.987a.532.532,0,0,1-.417-.2l-3.233-4.062a.533.533,0,0,1,.834-.664l2.31,2.9.221-12.03a.533.533,0,1,1,1.066.02l-.249,13.511a.532.532,0,0,1-.362.495.524.524,0,0,1-.171.028" transform="translate(-991.708 -298.628)"/>
              <path id="Caminho_18684" data-name="Caminho 18684" d="M1469.857,473.046a.533.533,0,0,1-.423-.856,52.771,52.771,0,0,1,3.455-4.083.533.533,0,0,1,.778.73,51.578,51.578,0,0,0-3.385,4,.531.531,0,0,1-.424.21" transform="translate(-998.571 -318.016)"/>
              <g id="Grupo_18323" data-name="Grupo 18323" transform="translate(388.121 154.588)" opacity="0.129">
                <g id="Grupo_18322" data-name="Grupo 18322">
                  <g id="Grupo_18321" data-name="Grupo 18321" clip-path="url(#clip-path-16)">
                    <path id="Caminho_18685" data-name="Caminho 18685" d="M1281.77,483.9c-.028,0-.056,0-.083,0h-.158c-.18-.022-1.024.049-.523,0-1.173.047-1.269-.02-2.422-.023-4.458.323-8.3-.268-13.057-.314-8.865-.2-17.736-.192-26.6-.087-6.52.061-13.033-.28-19.545-.549-1.363-.016-2.727-.046-4.086-.169l.216.029c-.636-.08-1.274-.144-1.912-.211a3.351,3.351,0,0,0-1.476.005,1.182,1.182,0,0,0,.456,2.263c3.737.25,7.48.41,11.227.408,2.958.124,5.911.362,8.872.422,2.777.092,5.551-.1,8.327-.116,4.314-.061,8.628-.037,12.942-.025,3.652.077,7.3-.068,10.951-.121,5.011.184,11.5.45,14.768.048a6.942,6.942,0,0,1,1.641.175c.107.029.13.028.1.011a.7.7,0,0,0,.309.06.908.908,0,1,0,.05-1.814" transform="translate(-1211.413 -482.499)"/>
                  </g>
                </g>
              </g>
            </g>
          </g>
        </g>
      </g>
    </g>
  </g>
</svg>
