<svg id="Grupo_17381" data-name="Grupo 17381" xmlns="http://www.w3.org/2000/svg" width="23.302" height="23.275" viewBox="0 0 23.302 23.275">
  <path id="Caminho_16463" data-name="Caminho 16463" d="M22.955.552s0,0-.006-.007S22.937.54,22.931.535a.9.9,0,0,0-.173-.106C22.739.42,22.725.4,22.7.394l-.007,0c-.021-.009-.039-.024-.06-.032a.958.958,0,0,0-.252-.047c-.026,0-.051-.014-.078-.014a.967.967,0,0,0-.336.057L.638,8.114a.969.969,0,0,0-.232,1.7l6.449,4.607L7.766,20.8a.97.97,0,0,0,1.736.444l2.288-3.05,6,5.147a.972.972,0,0,0,.632.234.988.988,0,0,0,.324-.055.972.972,0,0,0,.629-.74L23.286,1.465A.967.967,0,0,0,22.955.552ZM10.914,16.122l-.07.1L9.356,18.207l-.563-3.947,8.414-7.293Z" transform="translate(0.001 -0.299)" fill="#fff"/>
</svg>
