<svg xmlns="http://www.w3.org/2000/svg" xmlns:xlink="http://www.w3.org/1999/xlink" width="144.157" height="144.157" viewBox="0 0 144.157 144.157">
  <defs>
    <clipPath id="clip-path">
      <rect id="Retângulo_1869" data-name="Retângulo 1869" width="144.157" height="144.157" transform="translate(0 0)" fill="none"/>
    </clipPath>
  </defs>
  <g id="Grupo_17471" data-name="Grupo 17471" transform="translate(0 0.001)">
    <g id="Grupo_17470" data-name="Grupo 17470" transform="translate(0 -0.001)" clip-path="url(#clip-path)">
      <path id="Caminho_16727" data-name="Caminho 16727" d="M160.248,91.2A69.051,69.051,0,1,1,91.2,22.146,69.556,69.556,0,0,1,160.248,91.2" transform="translate(-16.091 -16.091)" fill="#eaedff"/>
      <path id="Caminho_16728" data-name="Caminho 16728" d="M70.8,141.6a70.8,70.8,0,1,1,70.8-70.8,71.559,71.559,0,0,1-.479,8.252,1.751,1.751,0,0,1-3.478-.405A67.33,67.33,0,0,0,70.8,3.5a67.3,67.3,0,1,0,0,134.6,1.751,1.751,0,0,1,0,3.5" transform="translate(0 0)" fill="#5b67e7"/>
      <path id="Caminho_16729" data-name="Caminho 16729" d="M164.4,228.77a9.946,9.946,0,0,1-7.033-2.913l-21.422-21.422a9.946,9.946,0,1,1,14.066-14.066L164.4,204.758l28.926-28.925A9.946,9.946,0,1,1,207.391,189.9l-24.074,24.074-11.885,11.885a9.948,9.948,0,0,1-7.033,2.913" transform="translate(-96.659 -125.641)" fill="#fff"/>
      <path id="Caminho_16730" data-name="Caminho 16730" d="M289.543,296.366a1.75,1.75,0,0,1-1.238-2.988l5.672-5.672a1.75,1.75,0,1,1,2.475,2.475l-5.672,5.672a1.744,1.744,0,0,1-1.238.513" transform="translate(-209.107 -208.671)" fill="#5b67e7"/>
      <path id="Caminho_16731" data-name="Caminho 16731" d="M144.006,210.139a11.621,11.621,0,0,1-8.271-3.426l-21.422-21.422a11.7,11.7,0,1,1,16.541-16.542L144.006,181.9l27.688-27.688a11.7,11.7,0,1,1,16.541,16.541l-14.261,14.262a1.751,1.751,0,0,1-2.475-2.476l14.261-14.261a8.2,8.2,0,1,0-11.59-11.59l-28.925,28.926a1.751,1.751,0,0,1-2.476,0l-14.39-14.389a8.2,8.2,0,1,0-11.59,11.59l21.422,21.422a8.2,8.2,0,0,0,11.59,0,1.751,1.751,0,0,1,2.476,2.476,11.621,11.621,0,0,1-8.271,3.426" transform="translate(-80.569 -109.564)" fill="#5b67e7"/>
    </g>
  </g>
</svg>
